SplineFontDB: 3.0
FontName: SPThotsakan-Oblique
FullName: SP Thotsakan Oblique
FamilyName: SP Thotsakan
Weight: Book
Copyright: Copyright (c) 2006 by Department of Intellectual Property (DIP), Ministry of Commerce and Software Industry Promotion Agency (Public Organization) (SIPA). All rights reserved.
Version: 2.1
ItalicAngle: -12
UnderlinePosition: -58
UnderlineWidth: 35
Ascent: 800
Descent: 200
LayerCount: 2
Layer: 0 0 "Back" 
Layer: 1 0 "Fore" 
XUID: [1021 375 425136265 12280796]
FSType: 0
OS2Version: 3
OS2_WeightWidthSlopeOnly: 0
OS2_UseTypoMetrics: 1
CreationTime: 1157677500
ModificationTime: 1211185599
PfmFamily: 17
TTFWeight: 400
TTFWidth: 5
LineGap: 20
VLineGap: 0
Panose: 2 0 5 6 4 0 0 2 0 4
OS2TypoAscent: 0
OS2TypoAOffset: 1
OS2TypoDescent: 0
OS2TypoDOffset: 1
OS2TypoLinegap: 0
OS2WinAscent: -107
OS2WinAOffset: 1
OS2WinDescent: -188
OS2WinDOffset: 1
HheadAscent: 0
HheadAOffset: 1
HheadDescent: 150
HheadDOffset: 1
OS2SubXSize: 700
OS2SubYSize: 650
OS2SubXOff: 0
OS2SubYOff: 140
OS2SupXSize: 700
OS2SupYSize: 650
OS2SupXOff: 0
OS2SupYOff: 477
OS2StrikeYSize: 35
OS2StrikeYPos: 250
OS2FamilyClass: 2053
OS2Vendor: 'b513'
Lookup: 4 0 1 "'rlig' Required Ligatures in Latin lookup 0"  {"'rlig' Required Ligatures in Latin lookup 0 subtable"  } ['rlig' ('latn' <'dflt' > ) ]
Lookup: 4 0 0 "'frac' Diagonal Fractions in Latin lookup 1"  {"'frac' Diagonal Fractions in Latin lookup 1 subtable"  } ['frac' ('latn' <'dflt' > ) ]
Lookup: 4 0 0 "'ccmp' Glyph Composition/Decomposition in Latin lookup 2"  {"'ccmp' Glyph Composition/Decomposition in Latin lookup 2 subtable"  } ['ccmp' ('latn' <'dflt' > ) ]
Lookup: 6 0 0 "'liga' Standard Ligatures in Latin lookup 3"  {"'liga' Standard Ligatures in Latin lookup 3 subtable"  } ['liga' ('latn' <'dflt' > ) ]
Lookup: 6 0 0 "'liga' Standard Ligatures in Latin lookup 4"  {"'liga' Standard Ligatures in Latin lookup 4 subtable"  } ['liga' ('latn' <'dflt' > ) ]

StartChar: exclam
Encoding: 33 33 2
Width: 251
VWidth: 1473
Flags: W
HStem: 0 102<97 175> 696 20G<224.554 327>
VStem: 141 58<220.847 265.839>
LayerCount: 2
Fore
SplineSet
327 716 m 1
 199 211 l 1
 141 211 l 1
 228 716 l 1
 327 716 l 1
77 0 m 1
 97 102 l 1
 196 102 l 1
 175 0 l 1
 77 0 l 1
EndSplineSet
EndChar

StartChar: quotedbl
Encoding: 34 34 3
Width: 331
VWidth: 1473
Flags: W
HStem: 517 237<240 242 358 359 190 410 240 240>
LayerCount: 2
Fore
SplineSet
240 754 m 1
 292 754 l 1
 242 517 l 1
 190 517 l 1
 240 754 l 1
358 754 m 1
 410 754 l 1
 359 517 l 1
 308 517 l 1
 358 754 l 1
EndSplineSet
EndChar

StartChar: numbersign
Encoding: 35 35 4
Width: 530
VWidth: 1473
Flags: W
HStem: 0 21G<105 159.022 292 346.022> 225 46<82 184 247 371 435 527> 420 46<150 253 317 440 505 595>
LayerCount: 2
Fore
SplineSet
527 225 m 1
 418 225 l 1
 339 0 l 1
 292 0 l 1
 371 225 l 1
 231 225 l 1
 152 0 l 1
 105 0 l 1
 184 225 l 1
 72 225 l 1
 82 271 l 1
 200 271 l 1
 253 420 l 1
 140 420 l 1
 150 466 l 1
 268 466 l 1
 348 689 l 1
 396 689 l 1
 317 466 l 1
 457 466 l 1
 535 689 l 1
 583 689 l 1
 505 466 l 1
 605 466 l 1
 595 420 l 1
 486 420 l 1
 435 271 l 1
 538 271 l 1
 527 225 l 1
299 420 m 1
 247 271 l 1
 387 271 l 1
 440 420 l 1
 299 420 l 1
EndSplineSet
EndChar

StartChar: dollar
Encoding: 36 36 5
Width: 623
VWidth: 1473
Flags: W
HStem: 0 53<215.188 286 349 455.405> 342 68<292.511 373> 666 54<388.393 427 491 546.166>
VStem: 66 61<89.329 164> 171 62<457.917 585.562> 561 63<138.391 264.619> 619 56<572.073 624.953>
LayerCount: 2
Fore
SplineSet
358 342 m 1xfc
 275 368 171 396 171 496 c 0
 171 554 202 678 346 710 c 0
 376 716 406 719 438 720 c 1
 461 828 l 1
 514 828 l 1
 491 720 l 1
 578 718 655 662 675 588 c 1
 619 550 l 1xfa
 598 613 552 655 479 664 c 1
 421 393 l 1
 485 375 624 339 624 225 c 0
 624 135 561 -0 339 0 c 1
 309 -133 l 1
 256 -133 l 1
 286 0 l 1
 169 4 93 68 66 164 c 1
 127 200 l 1
 142 137 188 53 296 53 c 1
 358 342 l 1xfc
427 666 m 1
 277 666 233 572 233 509 c 0
 233 445 298 429 373 410 c 1
 427 666 l 1
349 53 m 1
 467 53 561 116 561 211 c 0xfc
 561 287 469 305 408 329 c 1
 349 53 l 1
EndSplineSet
EndChar

StartChar: percent
Encoding: 37 37 6
Width: 879
VWidth: 1473
Flags: W
HStem: 0 53<584.716 718.223> 273 51<624.164 754.027> 390 53<274.514 404.223> 661 55<312.201 445.245>
VStem: 193 54<470.13 597.176> 471 55<508.386 634.244> 503 55<80.0802 206.886> 783 53<119.838 244.671>
LayerCount: 2
Fore
SplineSet
193 519 m 0xfd
 193 620 296 716 393 716 c 0
 473 716 526 658 526 586 c 0
 526 494 436 390 324 390 c 0
 242 390 193 450 193 519 c 0xfd
471 580 m 0
 471 614 449 661 382 661 c 0
 308 661 247 598 247 526 c 0
 247 481 282 443 334 443 c 0
 411 443 471 510 471 580 c 0
503 129 m 0xfb
 503 221 592 324 703 324 c 0
 788 324 836 262 836 197 c 0
 836 99 738 0 635 0 c 0
 557 0 503 62 503 129 c 0xfb
783 190 m 0
 783 234 750 273 692 273 c 0
 620 273 558 206 558 135 c 0
 558 89 593 53 645 53 c 0
 724 53 783 121 783 190 c 0
262 -10 m 1
 202 -10 l 1
 768 726 l 1
 829 726 l 1
 262 -10 l 1
EndSplineSet
EndChar

StartChar: ampersand
Encoding: 38 38 7
Width: 702
VWidth: 1473
Flags: W
HStem: -10 53<187.353 340.623 583.531 626> 672 54<379.615 490.484>
VStem: 73 67<85.3724 226.871> 268 64<486.969 619.6> 502 65<548.725 659.966>
LayerCount: 2
Fore
SplineSet
443 112 m 1
 409 155 355 255 312 357 c 1
 305 353 140 282 140 146 c 0
 140 73 207 43 270 43 c 0
 294 43 363 43 443 112 c 1
436 672 m 0
 352 672 332 574 332 526 c 0
 332 499 336 468 354 438 c 1
 424 472 502 544 502 614 c 0
 502 644 487 672 436 672 c 0
492 156 m 1
 536 208 577 270 604 336 c 1
 663 324 l 1
 628 246 584 174 529 113 c 1
 571 57 615 51 639 50 c 1
 626 -10 l 1
 601 -8 537 -4 474 68 c 1
 407 12 326 -10 255 -10 c 0
 145 -10 73 48 73 134 c 0
 73 178 92 247 144 302 c 0
 185 346 251 384 295 410 c 1
 278 447 268 490 268 525 c 0
 268 595 305 726 451 726 c 0
 518 726 567 692 567 625 c 0
 567 548 516 478 436 424 c 2
 374 385 l 1
 435 260 444 223 492 156 c 1
EndSplineSet
EndChar

StartChar: quotesingle
Encoding: 39 39 8
Width: 228
VWidth: 1473
Flags: W
HStem: 517 237<247 249 197 299 247 247>
LayerCount: 2
Fore
SplineSet
247 754 m 1
 299 754 l 1
 249 517 l 1
 197 517 l 1
 247 754 l 1
EndSplineSet
EndChar

StartChar: parenleft
Encoding: 40 40 9
Width: 397
VWidth: 1473
Flags: W
VStem: 146 73<68.1074 405.352>
LayerCount: 2
Fore
SplineSet
146 232 m 0
 146 489 286 723 432 874 c 1
 517 874 l 1
 364 731 219 493 219 239 c 0
 219 146 239 15 309 -99 c 1
 224 -99 l 1
 182 -16 146 100 146 232 c 0
EndSplineSet
EndChar

StartChar: parenright
Encoding: 41 41 10
Width: 397
VWidth: 1473
Flags: W
VStem: 344 71<373.82 708.195>
LayerCount: 2
Fore
SplineSet
415 545 m 0
 415 248 228 2 130 -99 c 1
 44 -99 l 1
 146.177 -3.80911 344 233.711 344 542 c 0
 344 642 322 761 252 874 c 1
 337 874 l 1
 399 759 415 627 415 545 c 0
EndSplineSet
EndChar

StartChar: asterisk
Encoding: 42 42 11
Width: 632
VWidth: 1473
Flags: W
HStem: 538 403<480 520 480 480>
VStem: 264 425<756 762 756 756>
LayerCount: 2
Fore
SplineSet
498 757 m 1
 682 826 l 1
 689 762 l 1
 498 717 l 1
 588 583 l 1
 520 538 l 1
 466 698 l 1
 340 538 l 1
 290 576 l 1
 442 717 l 1
 264 756 l 1
 301 824 l 1
 460 757 l 1
 480 941 l 1
 551 941 l 1
 498 757 l 1
EndSplineSet
EndChar

StartChar: plus
Encoding: 43 43 12
Width: 751
VWidth: 1473
Flags: W
HStem: 301 61<150 407 479 735>
LayerCount: 2
Fore
SplineSet
477 632 m 1
 536 632 l 1
 479 362 l 1
 748 362 l 1
 735 301 l 1
 466 301 l 1
 408 31 l 1
 349 31 l 1
 407 301 l 1
 137 301 l 1
 150 362 l 1
 420 362 l 1
 477 632 l 1
EndSplineSet
EndChar

StartChar: comma
Encoding: 44 44 13
Width: 315
VWidth: 1473
Flags: W
HStem: -171 273<97 228 228 228>
LayerCount: 2
Fore
SplineSet
228 102 m 1
 208 0 l 1
 97 -171 l 1
 55 -171 l 1
 156 0 l 1
 108 0 l 1
 128 102 l 1
 228 102 l 1
EndSplineSet
EndChar

StartChar: hyphen
Encoding: 45 45 14
Width: 490
VWidth: 1473
Flags: W
HStem: 314 66<141 495 128 508 141 141>
LayerCount: 2
Fore
SplineSet
128 314 m 1
 141 380 l 1
 508 380 l 1
 495 314 l 1
 128 314 l 1
EndSplineSet
EndChar

StartChar: period
Encoding: 46 46 15
Width: 315
VWidth: 1473
Flags: W
HStem: 0 102<128 208 108 228 128 128>
LayerCount: 2
Fore
SplineSet
108 0 m 1
 128 102 l 1
 228 102 l 1
 208 0 l 1
 108 0 l 1
EndSplineSet
EndChar

StartChar: slash
Encoding: 47 47 16
Width: 331
VWidth: 1473
Flags: W
LayerCount: 2
Fore
SplineSet
57 -56 m 1
 -12 -56 l 1
 471 829 l 1
 536 829 l 1
 57 -56 l 1
EndSplineSet
EndChar

StartChar: zero
Encoding: 48 48 17
Width: 615
VWidth: 1473
Flags: W
HStem: -7 60<222.416 425.062> 617 59<332.612 535.581>
VStem: 99 66<108.033 304.601> 592 64<371.561 561.562>
LayerCount: 2
Fore
SplineSet
165 203 m 0
 165 100 210 53 318 53 c 0
 394 53 451 76 488 123 c 0
 573 228 592 431 592 472 c 0
 592 588 525 617 439 617 c 256
 284 617 223 523 181 329 c 0
 167 267 165 228 165 203 c 0
451 676 m 256
 596 676 656 608 656 469 c 0
 656 382 626 195 526 82 c 0
 474 23 400 -7 305 -7 c 0
 197 -7 99 33 99 191 c 0
 99 280 128 470 229 586 c 0
 282 646 356 676 451 676 c 256
EndSplineSet
EndChar

StartChar: one
Encoding: 49 49 18
Width: 469
VWidth: 1473
Flags: W
HStem: 0 56<91 217 283 390> 565 20G<237.148 324.766>
VStem: 80 334<0 673 -3.02156 0>
LayerCount: 2
Fore
SplineSet
80 0 m 1
 91 56 l 1
 217 56 l 1
 329 585 l 1
 205 558 l 1
 215 610 l 1
 379 673 l 1
 414 673 l 1
 283 56 l 1
 402 56 l 1
 390 0 l 1
 80 0 l 1
EndSplineSet
EndChar

StartChar: two
Encoding: 50 50 19
Width: 549
VWidth: 1473
Flags: W
HStem: 0 60<130 482> 620 59<326.873 494.344>
VStem: 524 67<438.34 591.848>
LayerCount: 2
Fore
SplineSet
407 620 m 0
 336 620 271 574 228 479 c 1
 164 488 l 1
 205 596 297 679 426 679 c 0
 545 679 591 624 591 543 c 0
 591 492 573 412 514 355 c 0
 418 261 281 230 178 137 c 0
 154 116 138 94 130 60 c 1
 494 60 l 1
 482 0 l 1
 53 0 l 1
 65 57 l 2
 77 130 108 184 327 295 c 0
 398 328 524 389 524 529 c 0
 524 602 475 620 407 620 c 0
EndSplineSet
EndChar

StartChar: three
Encoding: 51 51 20
Width: 561
VWidth: 1473
Flags: W
HStem: -9 59<176.045 380.26> 327 60<261 423.883> 620 59<316.392 498.582>
VStem: 66 65<59.2141 125> 472 69<137.354 286.872> 520 67<496.266 598.519>
LayerCount: 2
Fore
SplineSet
440 359 m 1xf4
 496 348 541 314 541 243 c 0
 541 161.163 503.608 -9 262 -9 c 0
 105 -9 75 80 66 125 c 1
 131 153 l 1
 154 71 179 50 278 50 c 0
 433.2 50 472 150 472 226 c 0xf8
 472 287 432 327 309 327 c 2
 249 327 l 1
 261 387 l 1
 311 387 l 2
 477.526 387 520 468.73 520 549 c 0
 520 592 497 620 404 620 c 0
 336 620 285 587 233 536 c 1
 190 575 l 1
 242 624 321 679 421 679 c 0
 506 679 587 654 587 563 c 0
 587 533.19 577.238 394.107 440 359 c 1xf4
EndSplineSet
EndChar

StartChar: four
Encoding: 52 52 21
Width: 522
VWidth: 1473
Flags: W
HStem: 0 21G<327 397.247> 146 60<130 358 436 527 44 539 130 130>
LayerCount: 2
Fore
SplineSet
130 206 m 1
 370 206 l 1
 455 604 l 1
 449 604 l 1
 130 206 l 1
56 203 m 1
 451 673 l 1
 536 673 l 1
 436 206 l 1
 539 206 l 1
 527 146 l 1
 424 146 l 1
 393 0 l 1
 327 0 l 1
 358 146 l 1
 44 146 l 1
 56 203 l 1
EndSplineSet
EndChar

StartChar: five
Encoding: 53 53 22
Width: 568
VWidth: 1473
Flags: W
HStem: -9 59<206.049 393.504> 380 60<285.194 472.536> 614 59<306 597>
VStem: 504 66<175.536 350.191>
LayerCount: 2
Fore
SplineSet
382 380 m 0
 342 380 248 364 202 298 c 1
 153 305 l 1
 264 673 l 1
 610 673 l 1
 597 614 l 1
 306 614 l 1
 240 390 l 1
 265.122 410.098 306.4 440 406 440 c 0
 510 440 570 388 570 287 c 0
 570 190 512 -9 280 -9 c 0
 188 -9 113 38 90 116 c 1
 147 149 l 1
 154 127 177 50 299 50 c 0
 488.054 50 504 238 504 289 c 0
 504 344 473 380 382 380 c 0
EndSplineSet
EndChar

StartChar: six
Encoding: 54 54 23
Width: 590
VWidth: 1473
Flags: W
HStem: -9 61<224.351 412.97> 359 59<309.258 477.824> 620 59<339.724 519.84>
VStem: 115 61<98.3618 236.973> 520 65<155.25 317.681>
LayerCount: 2
Fore
SplineSet
308 -9 m 0
 205 -9 115 28 115 176 c 0
 115 274 157 480 242 584 c 0
 291 643 357 679 457 679 c 0
 499 679 578 667 625 623 c 1
 573 572 l 1
 556 590 521 620 443 620 c 0
 284 620 243 516 200 330 c 1
 263 385 346 418 410 418 c 256
 550 418 585 325 585 255 c 0
 585 89 440 -9 308 -9 c 0
520 249 m 0
 520 293 503 359 387 359 c 0
 289 359 190 265 184 239 c 0
 179 215 176 193 176 174 c 0
 176 83 232 52 323 52 c 0
 501 52 520 204 520 249 c 0
EndSplineSet
EndChar

StartChar: seven
Encoding: 55 55 24
Width: 493
VWidth: 1473
Flags: W
HStem: 0 21G<106 194.344> 614 59<196 522>
LayerCount: 2
Fore
SplineSet
196 673 m 1
 610 673 l 1
 600 628 l 1
 181 0 l 1
 106 0 l 1
 522 614 l 1
 183 614 l 1
 196 673 l 1
EndSplineSet
EndChar

StartChar: eight
Encoding: 56 56 25
Width: 577
VWidth: 1473
Flags: W
HStem: -9 59<197.779 405.989> 622 59<327.246 506.393>
VStem: 84 68<91.0373 215.958> 183 65<440.983 553.483> 497 67<126.327 252.502> 544 66<471.146 587.524>
LayerCount: 2
Fore
SplineSet
281 357 m 1xf8
 216 382 183 431 183 480 c 0
 183 520 216 681 434 681 c 0
 529 681 610 645 610 551 c 0xf4
 610 444 524 383 445 357 c 1
 480 340 564 297 564 206 c 0
 564 120 496 -9 286 -9 c 0
 183 -9 84 24 84 133 c 0
 84 267 217 331 281 357 c 1xf8
299 50 m 256
 413 50 497 108 497 194 c 0xf8
 497 225 494 269 358 329 c 1
 203 271 152 221 152 146 c 0
 152 76 225 50 299 50 c 256
420 622 m 256
 303 622 248 545 248 494 c 0
 248 431 325 395 370 382 c 1
 431 398 544 443 544 534 c 0xf4
 544 569 519 622 420 622 c 256
EndSplineSet
EndChar

StartChar: nine
Encoding: 57 57 26
Width: 590
VWidth: 1473
Flags: W
HStem: -7 57<212.547 389.511> 252 60<255.076 421.596> 620 61<319.885 506.434>
VStem: 147 65<352.513 515.413> 556 61<434.965 573.295>
LayerCount: 2
Fore
SplineSet
424 681 m 0
 527 681 617 644 617 495 c 0
 617 397 575 192 490 88 c 0
 465 58 403 -7 273 -7 c 0
 232 -7 155 5 106 47 c 1
 159 100 l 1
 189 66 229 50 287 50 c 0
 443 50 494 155 530 342 c 1
 487 302 406 252 323 252 c 256
 219 252 147 308 147 417 c 0
 147 582 293 681 424 681 c 0
410 620 m 0
 233 620 212 464 212 420 c 0
 212 377 229 312 345 312 c 0
 444 312 545 408 548 433 c 0
 553 458 556 480 556 499 c 0
 556 588 500 620 410 620 c 0
EndSplineSet
EndChar

StartChar: colon
Encoding: 58 58 27
Width: 331
VWidth: 1473
Flags: W
HStem: 0 108<136 218> 364 107<214 295>
VStem: 113 205<0 471 282.586 371.264>
LayerCount: 2
Fore
SplineSet
113 0 m 1
 136 108 l 1
 240 108 l 1
 218 0 l 1
 113 0 l 1
190 364 m 1
 214 471 l 1
 318 471 l 1
 295 364 l 1
 190 364 l 1
EndSplineSet
EndChar

StartChar: semicolon
Encoding: 59 59 28
Width: 331
VWidth: 1473
Flags: W
HStem: 364 107<214 295>
VStem: 57 261<-180 471 213.003 301.682>
LayerCount: 2
Fore
SplineSet
240 108 m 1
 218 0 l 1
 103 -180 l 1
 57 -180 l 1
 165 0 l 1
 113 0 l 1
 136 108 l 1
 240 108 l 1
190 364 m 1
 214 471 l 1
 318 471 l 1
 295 364 l 1
 190 364 l 1
EndSplineSet
EndChar

StartChar: less
Encoding: 60 60 29
Width: 715
VWidth: 1473
Flags: W
HStem: -7 21G<626.493 670.348>
LayerCount: 2
Fore
SplineSet
666 -7 m 1
 105 277 l 1
 119 343 l 1
 801 628 l 1
 787 558 l 1
 193 311 l 1
 681 62 l 1
 666 -7 l 1
EndSplineSet
EndChar

StartChar: equal
Encoding: 61 61 30
Width: 577
VWidth: 1473
Flags: W
HStem: 203 64<108 569> 412 64<152 613>
LayerCount: 2
Fore
SplineSet
613 412 m 1
 138 412 l 1
 152 476 l 1
 626 476 l 1
 613 412 l 1
569 203 m 1
 94 203 l 1
 108 267 l 1
 582 267 l 1
 569 203 l 1
EndSplineSet
EndChar

StartChar: greater
Encoding: 62 62 31
Width: 715
VWidth: 1473
Flags: W
HStem: -7 21G<48.3478 92.0282>
LayerCount: 2
Fore
SplineSet
59 62 m 1
 653 311 l 1
 165 558 l 1
 180 628 l 1
 741 343 l 1
 726 277 l 1
 44 -7 l 1
 59 62 l 1
EndSplineSet
EndChar

StartChar: question
Encoding: 63 63 32
Width: 486
VWidth: 1473
Flags: W
HStem: 0 108<190 271> 742 65<327.062 478.236>
VStem: 517 69<574.79 705.68>
LayerCount: 2
Fore
SplineSet
404 742 m 0
 332 742 264 685 225 623 c 1
 172 653 l 1
 217 731 303 807 418 807 c 0
 523 807 586 740 586 658 c 0
 586 615 568 555 528 512 c 0
 422 398 332 367 309 261 c 2
 298 203 l 1
 234 203 l 1
 249 275 l 2
 286 435 517 508 517 646 c 0
 517 700 476 742 404 742 c 0
168 0 m 1
 190 108 l 1
 293 108 l 1
 271 0 l 1
 168 0 l 1
EndSplineSet
EndChar

StartChar: at
Encoding: 64 64 33
Width: 852
VWidth: 1473
Flags: W
HStem: -10 45<343.554 534.269> 137 52<351.757 451.343 578.06 658.821> 532 51<495.411 607.339> 689 45<473.106 697.673>
VStem: 141 52<186.516 407.989> 269 66<205.406 343.959> 824 53<383.07 569.855>
LayerCount: 2
Fore
SplineSet
335 261 m 0
 335 218 360 189 404 189 c 0
 514 189 627 386 627 454 c 0
 627 492 603 532 566 532 c 0
 448 532 335 353 335 261 c 0
582 583 m 0
 636 583 662 551 670 498 c 1
 712 564 l 1
 766 564 l 1
 590 238 l 2
 581 223 578 212 578 206 c 0
 578 193 586 186 601 186 c 0
 690 186 824 340 824 484 c 0
 824 582 750 689 589 689 c 0
 382 689 193 492 193 291 c 0
 193 150 295 35 452 35 c 0
 477 35 628 39 748 174 c 1
 800 174 l 1
 723 71 585 -10 442 -10 c 0
 247 -10 141 130 141 286 c 0
 141 522 370 734 597 734 c 0
 759 734 877 638 877 493 c 0
 877 307 699 137 581 137 c 0
 550 137 526 156 526 193 c 0
 526 197 526 203 527 208 c 1
 526 208 l 1
 501 187 437 137 380 137 c 0
 308 137 269 186 269 250 c 0
 269 370 406 583 582 583 c 0
EndSplineSet
EndChar

StartChar: A
Encoding: 65 65 34
Width: 682
VWidth: 1473
Flags: W
HStem: 0 21G<29 120.346 569.923 653> 208 65<262 536> 695 20G<443.084 535.385>
LayerCount: 2
Fore
SplineSet
536 273 m 1
 480 656 l 1
 262 273 l 1
 536 273 l 1
455 715 m 1
 532 715 l 1
 653 0 l 1
 573 0 l 1
 541 208 l 1
 227 208 l 1
 109 0 l 1
 29 0 l 1
 455 715 l 1
EndSplineSet
EndChar

StartChar: B
Encoding: 66 66 35
Width: 629
VWidth: 1473
Flags: W
HStem: 0 62<175 458.348> 367 59<253 512.992> 650 66<300 566.7>
VStem: 563 73<198.423 325.378> 590 76<525.619 628.039>
LayerCount: 2
Fore
SplineSet
666 591 m 0xe8
 666 517 619 424 542 399 c 1
 602 386 636 323 636 258 c 0xf0
 636 213 609 0 340 0 c 2
 88 0 l 1
 240 716 l 1
 495 716 l 2
 633 716 666 651 666 591 c 0xe8
405 426 m 2
 552 426 572 479 587 550 c 0
 589 560 590 569 590 578 c 0xe8
 590 635 542 650 481 650 c 2
 300 650 l 1
 253 426 l 1
 405 426 l 2
558 221 m 0
 561 236 563 250 563 263 c 0xf0
 563 345 493 367 389 367 c 2
 240 367 l 1
 175 62 l 1
 339 62 l 2
 464 62 531 96 558 221 c 0
EndSplineSet
EndChar

StartChar: C
Encoding: 67 67 36
Width: 558
VWidth: 1473
Flags: W
HStem: -10 65<233.53 452.525> 659 64<355.316 569.465>
VStem: 111 70<105.657 292.43>
LayerCount: 2
Fore
SplineSet
327 -10 m 0
 201 -10 111 28 111 181 c 0
 111 262 148 522 252 637 c 0
 285 674 347 723 483 723 c 0
 534 723 616 709 669 661 c 1
 611 605 l 1
 590 628 554 659 468 659 c 0
 298 659 248 563 205 357 c 256
 184 261 181 210 181 194 c 0
 181 91 229 55 339 55 c 0
 439 55 489 96 505 108 c 1
 539 52 l 1
 469 6 380 -10 327 -10 c 0
EndSplineSet
EndChar

StartChar: D
Encoding: 68 68 37
Width: 687
VWidth: 1473
Flags: W
HStem: 0 62<174 467.858> 654 62<301 586.453>
VStem: 646 75<344.417 597.269>
LayerCount: 2
Fore
SplineSet
646 500 m 0
 646 611 596 654 479 654 c 2
 301 654 l 1
 174 62 l 1
 352 62 l 2
 528 62 587 163 626 348 c 0
 629 363 646 439 646 500 c 0
492 716 m 2
 645 716 721 649 721 501 c 0
 721 413 692 201 582 87 c 0
 526 29 445 0 340 0 c 2
 88 0 l 1
 240 716 l 1
 492 716 l 2
EndSplineSet
EndChar

StartChar: E
Encoding: 69 69 38
Width: 539
VWidth: 1473
Flags: W
HStem: 0 62<174 505> 351 61<249 539> 654 62<301 648>
LayerCount: 2
Fore
SplineSet
174 62 m 1
 517 62 l 1
 505 0 l 1
 88 0 l 1
 240 716 l 1
 661 716 l 1
 648 654 l 1
 301 654 l 1
 249 412 l 1
 552 412 l 1
 539 351 l 1
 236 351 l 1
 174 62 l 1
EndSplineSet
EndChar

StartChar: F
Encoding: 70 70 39
Width: 539
VWidth: 1473
Flags: W
HStem: 0 21G<88 166.217> 351 61<249 539> 654 62<301 648>
LayerCount: 2
Fore
SplineSet
162 0 m 1
 88 0 l 1
 240 716 l 1
 661 716 l 1
 648 654 l 1
 301 654 l 1
 249 412 l 1
 552 412 l 1
 539 351 l 1
 236 351 l 1
 162 0 l 1
EndSplineSet
EndChar

StartChar: G
Encoding: 71 71 40
Width: 640
VWidth: 1473
Flags: W
HStem: -10 65<246.956 465.822> 318 64<459.519 564> 659 64<369.497 584.59>
VStem: 126 70<105.958 233.246>
LayerCount: 2
Fore
SplineSet
196 194 m 0
 196 91 244 55 354 55 c 0
 454 55 507 98 520 108 c 1
 564 318 l 1
 504 318 l 2
 485 318 470 317 459 315 c 2
 433 310 l 2
 420 308 418 311 415 321 c 0
 413 328 412 335 412 343 c 0
 412 350 413 371 423 382 c 1
 648 382 l 1
 583 80 l 1
 528 32 444 -10 342 -10 c 0
 197 -10 126 43 126 181 c 0
 126 224 150 511 266 637 c 0
 326 702 405 723 498 723 c 0
 549 723 631 709 684 661 c 1
 626 605 l 1
 592 642 549 659 483 659 c 0
 310 659 262 558 220 357 c 256
 199 261 196 210 196 194 c 0
EndSplineSet
EndChar

StartChar: H
Encoding: 72 72 41
Width: 671
VWidth: 1473
Flags: W
HStem: 0 21G<88 166.217 510 587.246> 351 61<249 583> 696 20G<235.754 314 656.789 735>
LayerCount: 2
Fore
SplineSet
597 412 m 1
 661 716 l 1
 735 716 l 1
 583 0 l 1
 510 0 l 1
 583 351 l 1
 236 351 l 1
 162 0 l 1
 88 0 l 1
 240 716 l 1
 314 716 l 1
 249 412 l 1
 597 412 l 1
EndSplineSet
EndChar

StartChar: I
Encoding: 73 73 42
Width: 406
VWidth: 1473
Flags: W
HStem: 0 62<41 177 249 373> 654 62<186 303 376 516>
LayerCount: 2
Fore
SplineSet
249 62 m 1
 385 62 l 1
 373 0 l 1
 29 0 l 1
 41 62 l 1
 177 62 l 1
 303 654 l 1
 172 654 l 1
 186 716 l 1
 529 716 l 1
 516 654 l 1
 376 654 l 1
 249 62 l 1
EndSplineSet
EndChar

StartChar: J
Encoding: 74 74 43
Width: 487
VWidth: 1473
Flags: W
HStem: -10 65<118.186 291.337> 696 20G<472.714 551>
LayerCount: 2
Fore
SplineSet
82 108 m 1
 116 70 150 55 211 55 c 0
 338 55 356 148 399 352 c 2
 477 716 l 1
 551 716 l 1
 473 352 l 2
 418 99 379 -10 196 -10 c 0
 124 -10 66 15 25 52 c 1
 82 108 l 1
EndSplineSet
EndChar

StartChar: K
Encoding: 75 75 44
Width: 643
VWidth: 1473
Flags: W
HStem: 0 21G<88 166.203 494.116 585> 696 20G<235.754 314 622.736 734>
LayerCount: 2
Fore
SplineSet
88 0 m 1
 240 716 l 1
 314 716 l 1
 243 383 l 1
 647 716 l 1
 734 716 l 1
 364 410 l 1
 585 0 l 1
 505 0 l 1
 308 362 l 1
 224 295 l 1
 162 0 l 1
 88 0 l 1
EndSplineSet
EndChar

StartChar: L
Encoding: 76 76 45
Width: 524
VWidth: 1473
Flags: W
HStem: 0 62<174 510 88 522 174 174> 696 20G<235.754 314>
LayerCount: 2
Fore
SplineSet
174 62 m 1
 522 62 l 1
 510 0 l 1
 88 0 l 1
 240 716 l 1
 314 716 l 1
 174 62 l 1
EndSplineSet
EndChar

StartChar: M
Encoding: 77 77 46
Width: 827
VWidth: 1473
Flags: W
HStem: 0 21G<88 166.251 374.676 461.795 666 744.218> 696 20G<235.754 364.087 758.408 891>
LayerCount: 2
Fore
SplineSet
769 716 m 1
 891 716 l 1
 740 0 l 1
 666 0 l 1
 804 654 l 1
 451 0 l 1
 377 0 l 1
 301 654 l 1
 162 0 l 1
 88 0 l 1
 240 716 l 1
 362 716 l 1
 429 74 l 1
 769 716 l 1
EndSplineSet
EndChar

StartChar: N
Encoding: 78 78 47
Width: 701
VWidth: 1473
Flags: W
HStem: 0 21G<88 166.251 531.722 617.246> 696 20G<235.754 369.033 686.746 765>
LayerCount: 2
Fore
SplineSet
88 0 m 1
 240 716 l 1
 362 716 l 1
 567 133 l 1
 691 716 l 1
 765 716 l 1
 613 0 l 1
 539 0 l 1
 301 654 l 1
 162 0 l 1
 88 0 l 1
EndSplineSet
EndChar

StartChar: O
Encoding: 79 79 48
Width: 695
VWidth: 1473
Flags: W
HStem: -9 69<253.604 476.102> 654 66<367.532 592.427>
VStem: 117 74<118.215 354.725> 654 75<399.451 596.589>
LayerCount: 2
Fore
SplineSet
191 208 m 0
 191 90 260 60 359 60 c 0
 534 60 593 159 633 349 c 0
 650 425 654 473 654 504 c 0
 654 613 599 654 486 654 c 0
 318 654 257 570 209 349 c 0
 206 335 191 264 191 208 c 0
499 720 m 0
 649 720 729 654 729 506 c 0
 729 412 698 204 588 84 c 0
 530 22 450 -9 345 -9 c 0
 189 -9 117 59 117 212 c 0
 117 292 148 508 256 626 c 0
 314 689 394 720 499 720 c 0
EndSplineSet
EndChar

StartChar: P
Encoding: 80 80 49
Width: 629
VWidth: 1473
Flags: W
HStem: 0 21G<88 166.226> 265 62<231 512.735> 654 62<301 579.306>
VStem: 622 75<480.355 618.399>
LayerCount: 2
Fore
SplineSet
622 553 m 0
 622 614 597 654 464 654 c 2
 301 654 l 1
 231 327 l 1
 380 327 l 2
 519 327 589 368 614 488 c 0
 619 513 622 534 622 553 c 0
477 716 m 2
 651 716 697 656 697 567 c 0
 697 473 662 380 587 324 c 0
 536 284 457 265 352 265 c 2
 218 265 l 1
 162 0 l 1
 88 0 l 1
 240 716 l 1
 477 716 l 2
EndSplineSet
EndChar

StartChar: Q
Encoding: 81 81 50
Width: 754
VWidth: 1473
Flags: W
HStem: -9 69<283.846 435.704> 654 66<396.926 623.548>
VStem: 146 74<120.139 352.695> 683 75<397.698 595.924>
LayerCount: 2
Back
SplineSet
389 60 m 0
 430.333 60 466 65.6667 496 77 c 128
 526 88.3333 551.5 105.833 572.5 129.5 c 128
 593.5 153.167 611.167 183.167 625.5 219.5 c 128
 639.833 255.833 652.333 299 663 349 c 0
 675 404.333 681.667 451.167 683 489.5 c 128
 684.333 527.833 679.667 559.167 669 583.5 c 128
 658.333 607.833 640.333 625.667 615 637 c 128
 589.667 648.333 556.667 654 516 654 c 0
 473.333 654 437.333 648.333 408 637 c 128
 378.667 625.667 353.167 607.833 331.5 583.5 c 128
 309.833 559.167 291.833 527.833 277.5 489.5 c 128
 263.167 451.167 250.333 404.333 239 349 c 0
 227.667 299 221.333 255.833 220 219.5 c 128
 218.667 183.167 223.667 153.167 235 129.5 c 128
 246.333 105.833 264.333 88.3333 289 77 c 128
 313.667 65.6667 347 60 389 60 c 0
374 -9 m 0
 270 -9 202.5 22 171.5 84 c 128
 140.5 146 137.333 234.333 162 349 c 0
 187.333 471.667 228.5 564.167 285.5 626.5 c 128
 342.5 688.833 423.667 720 529 720 c 0
 581 720 623.667 712.167 657 696.5 c 128
 690.333 680.833 715.333 657.5 732 626.5 c 128
 748.667 595.5 757.333 556.667 758 510 c 128
 758.667 463.333 752.667 409.667 740 349 c 0
 715.333 234.333 674.5 146 617.5 84 c 128
 560.5 22 479.333 -9 374 -9 c 0
491 215 m 1
 654 -53 l 1
 575 -77 l 1
 423 193 l 1
 491 215 l 1
EndSplineSet
Fore
SplineSet
758 503 m 0
 758 393 716 159 588 56 c 1
 654 -53 l 1
 575 -77 l 1
 522 17 l 1
 479 -0 430 -9 374 -9 c 0
 191 -9 146 84 146 221 c 0
 146 293 179 510 286 626 c 0
 342 689 424 720 529 720 c 0
 681 720 758 652 758 503 c 0
220 208 m 0
 220 90 291 60 389 60 c 0
 427 60 461 65 490 75 c 1
 423 193 l 1
 491 215 l 1
 554 111 l 1
 661 204 683 465 683 502 c 0
 683 596 648 654 516 654 c 0
 348 654 284 567 239 349 c 0
 236 335 220 265 220 208 c 0
EndSplineSet
EndChar

StartChar: R
Encoding: 82 82 51
Width: 643
VWidth: 1473
Flags: W
HStem: 0 21G<88 166.198 493.617 582> 324 62<243 427 496 529.891> 654 62<301 574.375>
VStem: 621 78<468.095 611.679>
LayerCount: 2
Fore
SplineSet
699 571 m 0
 699 448 621 344 496 329 c 1
 582 0 l 1
 498 0 l 1
 427 324 l 1
 230 324 l 1
 162 0 l 1
 88 0 l 1
 240 716 l 1
 477 716 l 2
 605 716 699 687 699 571 c 0
621 549 m 0
 621 633 549 654 464 654 c 2
 301 654 l 1
 243 386 l 1
 421 386 l 2
 526 386 621 435 621 549 c 0
EndSplineSet
EndChar

StartChar: S
Encoding: 83 83 52
Width: 657
VWidth: 1473
Flags: W
HStem: -9 62<259.712 473.815> 659 60<343.259 546.208>
VStem: 103 74<134.976 212> 191 76<468.749 589.38> 567 78<169.949 270.228> 620 69<517.022 598.342>
LayerCount: 2
Fore
SplineSet
267 519 m 0xf4
 267 371 645 420 645 240 c 0
 645 200 618 -9 357 -9 c 0
 192 -9 116 57 103 212 c 1
 177 233 l 1
 181 106 243 53 371 53 c 0
 559 53 567 201 567 218 c 0xf8
 567 365 191 310 191 504 c 0
 191 582 240 719 468 719 c 0
 599 719 678 651 689 523 c 1
 620 504 l 1
 611 597 562 659 457 659 c 0
 301 659 267 574 267 519 c 0xf4
EndSplineSet
EndChar

StartChar: T
Encoding: 84 84 53
Width: 545
VWidth: 1473
Flags: W
HStem: 0 21G<236 313.251> 654 62<166 374 448 669>
LayerCount: 2
Fore
SplineSet
309 0 m 1
 236 0 l 1
 374 654 l 1
 153 654 l 1
 166 716 l 1
 682 716 l 1
 669 654 l 1
 448 654 l 1
 309 0 l 1
EndSplineSet
EndChar

StartChar: U
Encoding: 85 85 54
Width: 724
VWidth: 1473
Flags: W
HStem: -9 62<278.765 425.769> 696 20G<235.741 314 710.659 788>
VStem: 122 71<92.9199 172.132>
LayerCount: 2
Fore
SplineSet
357 -9 m 256
 258 -9 122 12 122 124 c 0
 122 135 124 170 138 237 c 2
 240 716 l 1
 314 716 l 1
 236 352 l 2
 230 323 224 296 218 272 c 2
 202 206 l 2
 199 194 193 168 193 143 c 0
 193 118 201 83 268 65 c 0
 299 57 333 53 370 53 c 0
 391 53 509 55 561 102 c 0
 574 113 599 133 622 272 c 2
 636 352 l 1
 715 716 l 1
 788 716 l 1
 687 237 l 2
 657 98 626 37 482 4 c 0
 443 -5 398 -9 357 -9 c 256
EndSplineSet
EndChar

StartChar: V
Encoding: 86 86 55
Width: 652
VWidth: 1473
Flags: W
HStem: 0 21G<285.983 376.453> 696 20G<181 263.378 684.146 775>
LayerCount: 2
Fore
SplineSet
695 716 m 1
 775 716 l 1
 365 0 l 1
 289 0 l 1
 181 716 l 1
 261 716 l 1
 339 60 l 1
 695 716 l 1
EndSplineSet
EndChar

StartChar: W
Encoding: 87 87 56
Width: 833
VWidth: 1473
Flags: W
HStem: 0 21G<178 271.034 571.377 664.38> 696 20G<180.916 261 523.827 604.655 869.137 956>
VStem: 178 61<75 176.977> 181 80<614.023 716> 552 52<609.167 642> 572 53<75 112.35>
LayerCount: 2
Fore
SplineSet
604 716 m 1xe8
 625 75 l 1
 877 716 l 1
 956 716 l 1
 656 0 l 1
 572 0 l 1xc4
 552 642 l 1
 262 0 l 1
 178 0 l 1xe8
 181 716 l 1
 261 716 l 1xd0
 239 75 l 1
 533 716 l 1
 604 716 l 1xe8
EndSplineSet
EndChar

StartChar: X
Encoding: 88 88 57
Width: 602
VWidth: 1473
Flags: W
HStem: 0 21G<15 118.993 489.111 588> 696 20G<181 277 612.625 716>
LayerCount: 2
Fore
SplineSet
181 716 m 1
 270 716 l 1
 382 396 l 1
 628 716 l 1
 716 716 l 1
 418 355 l 1
 588 0 l 1
 498 0 l 1
 362 306 l 1
 102 0 l 1
 15 0 l 1
 329 355 l 1
 181 716 l 1
EndSplineSet
EndChar

StartChar: Y
Encoding: 89 89 58
Width: 623
VWidth: 1473
Flags: W
HStem: 0 21G<274 352.214> 696 20G<181 267.596 651.053 745>
LayerCount: 2
Fore
SplineSet
348 0 m 1
 274 0 l 1
 333 280 l 1
 181 716 l 1
 261 716 l 1
 385 340 l 1
 666 716 l 1
 745 716 l 1
 407 280 l 1
 348 0 l 1
EndSplineSet
EndChar

StartChar: Z
Encoding: 90 90 59
Width: 583
VWidth: 1473
Flags: W
HStem: 0 62<159 524> 653 63<211 575>
LayerCount: 2
Fore
SplineSet
575 653 m 1
 197 653 l 1
 211 716 l 1
 669 716 l 1
 654 648 l 1
 159 62 l 1
 536 62 l 1
 524 0 l 1
 62 0 l 1
 74 62 l 1
 575 653 l 1
EndSplineSet
EndChar

StartChar: bracketleft
Encoding: 91 91 60
Width: 397
VWidth: 1473
Flags: W
HStem: -87 44<166 308> 818 44<349 499>
VStem: 85 425<-87 862 -87 -87>
LayerCount: 2
Fore
SplineSet
510 862 m 1
 499 818 l 1
 349 818 l 1
 166 -43 l 1
 317 -43 l 1
 308 -87 l 1
 85 -87 l 1
 287 862 l 1
 510 862 l 1
EndSplineSet
EndChar

StartChar: backslash
Encoding: 92 92 61
Width: 331
VWidth: 1473
Flags: W
HStem: -12 21G<270.698 343>
VStem: 171 172<-12 874 420.297 866.452>
LayerCount: 2
Fore
SplineSet
171 874 m 1
 237 874 l 1
 343 -12 l 1
 273 -12 l 1
 171 874 l 1
EndSplineSet
EndChar

StartChar: bracketright
Encoding: 93 93 62
Width: 397
VWidth: 1473
Flags: W
HStem: -87 44<60 211> 818 44<253 393>
VStem: 52 424<-87 862 -87 -87>
LayerCount: 2
Fore
SplineSet
52 -87 m 1
 60 -43 l 1
 211 -43 l 1
 393 818 l 1
 243 818 l 1
 253 862 l 1
 476 862 l 1
 274 -87 l 1
 52 -87 l 1
EndSplineSet
EndChar

StartChar: asciicircum
Encoding: 94 94 63
Width: 671
VWidth: 1473
Flags: W
HStem: 331 478<536 678 536 536>
LayerCount: 2
Fore
SplineSet
536 809 m 1
 678 331 l 1
 604 331 l 1
 488 728 l 1
 206 331 l 1
 133 331 l 1
 476 809 l 1
 536 809 l 1
EndSplineSet
EndChar

StartChar: underscore
Encoding: 95 95 64
Width: 699
VWidth: 1473
Flags: W
HStem: -175 70<-22 661>
LayerCount: 2
Fore
SplineSet
-37 -175 m 1
 -22 -105 l 1
 676 -105 l 1
 661 -175 l 1
 -37 -175 l 1
EndSplineSet
EndChar

StartChar: grave
Encoding: 96 96 65
Width: 248
VWidth: 1473
Flags: W
HStem: 647 154<240 331 240 240>
LayerCount: 2
Fore
SplineSet
240 801 m 1
 331 647 l 1
 274 647 l 1
 155 801 l 1
 240 801 l 1
EndSplineSet
EndChar

StartChar: a
Encoding: 97 97 66
Width: 559
VWidth: 1473
Flags: W
HStem: -12 55<149.861 272.792> 299 55<271.931 463> 541 53<275.283 461.807>
VStem: 57 64<71.8356 201.817> 411 68<10.0722 64.7432> 496 63<430.294 510.303>
LayerCount: 2
Fore
SplineSet
432 0 m 0
 412 0 411 11 411 26 c 0
 411 44 413 53 417 71 c 1
 301 -10 235 -12 186 -12 c 256
 105 -12 57 42 57 113 c 0
 57 148 71 210 106 252 c 0
 170 326 288 344 477 354 c 1
 492 423 l 2
 494 433 496 442 496 450 c 0
 498 510 456 541 370 541 c 2
 368 541 l 2
 292 541 237 511 178 435 c 1
 130 463 l 1
 196 550 281 594 382 594 c 0
 478 594 559 565 559 466 c 0
 559 450 556 431 552 411 c 2
 488 106 l 2
 479 68 479 48 479 41 c 0
 479 29 480 19 482 12 c 1
 463 4 447 0 432 0 c 0
463 299 m 1
 290 297 121 265 121 130 c 0
 121 82 155 43 209 43 c 0
 253 43 338 64 427 138 c 1
 463 299 l 1
EndSplineSet
Substitution2: "Single Substitution lookup 27 subtable" uni0E38
Substitution2: "Single Substitution lookup 27 subtable" uni0E38
EndChar

StartChar: b
Encoding: 98 98 67
Width: 611
VWidth: 1473
Flags: W
HStem: -12 55<275.991 450.432> 541 53<384.808 543.89> 789 20G<269.756 337>
VStem: 580 66<318.077 503.776>
LayerCount: 2
Fore
SplineSet
357 -12 m 0
 264 -12 219 23 180 75 c 1
 171 49 l 2
 166 31 156 -0 133 0 c 0
 117 0 101 4 85 12 c 1
 106 53 l 2
 115 70 122 92 128 121 c 2
 274 809 l 1
 337 809 l 1
 277 522 l 1
 389 579 430 594 495 594 c 0
 586 594 646 548 646 415 c 0
 646 355 621 158 528 61 c 0
 481 12 424 -12 357 -12 c 0
580 418 m 0
 580 500 549 541 467 541 c 0
 385 541 271 457 261 449 c 1
 197 149 l 1
 227 90 278 43 364 43 c 0
 423 43 466 64 496 107 c 0
 564 208 580 379 580 418 c 0
EndSplineSet
Substitution2: "Single Substitution lookup 27 subtable" uni0E39
Substitution2: "Single Substitution lookup 27 subtable" uni0E39
EndChar

StartChar: c
Encoding: 99 99 68
Width: 559
VWidth: 1473
Flags: W
HStem: -12 55<198.931 380.969> 541 53<293.519 475.529>
VStem: 86 68<87.9223 267.091>
LayerCount: 2
Fore
SplineSet
280 -12 m 0
 180 -12 86 23 86 161 c 0
 86 228 112 416 204 517 c 0
 252 568 320 594 410 594 c 0
 516 594 559 545 586 468 c 1
 524 448 l 1
 494 534 441 541 399 541 c 0
 261 541 209 471 169 292 c 0
 160 247 154 202 154 172 c 0
 154 82 197 43 292 43 c 0
 333 43 368 53 396 74 c 0
 425 95 447 116 464 138 c 1
 510 109 l 1
 470 55 393 -12 280 -12 c 0
EndSplineSet
Substitution2: "Single Substitution lookup 27 subtable" uni0E3A
Substitution2: "Single Substitution lookup 27 subtable" uni0E3A
EndChar

StartChar: d
Encoding: 100 100 69
Width: 611
VWidth: 1473
Flags: W
HStem: -12 55<190.541 332.419> 541 53<333.061 463.73> 789 20G<611.751 679>
VStem: 87 65<82.7086 264.682> 456 68<12 66.7545>
LayerCount: 2
Fore
SplineSet
152 166 m 0
 152 75 197 43 265 43 c 0
 304 43 384 51 476 149 c 1
 542 464 l 1
 536 476 491 541 404 541 c 0
 261 541 196 420 166 283 c 0
 157 238 152 195 152 166 c 0
396 594 m 0
 439 594 479 591 558 536 c 1
 616 809 l 1
 679 809 l 1
 533 121 l 2
 526 89 524 60 524 27 c 2
 524 12 l 1
 505 4 489 0 476 0 c 0
 460 0 456 9 456 27 c 0
 456 32 457 56 461 75 c 1
 391 15 334 -12 249 -12 c 0
 152 -12 87 37 87 164 c 0
 87 271 128 496 298 573 c 0
 330 587 362 594 396 594 c 0
EndSplineSet
EndChar

StartChar: e
Encoding: 101 101 70
Width: 559
VWidth: 1473
Flags: W
HStem: -12 55<221.396 391.17> 289 54<180 517> 541 53<310.97 477.72>
VStem: 91 68<107.55 269.706> 523 64<354.883 495.171>
LayerCount: 2
Fore
SplineSet
412 594 m 0
 533 594 587 522 587 402 c 0
 587 368 582 330 573 289 c 1
 168 289 l 1
 162 260 159 233 159 207 c 0
 159 128 188 43 303 43 c 0
 380 43 430 79 496 159 c 1
 545 131 l 1
 470 39 410 -12 286 -12 c 0
 194 -12 91 27 91 184 c 0
 91 307 152 594 412 594 c 0
523 406 m 0
 523 505 473 541 399 541 c 0
 296 541 208 465 180 343 c 1
 517 343 l 1
 521 366 523 387 523 406 c 0
EndSplineSet
EndChar

StartChar: f
Encoding: 102 102 71
Width: 312
VWidth: 1473
Flags: W
HStem: 0 21G<108 178.234> 529 53<134 220 296 405> 762 59<347.815 465.029>
VStem: 108 386<0 795 0 109>
LayerCount: 2
Fore
SplineSet
473 744 m 1
 441 761 426 762 414 762 c 0
 350 762 328 730 317 673 c 2
 296 582 l 1
 415 582 l 1
 405 529 l 1
 286 529 l 1
 174 0 l 1
 108 0 l 1
 220 529 l 1
 124 529 l 1
 134 582 l 1
 230 582 l 1
 247 664 l 2
 269 762 316 821 420 821 c 0
 463 821 479 817 492 812 c 1
 494 806 494 801 494 795 c 0
 494 774 482 744 473 744 c 1
EndSplineSet
EndChar

StartChar: g
Encoding: 103 103 72
Width: 559
VWidth: 1473
Flags: W
HStem: -206 53<99.2756 402.165> 43 60<149.482 437.667> 189 56<236.088 434.764> 541 53<278.326 484.887>
VStem: 10 70<-133.981 -20.6588> 125 68<272.078 405.622> 459 69<-46.3764 21.6518> 511 67<417.945 501.503>
LayerCount: 2
Fore
SplineSet
671 596 m 0xfe
 671 581 666 562 654 545 c 1
 589 545 575 534 561 523 c 1
 574 500 578 476 578 455 c 0xfd
 578 429 565 290 475 230 c 0
 430 199 375 189 302 189 c 0
 265 189 231 194 203 203 c 1
 153 184 145 162 143 150 c 0
 135 113 170 103 315 103 c 0
 491 103 528 59 528 -8 c 0
 528 -31 521 -83 496 -120 c 0
 449 -192 355 -206 233 -206 c 256
 53 -206 10 -163 10 -100 c 0
 10 -60 27 -24 45 0 c 0
 61 22 91 40 136 55 c 1
 137 57 l 1
 101 64 78 79 78 118 c 0
 78 152 93 212 169 230 c 1
 138 253 125 286 125 332 c 0
 125 392 152 486 216 540 c 0
 257 576 321 594 407 594 c 0
 481 594 521 567 530 560 c 1
 594 611 634 616 660 616 c 0
 669 616 671 606 671 596 c 0xfe
459 -21 m 0xfe
 459 30 419 43 271 43 c 0
 132 43 80 -8 80 -85 c 0
 80 -141 114 -153 233 -153 c 0
 385 -153 437 -140 455 -53 c 0
 458 -41 459 -30 459 -21 c 0xfe
511 455 m 0xfd
 511 524.324 469.21 541 382 541 c 0
 260 541 220 487 200 390 c 0
 195 369 193 351 193 336 c 0
 193 263 237 245 320 245 c 0
 439 245 476 274 502 390 c 0
 508 416 511 438 511 455 c 0xfd
EndSplineSet
EndChar

StartChar: h
Encoding: 104 104 73
Width: 623
VWidth: 1473
Flags: W
HStem: 0 21G<93 163.196 463 534.221> 541 53<405.192 530.929> 789 20G<259.773 330>
VStem: 553 70<420.934 518.692>
LayerCount: 2
Fore
SplineSet
553 453 m 0
 553 515 526 541 460 541 c 0
 430 541 385 533 310 474 c 2
 249 429 l 1
 159 0 l 1
 93 0 l 1
 264 809 l 1
 330 809 l 1
 262 491 l 1
 368 579 418 594 483 594 c 0
 559 594 623 569 623 468 c 0
 623 447 620 424 614 398 c 2
 530 0 l 1
 463 0 l 1
 545 390 l 2
 550 414 553 435 553 453 c 0
EndSplineSet
EndChar

StartChar: i
Encoding: 105 105 74
Width: 248
VWidth: 1473
Flags: W
HStem: 0 21G<91 162.192> 562 20G<209.773 280> 789 20G<257.96 329>
VStem: 91 238<0 809 739.417 826.874>
LayerCount: 2
Fore
SplineSet
158 0 m 1
 91 0 l 1
 214 582 l 1
 280 582 l 1
 158 0 l 1
242 710 m 1
 262 809 l 1
 329 809 l 1
 308 710 l 1
 242 710 l 1
EndSplineSet
EndChar

StartChar: j
Encoding: 106 106 75
Width: 248
VWidth: 1473
Flags: W
HStem: -206 59<-51.4388 52.6076> 562 20G<209.762 280> 789 20G<257.96 329>
VStem: -98 427<-180 809 -35.3041 52.0194>
LayerCount: 2
Fore
SplineSet
-77 -130 m 1
 -56 -141 -42 -147 -19 -147 c 0
 41 -147 60 -134 75 -74 c 2
 214 582 l 1
 280 582 l 1
 143 -65 l 2
 123 -162 78 -206 -23 -206 c 0
 -55 -206 -77 -204 -96 -197 c 1
 -98 -192 -98 -186 -98 -180 c 0
 -98 -160 -86 -130 -77 -130 c 1
242 710 m 1
 262 809 l 1
 329 809 l 1
 308 710 l 1
 242 710 l 1
EndSplineSet
EndChar

StartChar: k
Encoding: 107 107 76
Width: 559
VWidth: 1473
Flags: W
HStem: 0 21G<93 163.211 433.564 535> 562 20G<521 629> 789 20G<259.773 330>
LayerCount: 2
Fore
SplineSet
93 0 m 1
 264 809 l 1
 330 809 l 1
 222 302 l 1
 544 582 l 1
 629 582 l 1
 331 320 l 1
 535 0 l 1
 446 0 l 1
 275 275 l 1
 203 209 l 1
 159 0 l 1
 93 0 l 1
EndSplineSet
EndChar

StartChar: l
Encoding: 108 108 77
Width: 248
VWidth: 1473
Flags: W
HStem: 0 21G<91 162.227> 789 20G<257.773 329>
VStem: 91 238<0 809 1.53064e-18 1.53064e-18>
LayerCount: 2
Fore
SplineSet
262 809 m 1
 329 809 l 1
 158 0 l 1
 91 0 l 1
 262 809 l 1
EndSplineSet
EndChar

StartChar: m
Encoding: 109 109 78
Width: 932
VWidth: 1473
Flags: W
HStem: 0 21G<93 163.196 433 503.196 772 844.184> 541 53<376.474 512.75 742.905 853.187>
VStem: 865 66<425.366 435 442 450.732 450.732 453.418 452.075 524.859>
LayerCount: 2
Fore
SplineSet
530 474 m 0
 530 522 495 541 446 541 c 0
 407 541 316 504 249 429 c 1
 159 0 l 1
 93 0 l 1
 215 582 l 1
 281 582 l 1
 264 494 l 1
 336 557 392 594 477 594 c 0
 544 594 593 549 597 488 c 1
 711 591 769 594 812 594 c 0
 876 594 937 572 937 485 c 0
 937 470 935 453 931 435 c 2
 840 0 l 1
 772 0 l 1
 865 442 l 2
 868 454 869 465 869 474 c 0
 869 519 842 541 787 541 c 0
 747 541 653 500 589 429 c 1
 499 0 l 1
 433 0 l 1
 526 442 l 2
 529 454 530 464 530 474 c 0
EndSplineSet
EndChar

StartChar: n
Encoding: 110 110 79
Width: 623
VWidth: 1473
Flags: W
HStem: 0 21G<93 163.196 463 534.221> 541 53<405.765 530.929>
VStem: 553 70<420.934 518.692>
LayerCount: 2
Fore
SplineSet
553 453 m 0
 553 515 526 541 460 541 c 0
 387 541 326 498 249 429 c 1
 159 0 l 1
 93 0 l 1
 215 582 l 1
 281 582 l 1
 262 492 l 1
 356 590 444 594 483 594 c 0
 559 594 623 569 623 468 c 0
 623 447 620 424 614 398 c 2
 530 0 l 1
 463 0 l 1
 545 390 l 2
 550 414 553 435 553 453 c 0
EndSplineSet
EndChar

StartChar: o
Encoding: 111 111 80
Width: 559
VWidth: 1473
Flags: W
HStem: -12 55<200.831 387.746> 541 53<298.174 482.107>
VStem: 87 67<88.6986 270.449> 528 67<310.232 495.425>
LayerCount: 2
Fore
SplineSet
528 409 m 0
 528 515 468 541 395 541 c 0
 259 541 200 445 169 292 c 0
 162 259 154 215 154 177 c 0
 154 82 197 43 289 43 c 0
 356 43 406 64 440 108 c 0
 511 201 528 364 528 409 c 0
277 -12 m 0
 177 -12 87 23 87 162 c 0
 87 220 109 414 201 513 c 0
 255 571 323 594 405 594 c 0
 508 594 595 559 595 418 c 0
 595 345 571 170 482 69 c 0
 429 10 359 -12 277 -12 c 0
EndSplineSet
EndChar

StartChar: p
Encoding: 112 112 81
Width: 611
VWidth: 1473
Flags: W
HStem: -206 21G<59 126.219> -12 53<268.422 426.361> 539 55<441.7 547.853>
VStem: 212 70<521.732 568.385 559.546 567> 582 65<319.985 506.747>
LayerCount: 2
Fore
SplineSet
582 421 m 0
 582 492 562 539 469 539 c 2
 468 539 l 2
 427 539 389 526 352 502 c 0
 316 476 284 449 255 418 c 1
 187 103 l 1
 256 41 309 41 330 41 c 0
 472 41 534 140 567 299 c 0
 577 347 582 387 582 421 c 0
211 567 m 1
 225 573 234 582 265 582 c 0
 279 582 282 571 282 559 c 0
 282 550 280 538 277 523 c 2
 270 492 l 1
 271 492 l 1
 358 590 453 594 485 594 c 0
 614 594 647 516 647 421 c 0
 647 309 599 -12 337 -12 c 0
 271 -12 233 -4 172 31 c 1
 122 -206 l 1
 59 -206 l 1
 184 386 l 2
 186 395 189 408 192 425 c 2
 202 478 l 2
 208 503 212 533 212 552 c 0
 212 558 212 563 211 567 c 1
EndSplineSet
EndChar

StartChar: q
Encoding: 113 113 82
Width: 611
VWidth: 1473
Flags: W
HStem: -206 21G<401 468.223> -12 53<207.197 368.179> 539 55<282.52 458.608>
VStem: 89 68<90.9063 324.538>
LayerCount: 2
Fore
SplineSet
157 181 m 0
 157 80 203 41 296 41 c 0
 330 41 380 43 466 103 c 1
 536 433 l 1
 515 476 470 539 370 539 c 0
 311 539 266 518 238 475 c 0
 188 402 157 267 157 181 c 0
560 514 m 1
 568 554 580 582 598 582 c 0
 627 582 634 574 647 567 c 1
 627 528 611 473 600 431 c 2
 589 386 l 1
 464 -206 l 1
 401 -206 l 1
 451 31 l 1
 375 -5 350 -12 268 -12 c 0
 125 -12 89 83 89 179 c 0
 89 264 126 437 206 521 c 0
 252 569 308 594 376 594 c 0
 457.733 594 518.802 567.257 560 514 c 1
EndSplineSet
EndChar

StartChar: r
Encoding: 114 114 83
Width: 388
VWidth: 1473
Flags: W
HStem: 0 21G<87 159.195> 529 65<360.473 462.437>
VStem: 87 406<0 576 -99.0555 0>
LayerCount: 2
Fore
SplineSet
443 594 m 0
 499 594 493 583 493 576 c 0
 493 554 469 516 460 516 c 1
 447 525 431 529 412 529 c 0
 350 529 249 447 224 329 c 2
 155 0 l 1
 87 0 l 1
 209 582 l 1
 277 582 l 1
 255 471 l 1
 256 471 l 1
 291 527 355 594 443 594 c 0
EndSplineSet
EndChar

StartChar: s
Encoding: 115 115 84
Width: 496
VWidth: 1473
Flags: W
HStem: -12 55<184.156 348.18> 541 53<262.316 401.28>
VStem: 132 71<379.308 483.49> 423 69<113.246 223.87>
LayerCount: 2
Fore
SplineSet
203 420 m 0
 203 310 492 359 492 194 c 0
 492 70 375 -12 250 -12 c 0
 194 -12 97 2 50 106 c 1
 71 127 105 154 119 133 c 0
 138 99 178 43 267 43 c 0
 359 43 423 113 423 178 c 0
 423 304 132 248 132 400 c 0
 132 516 245 594 355 594 c 0
 442 594 508 552 533 489 c 1
 522 477 l 1
 477 447 475 461 470 471 c 0
 430 536 378 541 342 541 c 256
 231 541 203 454 203 420 c 0
EndSplineSet
EndChar

StartChar: t
Encoding: 116 116 85
Width: 310
VWidth: 1473
Flags: W
HStem: -12 61<187.205 262.075> 529 53<134 211 287 407>
VStem: 114 70<52.7996 86.4324 78.9109 93.9539 93.9539 105 105 107.484>
LayerCount: 2
Fore
SplineSet
222 -12 m 0
 134 -12 114 15 114 57 c 0
 114 67 115 78 118 91 c 2
 211 529 l 1
 124 529 l 1
 134 582 l 1
 221 582 l 1
 262 772 l 1
 329 772 l 1
 287 582 l 1
 417 582 l 1
 407 529 l 1
 277 529 l 1
 187 105 l 2
 185 97 184 89 184 83 c 0
 184 63 194 49 233 49 c 0
 257 49 294 58 312 66 c 1
 317 63 318 2 298 -1 c 0
 261 -10 237 -12 222 -12 c 0
EndSplineSet
EndChar

StartChar: u
Encoding: 117 117 86
Width: 623
VWidth: 1473
Flags: W
HStem: -12 55<213.188 374.348> 562 20G<210.779 281 580.785 653>
VStem: 122 69<64.0989 161.265> 474 73<12 30.3846 16.7653 64.1702>
LayerCount: 2
Fore
SplineSet
501 0 m 0
 481 0 474 8 474 25 c 0
 474 40 480 63 485 93 c 1
 435 23 346 -12 262 -12 c 0
 184 -12 122 13 122 113 c 0
 122 134 125 158 131 184 c 2
 215 582 l 1
 281 582 l 1
 199 192 l 2
 194 169 191 148 191 130 c 0
 191 77 210 43 286 43 c 0
 377 43 452 104 495 155 c 1
 585 582 l 1
 653 582 l 1
 555 121 l 2
 548 88 545 64 545 49 c 0
 545 34 546 22 547 12 c 1
 534 6 519 0 501 0 c 0
EndSplineSet
EndChar

StartChar: v
Encoding: 118 118 87
Width: 496
VWidth: 1473
Flags: W
HStem: 0 21G<212.32 292.1> 562 20G<137 211.422 521.061 604>
VStem: 137 467<582 582 307.026 573.345>
LayerCount: 2
Fore
SplineSet
137 582 m 1
 209 582 l 1
 267 103 l 1
 270 103 l 1
 532 582 l 1
 604 582 l 1
 281 0 l 1
 215 0 l 1
 137 582 l 1
EndSplineSet
EndChar

StartChar: w
Encoding: 119 119 88
Width: 746
VWidth: 1473
Flags: W
HStem: 0 21G<169.625 248.807 500.672 579> 562 20G<131 198.328 451.107 530.242 781.15 860>
LayerCount: 2
Fore
SplineSet
131 582 m 1
 197 582 l 1
 228 115 l 1
 230 115 l 1
 461 582 l 1
 529 582 l 1
 558 115 l 1
 561 115 l 1
 791 582 l 1
 860 582 l 1
 569 0 l 1
 502 0 l 1
 471 467 l 1
 468 467 l 1
 239 0 l 1
 171 0 l 1
 131 582 l 1
EndSplineSet
EndChar

StartChar: x
Encoding: 120 120 89
Width: 496
VWidth: 1473
Flags: W
HStem: 0 21G<12 109.98 398.347 486> 562 20G<156 245.612 487.967 585>
LayerCount: 2
Fore
SplineSet
93 0 m 1
 12 0 l 1
 274 309 l 1
 156 582 l 1
 237 582 l 1
 327 373 l 1
 505 582 l 1
 585 582 l 1
 354 309 l 1
 486 0 l 1
 407 0 l 1
 301 245 l 1
 93 0 l 1
EndSplineSet
EndChar

StartChar: y
Encoding: 121 121 90
Width: 496
VWidth: 1473
Flags: W
HStem: -206 56<7.41873 116.042> 562 20G<137 211.579 521.922 607>
LayerCount: 2
Fore
SplineSet
0 -121 m 1
 21 -142 34 -150 57 -150 c 0
 89 -150 151 -130 217 9 c 1
 137 582 l 1
 209 582 l 1
 270 109 l 1
 271 109 l 1
 533 582 l 1
 607 582 l 1
 256 -43 l 2
 183 -174 125 -206 37 -206 c 0
 9 -206 -6 -202 -24 -194 c 0
 -28 -193 -30 -189 -30 -183 c 0
 -30 -162 -10 -128 0 -121 c 1
EndSplineSet
EndChar

StartChar: z
Encoding: 122 122 91
Width: 496
VWidth: 1473
Flags: W
HStem: 0 53<128 463> 529 53<177 476>
LayerCount: 2
Fore
SplineSet
177 582 m 1
 576 582 l 1
 569 541 l 1
 128 53 l 1
 473 53 l 1
 463 0 l 1
 28 0 l 1
 37 43 l 1
 476 529 l 1
 166 529 l 1
 177 582 l 1
EndSplineSet
EndChar

StartChar: braceleft
Encoding: 123 123 92
Width: 372
VWidth: 1473
Flags: W
HStem: -93 41<183.151 194 194 264> 345 38<130 166.188> 779 42<351 449>
VStem: 118 64<-50.328 18.4419> 169 65<236.044 243 253 256.03 256.03 266.097 261.063 327.306>
LayerCount: 2
Fore
SplineSet
173 290 m 0xe8
 173 323 163 345 121 345 c 1
 130 383 l 1
 131 383 l 2
 182 383 206 421 217 474 c 2
 262 692 l 2
 276 760 315 821 389 821 c 2
 458 821 l 1
 449 779 l 1
 393 779 l 2
 356 779 343 756 331 706 c 2
 284 485 l 2
 275 437 256 385 180 365 c 1
 180 362 l 1
 238 350 239 305 239 288 c 0
 239 275 238 260 234 243 c 2xe8
 187 22 l 2
 183 5 182 -9 182 -19 c 0
 182 -38 189 -52 217 -52 c 2
 273 -52 l 1
 264 -93 l 1
 194 -93 l 2
 133 -93 118 -51 118 -13 c 0xf0
 118 1 120 17 124 35 c 2
 169 253 l 2
 172 267 173 279 173 290 c 0xe8
EndSplineSet
EndChar

StartChar: bar
Encoding: 124 124 93
Width: 248
VWidth: 1473
Flags: W
HStem: -12 21G<91 156.25>
VStem: 91 238<-12 821 -12 -12>
LayerCount: 2
Fore
SplineSet
268 821 m 1
 329 821 l 1
 152 -12 l 1
 91 -12 l 1
 268 821 l 1
EndSplineSet
EndChar

StartChar: braceright
Encoding: 125 125 94
Width: 372
VWidth: 1473
Flags: W
HStem: -93 41<77 174.861> 345 38<357.888 395> 779 42<262 341.906>
VStem: 285 67<401.911 465.28 460.601 469.96 469.96 474 485 490.956> 343 64<708.93 771.337>
LayerCount: 2
Fore
SplineSet
352 435 m 0xf0
 352 400 366 383 404 383 c 1
 395 345 l 1
 394 345 l 2
 344 345 321 309 309 253 c 2
 264 35 l 2
 237 -84 164 -93 137 -93 c 2
 68 -93 l 1
 77 -52 l 1
 133 -52 l 2
 169 -52 182 -29 193 22 c 2
 240 243 l 2
 254 308 284 350 346 362 c 1
 346 365 l 1
 284 383 285 429 285 442 c 0xf0
 285 455 287 469 290 485 c 2
 337 706 l 2
 341 724 343 738 343 748 c 0
 343 762 339 779 309 779 c 2
 253 779 l 1
 262 821 l 1
 331 821 l 2
 392 821 407 779 407 739 c 0xe8
 407 725 406 709 402 692 c 2
 357 474 l 2
 354 460 352 447 352 435 c 0xf0
EndSplineSet
EndChar

StartChar: asciitilde
Encoding: 126 126 95
Width: 671
VWidth: 1473
Flags: W
HStem: 222 64<444.789 589.65> 296 63<205.553 347.551>
LayerCount: 2
Fore
SplineSet
526 286 m 0
 561 286 590 299 650 364 c 1
 681 317 l 1
 663 293 640 271 614 252 c 0
 587 232 553 222 512 222 c 0
 419 222 342 296 267 296 c 0
 229 296 202 278 144 218 c 1
 113 267 l 1
 130 290 152 311 180 330 c 0
 208 349 243 359 284 359 c 0
 375 359 452 286 526 286 c 0
EndSplineSet
EndChar

StartChar: uni0E33.alt1
Encoding: 65537 -1 96
Width: 493
VWidth: 1473
Flags: W
HStem: 0 21G<334 397> 547 51<254.068 402.157> 688 49<-214.02 -132.709> 837 48<-202.525 -120.885>
VStem: -269 50<751.296 821.16> -117 51<753.175 832.029> 434 61<353.427 514.959>
LayerCount: 2
Fore
SplineSet
-66 809 m 0
 -66 748 -121 688 -189 688 c 256
 -240 688 -269 724 -269 767 c 0
 -269 827 -212 885 -147 885 c 256
 -97 885 -66 850 -66 809 c 0
-178 737 m 256
 -146 737 -117 766 -117 798 c 0
 -117 820 -134 837 -158 837 c 256
 -187 837 -219 810 -219 777 c 0
 -219 763 -211 737 -178 737 c 256
405 21 m 0
 405 4 402 0 392 0 c 2
 334 0 l 1
 357 98 352 82 369 164 c 2
 382 225 l 2
 400 310 434 402 434 454 c 0
 434 528 372 547 340 547 c 0
 302 547 244 539 150 449 c 1
 137 432 108 468 102 480 c 1
 148 531 267 598 343 598 c 0
 418 598 495 573 495 472 c 0
 495 397 460 339 421 122 c 2
 410 60 l 2
 407 41 405 28 405 21 c 0
EndSplineSet
EndChar

StartChar: exclamdown
Encoding: 161 161 100
Width: 248
VWidth: 1473
Flags: W
HStem: 482 100<197 274>
VStem: 168 56<283.046 333>
LayerCount: 2
Fore
SplineSet
27 -227 m 1
 168 333 l 1
 224 333 l 1
 124 -227 l 1
 27 -227 l 1
295 582 m 1
 274 482 l 1
 177 482 l 1
 197 582 l 1
 295 582 l 1
EndSplineSet
EndChar

StartChar: cent
Encoding: 162 162 101
Width: 623
VWidth: 1473
Flags: W
HStem: -3 46<252 263.702 263.702 267.326 265.514 390.587> 508 47<309.225 423.183>
VStem: 106 466<169 653 180.702 184.326> 106 63<108.62 268.328>
LayerCount: 2
Fore
SplineSet
436 499 m 1xd0
 410 505 410 508 393 508 c 0
 265 508 205 398 180 273 c 0
 173 239 169 209 169 182 c 0
 169 129 183 90 211 66 c 1
 436 499 l 1xd0
184 15 m 1
 109 62 106 140 106 169 c 0
 106 225 134 555 404 555 c 0
 423 555 442 552 460 547 c 1
 519 653 l 1
 572 653 l 1xe0
 501 526 l 1
 536 501 556 463 560 414 c 1
 502 399 l 1
 497 428 488 452 473 471 c 1
 252 43 l 1
 263 40 276 38 293 38 c 0
 350 38 414 51 468 144 c 1
 513 121 l 1
 490 84 460 53 424 28 c 0
 386 3 340 -10 283 -10 c 0
 262 -10 244 -8 227 -3 c 1
 164 -119 l 1
 110 -119 l 1
 184 15 l 1
EndSplineSet
EndChar

StartChar: sterling
Encoding: 163 163 102
Width: 623
VWidth: 1473
Flags: W
HStem: -10 76<29 96.3213> -10 60<253.664 428.727> 333 47<94 196 267 402> 664 62<357.498 524.562>
VStem: 196 68<312.389 333 380 524.451> 563 68<544 619.846>
LayerCount: 2
Fore
SplineSet
564 165 m 1x7c
 510 31 429 -10 339 -10 c 0x7c
 286 -10 240 1 187 38 c 2
 147 66 l 1xbc
 120 36 70 1 13 -10 c 1x7c
 29 66 l 1xbc
 185 107 192 314 196 333 c 1
 85 333 l 1
 94 380 l 1
 199 380 l 1
 211 492 209 593 302 672 c 0
 346 708 398 726 459 726 c 0
 571 726 631 659 631 551 c 2
 631 544 l 1
 563 523 l 1
 562 567 554 602 538 626 c 0
 524 652 492 664 445 664 c 0
 338 664 274 605 267 380 c 1
 411 380 l 1
 402 333 l 1
 264 333 l 1
 255 280 l 2
 241 210 219 164 184 112 c 1
 215 89 279 50 342 50 c 0
 420 50 456 73 504 177 c 1
 564 165 l 1x7c
EndSplineSet
EndChar

StartChar: currency
Encoding: 164 164 103
Width: 623
VWidth: 1473
Flags: W
HStem: 82 55<250.517 436.494> 585 53<341.167 521.272>
VStem: 102 63<225.119 404.721> 610 63<313.53 495.199>
LayerCount: 2
Fore
SplineSet
261 576 m 1
 306 609 372 638 446 638 c 0
 512 638 566 617 607 576 c 1
 682 638 l 1
 715 595 l 1
 642 535 l 1
 663 501 673 464 673 422 c 0
 673 350 638 250 567 186 c 1
 616 125 l 1
 563 82 l 1
 514 143 l 1
 454 102 392 82 327 82 c 0
 271 82 211 99 168 143 c 1
 91 82 l 1
 60 125 l 1
 133 186 l 1
 109 221 102 257 102 295 c 0
 102 345 120 453 208 535 c 1
 159 595 l 1
 211 638 l 1
 261 576 l 1
165 312 m 0
 165 218 230 137 340 137 c 0
 482 137 610 273 610 407 c 0
 610 504 540 585 435 585 c 0
 302 585 165 454 165 312 c 0
EndSplineSet
EndChar

StartChar: yen
Encoding: 165 165 104
Width: 623
VWidth: 1473
Flags: W
HStem: 0 21G<239 309.28> 243 47<124 290 365 530> 389 47<140 255 473 576> 696 20G<150 227.099 619.662 704>
LayerCount: 2
Fore
SplineSet
576 389 m 1
 439 389 l 1
 368 303 l 1
 365 290 l 1
 539 290 l 1
 530 243 l 1
 357 243 l 1
 305 0 l 1
 239 0 l 1
 290 243 l 1
 115 243 l 1
 124 290 l 1
 299 290 l 1
 302 303 l 1
 271 389 l 1
 131 389 l 1
 140 436 l 1
 255 436 l 1
 150 716 l 1
 220 716 l 1
 346 361 l 1
 636 716 l 1
 704 716 l 1
 473 436 l 1
 585 436 l 1
 576 389 l 1
EndSplineSet
EndChar

StartChar: brokenbar
Encoding: 166 166 105
Width: 248
VWidth: 1473
Flags: W
HStem: -12 21G<91 156.204>
VStem: 91 238<-12 821 210.009 518.528>
LayerCount: 2
Fore
SplineSet
158 302 m 1
 218 302 l 1
 152 -12 l 1
 91 -12 l 1
 158 302 l 1
268 821 m 1
 329 821 l 1
 262 507 l 1
 202 507 l 1
 268 821 l 1
EndSplineSet
EndChar

StartChar: section
Encoding: 167 167 106
Width: 539
VWidth: 1473
Flags: W
HStem: -90 49<178.309 322.754> 448 35<241.3 306> 586 21G<520 565.714> 675 50<346.653 489.587>
VStem: 151 59<305.175 418.191> 260 57<541.063 630.448> 357 58<8.46594 91.7497> 467 58<219.136 332.29> 530 50<599.793 661.842>
LayerCount: 2
Fore
SplineSet
260 578 m 0
 260 663 327 725 437 725 c 0
 522 725 563 674 580 614 c 1
 530 586 l 1
 510 659 464 675 420 675 c 0
 326 675 317 613 317 589 c 0
 317 505 525 430 525 295 c 0
 525 255 505 159 374 147 c 1
 402 105 415 84 415 56 c 0
 415 -2 372 -90 230 -90 c 0
 155 -90 102 -43 88 15 c 1
 140 44 l 1
 145 21 169 -41 240 -41 c 0
 348 -41 357 27 357 44 c 0
 357 120 151 226 151 353 c 0
 151 425 210 483 306 483 c 1
 309 486 l 1
 271 518 260 548 260 578 c 0
372 183 m 0
 434 183 467 240 467 273 c 0
 467 342 357 448 297 448 c 256
 269 448 210 422 210 368 c 0
 210 294 324 183 372 183 c 0
EndSplineSet
EndChar

StartChar: dieresis
Encoding: 168 168 107
Width: 248
VWidth: 1473
Flags: W
HStem: 659 106<162 214 337 389 140 411 162 162>
LayerCount: 2
Fore
SplineSet
236 765 m 1
 214 659 l 1
 140 659 l 1
 162 765 l 1
 236 765 l 1
411 765 m 1
 389 659 l 1
 315 659 l 1
 337 765 l 1
 411 765 l 1
EndSplineSet
EndChar

StartChar: copyright
Encoding: 169 169 108
Width: 895
VWidth: 1473
Flags: W
HStem: -10 50<294.455 518.397> 125 50<371.602 524.151> 541 50<432.569 592.92> 676 50<421.759 647.552>
VStem: 95 60<178.663 398.42> 254 60<235.108 408.501> 631 53<436 446.023 446.023 504.625> 789 59<314.437 534.462>
LayerCount: 2
Fore
SplineSet
95 282 m 0
 95 511 319 726 550 726 c 256
 732 726 848 591 848 433 c 0
 848 205 624 -10 393 -10 c 256
 223 -10 95 112 95 282 c 0
155 287 m 0
 155 149 248 40 404 40 c 256
 610 40 789 231 789 430 c 0
 789 566 696 676 539 676 c 256
 341 676 155 492 155 287 c 0
446 175 m 0
 520 175 576 226 598 283 c 1
 651 283 l 1
 617 201 540 125 435 125 c 0
 308 125 254 210 254 301 c 0
 254 436 357 591 529 591 c 0
 619 591 685 545 685 456 c 0
 685 450 685 443 684 436 c 1
 631 436 l 1
 632 479 609 541 520 541 c 0
 388 541 314 413 314 319 c 0
 314 231.775 366.8 175 446 175 c 0
EndSplineSet
EndChar

StartChar: ordfeminine
Encoding: 170 170 109
Width: 335
VWidth: 1473
Flags: W
HStem: 460 44<189.167 313.417> 719 21G<192.783 236.5> 775 46<258.415 392.519>
VStem: 128 58<517.032 585.003> 396 56<697 711 711 713 713 724.867 724.867 730.5 727.684 768.758>
LayerCount: 2
Fore
SplineSet
334 775 m 0
 288 775 255 758 218 719 c 1
 189 742 l 1
 226 791 269 821 351 821 c 0
 430 821 452 791 452 747 c 0
 452 737 451 725 448 713 c 2
 411 538 l 2
 404 507 403 496 403 486 c 0
 403 480 403 473 404 466 c 1
 354 466 l 1
 357 508 l 1
 311 475 273 460 217 460 c 0
 170 460 128 481 128 527 c 0
 128 620 228 666 320 682 c 0
 348 687 370 692 389 697 c 1
 395 725 l 2
 396 729 396 732 396 736 c 0
 396 767 372 775 334 775 c 0
186 541 m 0
 186 526 194 504 233 504 c 0
 265 504 322 521 359 555 c 1
 379 650 l 1
 338 638 186 615 186 541 c 0
EndSplineSet
EndChar

StartChar: guillemotleft
Encoding: 171 171 110
Width: 559
VWidth: 1473
Flags: W
HStem: 119 344<492 492 492 492>
VStem: 155 409<295 463 295 295>
LayerCount: 2
Fore
SplineSet
389 295 m 1
 492 119 l 1
 420 119 l 1
 320 295 l 1
 492 463 l 1
 564 463 l 1
 389 295 l 1
224 295 m 1
 326 119 l 1
 252 119 l 1
 155 295 l 1
 324 463 l 1
 398 463 l 1
 224 295 l 1
EndSplineSet
EndChar

StartChar: logicalnot
Encoding: 172 172 111
Width: 671
VWidth: 1473
Flags: W
HStem: 314 62<124 633>
LayerCount: 2
Fore
SplineSet
633 314 m 1
 110 314 l 1
 124 376 l 1
 707 376 l 1
 653 119 l 1
 592 119 l 1
 633 314 l 1
EndSplineSet
EndChar

StartChar: registered
Encoding: 174 174 112
Width: 895
VWidth: 1473
Flags: W
HStem: -10 50<294.455 518.397> 334 49<401 474> 527 49<432 595.671> 676 50<421.759 647.552>
VStem: 95 60<178.663 398.42> 606 62<436.165 515.984> 789 59<314.437 534.462>
LayerCount: 2
Fore
SplineSet
550 576 m 2
 621 576 668 556 668 490 c 0
 668 423 634 359 539 334 c 1
 617 138 l 1
 551 138 l 1
 474 334 l 1
 390 334 l 1
 348 138 l 1
 289 138 l 1
 383 576 l 1
 550 576 l 2
606 475 m 0
 606 519 572 527 526 527 c 2
 432 527 l 1
 401 383 l 1
 468 383 l 2
 533 383 588 383 604 457 c 0
 605 464 606 470 606 475 c 0
95 282 m 0
 95 511 319 726 550 726 c 256
 732 726 848 591 848 433 c 0
 848 205 624 -10 393 -10 c 256
 223 -10 95 112 95 282 c 0
155 287 m 0
 155 149 248 40 404 40 c 256
 610 40 789 231 789 430 c 0
 789 566 696 676 539 676 c 256
 341 676 155 492 155 287 c 0
EndSplineSet
EndChar

StartChar: macron
Encoding: 175 175 113
Width: 248
VWidth: 1473
Flags: W
HStem: 691 50<113 436 103 446 113 113>
LayerCount: 2
Fore
SplineSet
113 741 m 1
 446 741 l 1
 436 691 l 1
 103 691 l 1
 113 741 l 1
EndSplineSet
EndChar

StartChar: degree
Encoding: 176 176 114
Width: 447
VWidth: 1473
Flags: W
HStem: 492 49<274.178 410.867> 772 49<314.591 452.372>
VStem: 195 52<569.139 700.58> 478 52<611.394 745.873>
LayerCount: 2
Fore
SplineSet
478 688 m 0
 478 722 459 772 387 772 c 256
 303 772 247 697 247 628 c 0
 247 595 265 541 339 541 c 256
 431 541 478 625 478 688 c 0
195 618 m 0
 195 727 297 821 398 821 c 256
 471 821 530 770 530 694 c 0
 530 585 427 492 327 492 c 0
 236 492 195 556 195 618 c 0
EndSplineSet
EndChar

StartChar: plusminus
Encoding: 177 177 115
Width: 671
VWidth: 1473
Flags: W
HStem: 0 60<56 628> 315 61<124 371 446 694> 562 20G<422.922 489>
LayerCount: 2
Fore
SplineSet
427 582 m 1
 489 582 l 1
 446 376 l 1
 707 376 l 1
 694 315 l 1
 433 315 l 1
 389 108 l 1
 327 108 l 1
 371 315 l 1
 110 315 l 1
 124 376 l 1
 385 376 l 1
 427 582 l 1
56 60 m 1
 639 60 l 1
 628 0 l 1
 44 0 l 1
 56 60 l 1
EndSplineSet
EndChar

StartChar: twosuperior
Encoding: 178 178 116
Width: 340
VWidth: 1473
Flags: W
HStem: 289 45<143 377> 595 21G<155 208> 682 44<252.695 384.301>
VStem: 396 52<563.162 669.878>
LayerCount: 2
Fore
SplineSet
330 682 m 0
 251 682 217 635 199 595 c 1
 155 603 l 1
 176 651 227 726 336 726 c 256
 403 726 448 695 448 630 c 0
 448 565 418 521 329 468 c 0
 253 424 180 373 179 372 c 0
 159 358 147 345 143 334 c 1
 387 334 l 1
 377 289 l 1
 82 289 l 1
 90 323 l 2
 119 448 396 490 396 624 c 0
 396 650 382 682 330 682 c 0
EndSplineSet
EndChar

StartChar: threesuperior
Encoding: 179 179 117
Width: 359
VWidth: 1473
Flags: W
HStem: 284 43<171.489 332.496> 495 44<231 354.198> 682 44<246.723 389.686>
VStem: 375 52<368.649 474.691> 403 53<596.07 667.641>
LayerCount: 2
Fore
SplineSet
365 519 m 1xe8
 413 504 427 474 427 440 c 0
 427 405 412 343 359 313 c 0
 325 294 285 284 239 284 c 0
 179 284 114 303 100 368 c 1
 143 392 l 1
 163 342 188 327 250 327 c 0
 348 327 375 390 375 429 c 0xf0
 375 469 348 495 265 495 c 2
 222 495 l 1
 231 539 l 1
 267 539 l 2
 386 539 403 602 403 629 c 0
 403 661 371 682 330 682 c 0
 267 682 245 664 215 632 c 1
 183 656 l 1
 229 704 275 726 336 726 c 0
 406 726 456 692 456 641 c 0
 456 625 448 586 428 559 c 0
 417 543 396 530 365 519 c 1xe8
EndSplineSet
EndChar

StartChar: acute
Encoding: 180 180 118
Width: 248
VWidth: 1473
Flags: W
HStem: 647 154<247 435 435 435>
LayerCount: 2
Fore
SplineSet
435 801 m 1
 247 647 l 1
 190 647 l 1
 348 801 l 1
 435 801 l 1
EndSplineSet
EndChar

StartChar: mu
Encoding: 181 181 119
Width: 623
VWidth: 1473
Flags: W
HStem: -206 21G<49 119.253> -12 55<212.546 340.675> 562 20G<210.787 281 580.785 653>
LayerCount: 2
Fore
SplineSet
191 130 m 0
 191 77 210 43 286 43 c 0
 316 43 362 50 436 109 c 2
 495 155 l 1
 585 582 l 1
 653 582 l 1
 530 0 l 1
 463 0 l 1
 482 93 l 1
 371 -3 321 -12 262 -12 c 0
 216 -12 183 -3 162 15 c 1
 115 -206 l 1
 49 -206 l 1
 215 582 l 1
 281 582 l 1
 199 192 l 2
 194 169 191 148 191 130 c 0
EndSplineSet
EndChar

StartChar: paragraph
Encoding: 182 182 120
Width: 559
VWidth: 1473
Flags: W
HStem: 759 50<466 583 639 723>
LayerCount: 2
Fore
SplineSet
139 547 m 0
 139 632 198 809 438 809 c 2
 734 809 l 1
 723 759 l 1
 639 759 l 1
 460 -90 l 1
 404 -90 l 1
 583 759 l 1
 466 759 l 1
 286 -90 l 1
 230 -90 l 1
 329 377 l 1
 217 377 139 450 139 547 c 0
EndSplineSet
EndChar

StartChar: periodcentered
Encoding: 183 183 121
Width: 310
VWidth: 1473
Flags: W
HStem: 236 112<180.386 252.73>
VStem: 159 115<257.04 326.117>
LayerCount: 2
Fore
SplineSet
159 279 m 0
 159 319 199 348 228 348 c 0
 255 348 274 328 274 302 c 0
 274 267 237 236 205 236 c 0
 180 236 159 254 159 279 c 0
EndSplineSet
EndChar

StartChar: cedilla
Encoding: 184 184 122
Width: 248
VWidth: 1473
Flags: W
HStem: -233 46<17.4809 113.121> -97 45<74.0555 135.977> -20 20G<87.2903 149>
VStem: 126 71<-172.632 -100.982>
LayerCount: 2
Fore
SplineSet
125 -52 m 0
 169 -52 197 -75 197 -118 c 0
 197 -210 96 -233 57 -233 c 0
 17 -233 -17 -224 -44 -211 c 1
 -21 -171 l 1
 16 -182 23 -187 41 -187 c 0
 83 -187 126 -179 126 -129 c 0
 126 -103 98 -97 82 -97 c 0
 64 -97 47 -100 32 -106 c 1
 19 -93 l 1
 106 0 l 1
 149 0 l 1
 87 -56 l 1
 90 -59 l 1
 98 -54 110 -52 125 -52 c 0
EndSplineSet
EndChar

StartChar: onesuperior
Encoding: 185 185 123
Width: 387
VWidth: 1473
Flags: W
HStem: 289 437<159 336 460 526> 289 45<169 242 293 359>
LayerCount: 2
Fore
SplineSet
159 289 m 1x80
 169 334 l 1
 242 334 l 1x40
 314 676 l 1
 227 657 l 1
 234 692 l 1
 336 726 l 1
 376 726 l 1x80
 293 334 l 1
 370 334 l 1
 359 289 l 1x40
 159 289 l 1x80
EndSplineSet
EndChar

StartChar: ordmasculine
Encoding: 186 186 124
Width: 304
VWidth: 1473
Flags: W
HStem: 407 45<194.764 309.839> 681 45<234.919 350.718>
VStem: 128 55<463.07 584.085> 361 55<548.826 670.465>
LayerCount: 2
Fore
SplineSet
361 617 m 0
 361 661 344 681 298 681 c 256
 233 681 203 638 189 566 c 256
 185 548 183 532 183 518 c 0
 183 473 202 452 249 452 c 256
 291 452 334 467 355 566 c 256
 359 585 361 603 361 617 c 0
128 506 m 0
 128 586 164 726 306 726 c 256
 363 726 416 705 416 619 c 0
 416 551 381 407 239 407 c 256
 150 407 128 462 128 506 c 0
EndSplineSet
EndChar

StartChar: guillemotright
Encoding: 187 187 125
Width: 559
VWidth: 1473
Flags: W
HStem: 119 344<190 190 190 190>
VStem: 118 409<119 289 119 119>
LayerCount: 2
Fore
SplineSet
293 289 m 1
 190 463 l 1
 262 463 l 1
 362 289 l 1
 190 119 l 1
 118 119 l 1
 293 289 l 1
458 289 m 1
 357 463 l 1
 430 463 l 1
 527 289 l 1
 358 119 l 1
 284 119 l 1
 458 289 l 1
EndSplineSet
EndChar

StartChar: onequarter
Encoding: 188 188 126
Width: 878
VWidth: 1473
Flags: W
HStem: 0 21G<178 252.168 667 724.078> 103 43<545 688 751 810> 289 45<168 240 293 358> 656 20G<227 307.789>
LayerCount: 2
Fore
SplineSet
545 146 m 1
 698 146 l 1
 745 370 l 1
 742 370 l 1
 545 146 l 1
492 152 m 1
 745 430 l 1
 812 430 l 1
 751 146 l 1
 821 146 l 1
 810 103 l 1
 741 103 l 1
 720 0 l 1
 667 0 l 1
 688 103 l 1
 482 103 l 1
 492 152 l 1
158 289 m 1
 168 334 l 1
 240 334 l 1
 312 676 l 1
 227 657 l 1
 234 692 l 1
 334 726 l 1
 376 726 l 1
 293 334 l 1
 368 334 l 1
 358 289 l 1
 158 289 l 1
773 726 m 1
 831 726 l 1
 236 -10 l 1
 178 -10 l 1
 773 726 l 1
EndSplineSet
LCarets2: 2 0 0 
Ligature2: "'frac' Diagonal Fractions in Latin lookup 1 subtable" one fraction four
Ligature2: "'frac' Diagonal Fractions in Latin lookup 1 subtable" one slash four
EndChar

StartChar: onehalf
Encoding: 189 189 127
Width: 873
VWidth: 1473
Flags: W
HStem: 0 43<550 784> 289 45<168 240 293 358> 392 44<658.408 787.667> 656 20G<227 307.789>
VStem: 799 55<286.397 380.555>
LayerCount: 2
Fore
SplineSet
158 289 m 1
 168 334 l 1
 240 334 l 1
 312 676 l 1
 227 657 l 1
 234 692 l 1
 334 726 l 1
 376 726 l 1
 293 334 l 1
 368 334 l 1
 358 289 l 1
 158 289 l 1
799 333 m 0
 799 359 787 392 737 392 c 0
 675 392 631 363 605 306 c 1
 561 312 l 1
 590 382 652 436 742 436 c 256
 807 436 854 407 854 343 c 0
 854 215 732 189 585 82 c 0
 564 68 553 54 550 43 c 1
 793 43 l 1
 784 0 l 1
 489 0 l 1
 495 32 l 2
 517 135 749 206 788 283 c 0
 794 297 799 314 799 333 c 0
762 726 m 1
 818 726 l 1
 224 -10 l 1
 165 -10 l 1
 762 726 l 1
EndSplineSet
LCarets2: 2 0 0 
Ligature2: "'frac' Diagonal Fractions in Latin lookup 1 subtable" one fraction two
Ligature2: "'frac' Diagonal Fractions in Latin lookup 1 subtable" one slash two
EndChar

StartChar: threequarters
Encoding: 190 190 128
Width: 876
VWidth: 1473
Flags: W
HStem: 0 21G<193 268.087 666 723.078> 103 43<544 687 750 809> 284 43<177.808 339.812> 495 44<240 361.733> 682 44<253.134 399.404>
VStem: 108 45<322.094 368> 384 52<368.159 474.417> 412 53<575.709 667.672>
LayerCount: 2
Fore
SplineSet
544 146 m 1xfc
 697 146 l 1
 744 370 l 1
 741 370 l 1
 544 146 l 1xfc
491 152 m 1
 744 430 l 1
 810 430 l 1
 750 146 l 1
 819 146 l 1
 809 103 l 1
 740 103 l 1
 719 0 l 1
 666 0 l 1
 687 103 l 1
 480 103 l 1
 491 152 l 1
374 519 m 1
 422 504 436 474 436 440 c 0
 436 401 418 342 368 313 c 0
 334 294 294 284 247 284 c 0
 191 284 126 300 108 368 c 1
 153 392 l 1
 165 354 183 327 256 327 c 0
 355 327 384 387 384 428 c 0xfe
 384 468 355 495 274 495 c 2
 231 495 l 1
 240 539 l 1
 275 539 l 2
 386 539 412 593 412 630 c 0
 412 661 381 682 340 682 c 0
 275 682 252 664 221 632 c 1
 190 656 l 1
 225 691 271 726 343 726 c 0
 417 726 465 691 465 640 c 0xfd
 465 606 447 572 438 559 c 0
 426 543 405 530 374 519 c 1
788 726 m 1
 844 726 l 1
 252 -10 l 1
 193 -10 l 1
 788 726 l 1
EndSplineSet
LCarets2: 2 0 0 
Ligature2: "'frac' Diagonal Fractions in Latin lookup 1 subtable" three fraction four
Ligature2: "'frac' Diagonal Fractions in Latin lookup 1 subtable" three slash four
EndChar

StartChar: questiondown
Encoding: 191 191 129
Width: 434
VWidth: 1473
Flags: W
HStem: -239 62<114.218 254.636> 482 100<333 407>
VStem: 17 71<-151.837 -20.8732>
LayerCount: 2
Fore
SplineSet
181 -177 m 0
 241 -177 289 -142 331 -71 c 1
 382 -99 l 1
 325 -196 252 -239 166 -239 c 0
 86 -239 17 -193 17 -101 c 0
 17 92 248 125 283 283 c 2
 295 336 l 1
 355 336 l 1
 337 255 l 2
 315 135 88 49 88 -97 c 0
 88 -145 123 -177 181 -177 c 0
427 582 m 1
 407 482 l 1
 312 482 l 1
 333 582 l 1
 427 582 l 1
EndSplineSet
EndChar

StartChar: AE
Encoding: 198 198 136
Width: 956
VWidth: 1473
Flags: W
HStem: 0 62<591 922> 208 65<309 555> 351 61<666 956> 654 62<603 651 717 1065>
LayerCount: 2
Fore
SplineSet
591 62 m 1
 934 62 l 1
 922 0 l 1
 513 0 l 1
 555 208 l 1
 265 208 l 1
 109 0 l 1
 29 0 l 1
 577 716 l 1
 1078 716 l 1
 1065 654 l 1
 717 654 l 1
 666 412 l 1
 969 412 l 1
 956 351 l 1
 653 351 l 1
 591 62 l 1
570 273 m 1
 651 656 l 1
 603 656 l 1
 309 273 l 1
 570 273 l 1
EndSplineSet
EndChar

StartChar: Eth
Encoding: 208 208 146
Width: 687
VWidth: 1473
Flags: W
HStem: 0 62<174 482.212> 334 59<53 159 245 455> 654 62<301 596.37>
VStem: 653 71<464.743 600.769>
LayerCount: 2
Fore
SplineSet
507 716 m 2
 627 716 724 676 724 517 c 0
 724 462 701 204 590 88 c 0
 527 22 446 -0 355 0 c 2
 88 0 l 1
 159 334 l 1
 41 334 l 1
 53 393 l 1
 171 393 l 1
 240 716 l 1
 507 716 l 2
653 513 m 0
 653 626 588 654 494 654 c 2
 301 654 l 1
 245 393 l 1
 467 393 l 1
 455 334 l 1
 233 334 l 1
 174 62 l 1
 367 62 l 2
 543 62 590 166 629 348 c 0
 650 445 653 497 653 513 c 0
EndSplineSet
EndChar

StartChar: multiply
Encoding: 215 215 153
Width: 573
VWidth: 1473
Flags: W
HStem: 565 20G<177.61 217.355 594.829 634.61>
LayerCount: 2
Fore
SplineSet
398 336 m 1
 563 127 l 1
 513 85 l 1
 348 295 l 1
 96 85 l 1
 63 127 l 1
 317 336 l 1
 152 544 l 1
 202 585 l 1
 364 374 l 1
 619 585 l 1
 651 544 l 1
 398 336 l 1
EndSplineSet
EndChar

StartChar: Oslash
Encoding: 216 216 154
Width: 695
VWidth: 1473
Flags: W
HStem: -9 69<249.752 476.102> 654 66<367.532 564.181>
VStem: 115 76<165.811 314.524> 654 74<397.391 567.724>
LayerCount: 2
Fore
SplineSet
685 654 m 1
 715 617 728 569 728 504 c 0
 728 410 697 203 588 84 c 0
 530 22 450 -9 345 -9 c 0
 263 -9 203 11 166 50 c 1
 49 -88 l 1
 -15 -88 l 1
 137 93 l 1
 123 124 115 161 115 205 c 0
 115 285 147 507 256 626 c 0
 314 689 394 720 499 720 c 0
 559 720 607 710 642 689 c 1
 756 819 l 1
 829 819 l 1
 685 654 l 1
359 60 m 0
 534 60 593 159 633 349 c 0
 650 423 654 470 654 500 c 0
 654 539 647 570 633 594 c 1
 217 109 l 1
 243 76 290 60 359 60 c 0
486 654 m 0
 318 654 257 570 209 349 c 0
 194 282 191 239 191 211 c 0
 191 192 193 176 196 161 c 1
 595 632 l 1
 568 647 532 654 486 654 c 0
EndSplineSet
EndChar

StartChar: Thorn
Encoding: 222 222 160
Width: 655
VWidth: 1473
Flags: W
HStem: 0 21G<112 189.969> 131 61<225 502.65> 550 61<315 569.75> 696 20G<259.754 337>
VStem: 613 76<363.788 510.795>
LayerCount: 2
Fore
SplineSet
485 611 m 2
 592 611 689 580 689 454 c 0
 689 386 664 266 592 200 c 0
 544 156 477 131 383 131 c 2
 212 131 l 1
 186 0 l 1
 112 0 l 1
 264 716 l 1
 337 716 l 1
 315 611 l 1
 485 611 l 2
613 444 m 0
 613 529 545 550 471 550 c 2
 302 550 l 1
 225 192 l 1
 395 192 l 2
 539 192 581 268 604 371 c 256
 610 398 613 422 613 444 c 0
EndSplineSet
EndChar

StartChar: germandbls
Encoding: 223 223 161
Width: 559
VWidth: 1473
Flags: W
HStem: -12 55<279.25 414.303> 404 53<351 443.047> 754 55<358.681 509.976>
VStem: 510 68<172.68 351.773> 541 67<588.527 723.174>
LayerCount: 2
Fore
SplineSet
541 657 m 0xe8
 541 724 501 754 430 754 c 0
 391 754 310 741 280 601 c 2
 153 0 l 1
 85 0 l 1
 212 597 l 2
 220 634 260 809 454 809 c 0
 537 809 608 759 608 657 c 0xe8
 608 599 586 496 466 440 c 1
 555 411 578 344 578 282 c 0
 578 192 516 -12 330 -12 c 0
 293 -12 253 1 234 15 c 1
 268 65 l 1
 286 54 318 43 346 43 c 0
 464 43 510 196 510 274 c 0xf0
 510 352 469 404 342 404 c 2
 340 404 l 1
 351 457 l 1
 504 463 526 564 536 611 c 0
 540 628 541 643 541 657 c 0xe8
EndSplineSet
EndChar

StartChar: ae
Encoding: 230 230 168
Width: 917
VWidth: 1473
Flags: W
HStem: -12 55<149.861 288.69 565.87 741.449> 289 54<258.766 461 538 860> 541 53<295.509 472.229 657.714 823.451>
VStem: 57 64<71.8356 201.543> 864 66<348.591 500.658>
LayerCount: 2
Fore
SplineSet
756 594 m 0
 895 594 930 498 930 402 c 0
 930 368 925 330 916 289 c 1
 526 289 l 1
 521 262 514 221 514 185 c 0
 514 116 541 43 647 43 c 0
 748 43 798 98 840 159 c 1
 888 131 l 1
 833 47 762 -12 629 -12 c 0
 562 -12 500 8 464 99 c 1
 376 22 297 -12 186 -12 c 0
 105 -12 57 42 57 113 c 0
 57 148 71 210 106 252 c 0
 176 335 319 346 474 346 c 1
 492 423 l 2
 495 437 496 449 496 461 c 0
 496 525 450 541 383 541 c 0
 344 541 274 530 190 435 c 1
 144 463 l 1
 248 583 353 594 396 594 c 0
 479 594 540 567 554 489 c 1
 637 585 709 594 756 594 c 0
461 292 m 1
 276 292 121 260 121 130 c 0
 121 82 155 43 209 43 c 0
 253 43 329 46 427 138 c 1
 461 292 l 1
864 407 m 0
 864 489 839 541 742 541 c 256
 620 541 555 425 538 343 c 1
 860 343 l 1
 863 366 864 387 864 407 c 0
EndSplineSet
EndChar

StartChar: eth
Encoding: 240 240 178
Width: 559
VWidth: 1473
Flags: W
HStem: -12 55<205.478 380.211> 541 53<304.324 464.397> 789 20G<381.333 440.569 575.689 627.909>
VStem: 90 67<94.4653 285.447> 526 74<323.332 543.333>
LayerCount: 2
Fore
SplineSet
526 395 m 0
 526 506.402 473.95 541 394 541 c 0
 259 541 198 428 169 292 c 256
 161 253 157 219 157 189 c 0
 157 79 208 43 289 43 c 256
 424 43 485 154 514 292 c 256
 522 331 526 365 526 395 c 0
277 -12 m 0
 128 -12 90 86 90 182 c 0
 90 261 116 407 198 502 c 0
 243 554 310 594 405 594 c 0
 448 594 484 586 511 569 c 1
 514 572 l 1
 500 611 484 649 461 681 c 1
 334 620 l 1
 311 664 l 1
 427 719 l 1
 422 726 405 751 359 779 c 1
 426 809 l 1
 455.138 784.147 472.506 770.604 491 748 c 1
 617 809 l 1
 641 765 l 1
 524 709 l 1
 584 628 600 531 600 454 c 0
 600 387 579 187 485 80 c 0
 430 18 361 -12 277 -12 c 0
EndSplineSet
EndChar

StartChar: divide
Encoding: 247 247 185
Width: 592
VWidth: 1473
Flags: W
HStem: 75 108<286.986 358.843> 303 62<128 604> 485 107<372.652 446.795>
VStem: 267 111<94.5301 163.451> 354 111<503.66 573.547>
LayerCount: 2
Fore
SplineSet
115 303 m 1xe0
 128 365 l 1
 617 365 l 1
 604 303 l 1
 115 303 l 1xe0
354 529 m 0xe8
 354 564 390 592 421 592 c 256
 450 592 465 570 465 549 c 0
 465 513 430 485 398 485 c 256
 372 485 354 505 354 529 c 0xe8
267 119 m 0xf0
 267 146 296 183 334 183 c 256
 361 183 378 163 378 140 c 0
 378 105 343 75 311 75 c 256
 284 75 267 97 267 119 c 0xf0
EndSplineSet
EndChar

StartChar: oslash
Encoding: 248 248 186
Width: 559
VWidth: 1473
Flags: W
HStem: -12 55<213.504 387.746> 541 53<298.174 482.597>
VStem: 87 67<127.44 271.705> 528 68<310.688 453.88>
LayerCount: 2
Fore
SplineSet
494 510 m 1
 473 531 440 541 395 541 c 0
 259 541 200 445 169 292 c 0
 159 247 154 208 154 175 c 0
 154 154 157 135 161 119 c 1
 494 510 l 1
184 77 m 1
 205 54 240 43 289 43 c 0
 356 43 406 64 440 108 c 0
 510 200 528 361 528 406 c 0
 528 431 525 451 519 468 c 1
 184 77 l 1
277 -12 m 0
 235 -12 182 -7 140 25 c 1
 44 -88 l 1
 -15 -88 l 1
 110 62 l 1
 95 88 87 121 87 162 c 0
 87 225 110 415 201 513 c 0
 255 571 323 594 405 594 c 0
 461 594 505 583 536 560 c 1
 645 687 l 1
 706 687 l 1
 567 526 l 1
 591 492 596 451 596 418 c 0
 596 365 576 176 482 69 c 0
 429 10 359 -12 277 -12 c 0
EndSplineSet
EndChar

StartChar: thorn
Encoding: 254 254 192
Width: 623
VWidth: 1473
Flags: W
HStem: -206 21G<59 131.199> -12 55<274.213 432.831> 541 53<375.803 533.197> 789 20G<269.764 342>
VStem: 587 66<247.114 481.863>
LayerCount: 2
Fore
SplineSet
349 -12 m 0
 270 -12 231 15 186 75 c 1
 127 -206 l 1
 59 -206 l 1
 274 809 l 1
 342 809 l 1
 274 492 l 1
 275 492 l 1
 333 558 394 594 474 594 c 0
 617 594 653 467 653 379 c 0
 653 307 621 147 531 62 c 0
 478 13 418 -12 349 -12 c 0
587 380 m 0
 587 469 552 541 460 541 c 0
 397 541 358 516 262 435 c 1
 202 147 l 1
 212 112 275 43 343 43 c 0
 538 43 587 287 587 380 c 0
EndSplineSet
EndChar

StartChar: dotlessi
Encoding: 305 305 194
Width: 248
VWidth: 1473
Flags: W
HStem: 0 21G<91 162.192> 562 20G<209.773 280>
VStem: 91 189<0 582 1.53064e-18 1.53064e-18>
LayerCount: 2
Fore
SplineSet
158 0 m 1
 91 0 l 1
 214 582 l 1
 280 582 l 1
 158 0 l 1
EndSplineSet
EndChar

StartChar: Lslash
Encoding: 321 321 195
Width: 559
VWidth: 1473
Flags: W
HStem: 0 60<197 547> 789 20G<278.745 357>
VStem: 85 473<60 324 812.48 1150.87>
LayerCount: 2
Fore
SplineSet
268 393 m 1
 197 60 l 1
 558 60 l 1
 547 0 l 1
 112 0 l 1
 189 362 l 1
 85 324 l 1
 100 395 l 1
 203 433 l 1
 283 809 l 1
 357 809 l 1
 283 463 l 1
 491 539 l 1
 476 468 l 1
 268 393 l 1
EndSplineSet
EndChar

StartChar: lslash
Encoding: 322 322 196
Width: 248
VWidth: 1473
Flags: W
HStem: 0 21G<91 162.167> 789 20G<257.824 329>
VStem: 71 287<327 526 318.493 327>
LayerCount: 2
Fore
SplineSet
158 0 m 1
 91 0 l 1
 169 374 l 1
 71 327 l 1
 85 399 l 1
 186 445 l 1
 262 809 l 1
 329 809 l 1
 259 480 l 1
 358 526 l 1
 343 455 l 1
 243 408 l 1
 158 0 l 1
EndSplineSet
EndChar

StartChar: OE
Encoding: 338 338 197
Width: 969
VWidth: 1473
Flags: W
HStem: -9 68<253.028 433.443> 0 62<604 935> 351 61<679 969> 654 62<367.243 566.349 731 1078>
VStem: 117 71<118.321 311.948>
LayerCount: 2
Fore
SplineSet
188 211 m 0xb8
 188 89 260 59 359 59 c 0
 429 59 503 69 535 81 c 1
 654 639 l 1
 621 647 553 656 486 656 c 0
 318 656 254 570 206 349 c 0
 197 308 188 254 188 211 c 0xb8
499 720 m 0
 567 720 619 716 670 716 c 2
 1092 716 l 1
 1078 654 l 1
 731 654 l 1
 679 412 l 1
 983 412 l 1
 969 351 l 1
 666 351 l 1
 604 62 l 1
 947 62 l 1
 935 0 l 1
 519 0 l 2x78
 476 0 434 -9 345 -9 c 0
 189 -9 117 59 117 212 c 0
 117 292 148 508 256 626 c 0
 314 689 394 720 499 720 c 0
EndSplineSet
EndChar

StartChar: oe
Encoding: 339 339 198
Width: 932
VWidth: 1473
Flags: W
HStem: -12 55<205.505 367.483 601.047 764.594> 289 54<576 891> 541 53<304.787 450.199 692.819 847.748>
VStem: 90 67<91.9014 286.428> 510 43<188 397> 893 67<346.797 490.682>
LayerCount: 2
Fore
SplineSet
510 397 m 0
 510 525.4 436.4 541 389 541 c 0
 257 541 197 424 169 292 c 256
 161 254 157 221 157 191 c 0
 157 106 182 43 284 43 c 0
 469 43 510 312 510 397 c 0
785 594 m 0
 925 594 960 494 960 402 c 0
 960 368 955 330 946 289 c 1
 564 289 l 1
 560 269 553 228 553 188 c 0
 553 117 578 43 676 43 c 0
 753 43 803 79 869 159 c 1
 919 131 l 1
 832 24 763 -12 659 -12 c 0
 559 -12 512 37 489 116 c 1
 466 80 438 50 403 25 c 0
 368 0 325 -12 273 -12 c 0
 127 -12 90 87 90 178 c 0
 90 306 152 594 401 594 c 0
 436 594 539 591 566 467 c 1
 604 527 674 594 785 594 c 0
893 385 m 0
 893 505 845 541 773 541 c 0
 664 541 608 450 576 343 c 1
 891 343 l 1
 892 358 893 371 893 385 c 0
EndSplineSet
EndChar

StartChar: florin
Encoding: 402 402 204
Width: 564
VWidth: 1473
Flags: W
HStem: -200 59<14.1904 113.071> 423 51<211 346 436 555> 738 60<563.25 656.92 648.862 664.979 664.979 666>
LayerCount: 2
Fore
SplineSet
364 474 m 1
 404 594 469 798 625 798 c 0
 656.2 798 678.514 794.498 688 793 c 1
 666 735 l 1
 653 738 639 738 632 738 c 0
 506 738 477 583 436 474 c 1
 566 474 l 1
 555 423 l 1
 418 423 l 1
 264 -13 l 2
 235 -94 160 -200 29 -200 c 0
 13 -200 2 -200 -12 -197 c 1
 9 -133 l 1
 36.3773 -141.424 37 -141 44 -141 c 0
 111 -141 155 -105 212 43 c 2
 346 423 l 1
 200 423 l 1
 211 474 l 1
 364 474 l 1
EndSplineSet
EndChar

StartChar: circumflex
Encoding: 710 710 205
Width: 248
VWidth: 1473
Flags: W
HStem: 647 154<256 427 256 256>
VStem: 94 333<647 647 647 647>
LayerCount: 2
Fore
SplineSet
427 647 m 1
 352 647 l 1
 286 760 l 1
 169 647 l 1
 94 647 l 1
 256 801 l 1
 331 801 l 1
 427 647 l 1
EndSplineSet
EndChar

StartChar: caron
Encoding: 711 711 206
Width: 248
VWidth: 1473
Flags: W
HStem: 659 154<130 302 130 130>
VStem: 130 333<813 813 813 813>
LayerCount: 2
Fore
SplineSet
130 813 m 1
 205 813 l 1
 273 700 l 1
 387 813 l 1
 463 813 l 1
 302 659 l 1
 227 659 l 1
 130 813 l 1
EndSplineSet
EndChar

StartChar: breve
Encoding: 728 728 207
Width: 248
VWidth: 1473
Flags: W
HStem: 666 50<206.616 354.028>
VStem: 132 325<723 788 780 807 780 780> 132 52<738.61 793.454 793.454 807>
LayerCount: 2
Fore
SplineSet
277 716 m 0xa0
 355 716 389 763 407 807 c 1
 457 807 l 1
 433 723 366 666 267 666 c 256
 188 666 132 704 132 780 c 0xc0
 132 788 133 797 134 807 c 1
 184 807 l 1
 184 772.156 187.794 716 277 716 c 0xa0
EndSplineSet
EndChar

StartChar: dotaccent
Encoding: 729 729 208
Width: 248
VWidth: 1473
Flags: W
HStem: 659 106<249 301 227 323 249 249>
LayerCount: 2
Fore
SplineSet
323 765 m 1
 301 659 l 1
 227 659 l 1
 249 765 l 1
 323 765 l 1
EndSplineSet
EndChar

StartChar: ring
Encoding: 730 730 209
Width: 248
VWidth: 1473
Flags: W
HStem: 642 39<221.732 324.674> 828 38<243.543 348.306>
VStem: 169 39<694.487 793.274> 360 39<715.575 815.53>
LayerCount: 2
Fore
SplineSet
169 729 m 0
 169 794 231 866 308 866 c 0
 360 866 399 827 399 780 c 0
 399 707 330 642 261 642 c 0
 208 642 169 679 169 729 c 0
360 772 m 0
 360 805 334 828 301 828 c 0
 247 828 208 780 208 740 c 0
 208 708 233 681 270 681 c 0
 312 681 360 721 360 772 c 0
EndSplineSet
EndChar

StartChar: ogonek
Encoding: 731 731 210
Width: 248
VWidth: 1473
Flags: W
HStem: -231 54<43.5485 152.169>
VStem: -30 71<-172.384 -98.0893>
LayerCount: 2
Fore
SplineSet
57 -231 m 0
 18 -231 -30 -218 -30 -167 c 0
 -30 -36 168 6 243 21 c 1
 242 12 l 1
 184 -12 l 2
 59 -61 41 -116 41 -143 c 0
 41 -169 62 -177 93 -177 c 0
 118 -177 148 -168 218 -134 c 1
 230 -172 l 1
 218 -179 126 -231 57 -231 c 0
EndSplineSet
EndChar

StartChar: tilde
Encoding: 732 732 211
Width: 248
VWidth: 1473
Flags: W
HStem: 659 110<88 463 209 209> 664 55<327.604 402.263> 715 54<150.849 239.048>
LayerCount: 2
Fore
SplineSet
194 715 m 0x20
 156 715 136 674 131 659 c 1
 88 659 l 1
 105 715 153 769 209 769 c 0x80
 248 769 265.046 751.319 287 742 c 2
 323 726 l 2
 334 722 346 719 359 719 c 0
 396 719 414 754 421 773 c 1
 463 773 l 1
 421 670 371 664 340 664 c 0x40
 329 664 317 667 304 673 c 2
 229 708 l 2
 217 712 205 715 194 715 c 0x20
EndSplineSet
EndChar

StartChar: hungarumlaut
Encoding: 733 733 212
Width: 248
VWidth: 1473
Flags: W
HStem: 647 154<183 352 352 352>
LayerCount: 2
Fore
SplineSet
352 801 m 1
 183 647 l 1
 128 647 l 1
 265 801 l 1
 352 801 l 1
507 801 m 1
 320 647 l 1
 264 647 l 1
 420 801 l 1
 507 801 l 1
EndSplineSet
EndChar

StartChar: uni0E01
Encoding: 3585 3585 214
Width: 618
VWidth: 1473
Flags: W
HStem: 0 21G<97 160.198 479 542.142> 392 47<266.024 335.897> 547 51<318.088 528.6>
VStem: 565 59<403.826 513.346>
LayerCount: 2
Fore
SplineSet
265 420 m 0
 287 420 299 439 321 439 c 0
 333 439 347 392 331 392 c 0
 264 392 233 364 211 262 c 2
 156 0 l 1
 97 0 l 1
 152 262 l 2
 166 329 183 358 227 395 c 1
 204 409 162 447 165 470 c 0
 173 506 296 598 438 598 c 0
 551 598 624 562 624 450 c 0
 624 426 621 399 614 367 c 2
 538 0 l 1
 479 0 l 1
 555 367 l 2
 561 397 565 423 565 444 c 0
 565 524 518 547 426 547 c 0
 331 547 227 492 224 473 c 1
 220 463 254 420 265 420 c 0
EndSplineSet
EndChar

StartChar: uni0E02
Encoding: 3586 3586 215
Width: 587
VWidth: 1473
Flags: W
HStem: -9 52<262.181 434.046> 382 53<227.607 298.736> 544 48<251.428 383.238>
VStem: 160 59<76.2898 124.941 123.977 125.905 125.905 152.853> 172 54<435.919 503.795> 396 54<439.062 530.415>
LayerCount: 2
Fore
SplineSet
315 -9 m 0xf4
 244 -9 160 12 160 97 c 0xf4
 160 111 162 125 165 141 c 2
 180 214 l 2
 198 299 262 306 352 384 c 0
 382 409 396 453 396 483 c 0
 396 524 371 544 320 544 c 0
 234 544 226 483 226 468 c 0
 226 444 238 435 256 435 c 0
 275 435 302 447 311 480 c 2
 320 523 l 1
 345 523 l 1
 362 480 l 1
 349 425 308 382 246 382 c 256
 187 382 172 422 172 455 c 0xec
 172 533 248 592 336 592 c 0
 405 592 450 555 450 498 c 0
 450 472 437 404 402 366 c 0
 381 344 360 326 337 312 c 2
 275 271 l 2
 256 258 244 239 239 214 c 2
 222 137 l 2
 220 128 219 119 219 111 c 0
 219 88 227 71 242 62 c 0
 263 49 292 43 329 43 c 0
 491 43 467 105 507 290 c 2
 572 589 l 1
 632 589 l 1
 542 166 l 2
 517 44 447 -9 315 -9 c 0xf4
EndSplineSet
EndChar

StartChar: uni0E03
Encoding: 3587 3587 216
Width: 608
VWidth: 1473
Flags: W
HStem: -9 52<242.023 442.579> 390 52<204.84 277.131> 542 52<218.398 291.69> 580 20<396.73 432.5 587.652 653>
VStem: 152 51<443.9 527.719> 166 59<61.1734 118.891 117.454 120.328 120.328 146.333> 417 48<443.453 525.776>
LayerCount: 2
Fore
SplineSet
327 -9 m 0xd6
 245 -9 166 10 166 94 c 0xd6
 166 106 168 120 171 134 c 2
 187 214 l 2
 215 353 386 333 414 466 c 0
 416 475 417 484 417 492 c 0
 417 511 408 532 402 539 c 1
 327 468 l 1
 288 515 291 542 258 542 c 0
 224 542 203 506 203 475 c 0xea
 203 454 215 442 237 442 c 0
 259 442 288 468 293 473 c 1
 303 455 l 1
 287 421 l 1
 266 400 245 390 225 390 c 0xe6
 167 390 152 434 152 467 c 0
 152 537 207 594 268 594 c 0xea
 311 594 332 549 342 526 c 1
 417 600 l 1
 448 582 465 536 465 500 c 0
 465 461 446 403 416 374 c 0
 335 292 263 295 246 214 c 2
 228 130 l 2
 226 121 225 112 225 105 c 0
 225 55 267 43 340 43 c 0
 505 43 495 122 527 290 c 2
 592 589 l 1
 653 589 l 1
 564 174 l 2
 553 119 517 -9 327 -9 c 0xd6
EndSplineSet
EndChar

StartChar: uni0E04
Encoding: 3588 3588 217
Width: 626
VWidth: 1473
Flags: W
HStem: 0 21G<106.5 194.5 486 549.253> 202 51<356.554 428.105> 355 52<349.406 443.788> 547 51<326.774 536.959>
VStem: 142 57<230.222 401.905> 447 52<271.633 341.503> 573 59<406.376 511.101>
LayerCount: 2
Fore
SplineSet
402 355 m 0
 339 355 221 230 168 0 c 1
 110 0 l 2
 103 0 101 3 101 8 c 0
 101 22 129 107 161 156 c 0
 167 167 170 175 170 182 c 0
 170 191 142 228 142 292 c 0
 142 425 235 598 436 598 c 0
 553 598 632 571 632 460 c 0
 632 428 628 391 619 348 c 2
 545 0 l 1
 486 0 l 1
 557 333 l 2
 571 401 573 437 573 448 c 0
 573 527 519 547 424 547 c 0
 289 547 199 442 199 278 c 0
 199 256 201 238 203 225 c 1
 246 290 l 2
 269 325 332 407 420 407 c 0
 451 407 499 388 499 333 c 0
 499 257 436 202 373 202 c 0
 345 202 323 212 308 231 c 1
 311 277 l 1
 330 295 l 1
 352 268 l 2
 359 258 369 253 382 253 c 0
 420 253 447 290 447 318 c 0
 447 333 438 355 402 355 c 0
EndSplineSet
EndChar

StartChar: uni0E05
Encoding: 3589 3589 218
Width: 640
VWidth: 1473
Flags: W
HStem: 0 21G<106.5 194.5 501 564.195> 202 51<356.554 428.105> 355 52<349.406 443.788> 578 20G<319.5 377.032 512.077 582>
VStem: 142 57<230.222 405.954> 447 52<271.633 341.503> 593 57<426.606 527.291>
LayerCount: 2
Fore
SplineSet
402 355 m 0
 339 355 221 230 168 0 c 1
 110 0 l 2
 103 0 101 3 101 8 c 0
 101 22 129 107 161 156 c 0
 167 167 170 175 170 182 c 0
 170 191 142 228 142 292 c 0
 142 341 162 442 216 510 c 0
 246 549 291 579 348 598 c 1
 438 536 l 1
 545 601 l 1
 619 589 650 546 650 472 c 0
 650 439 643 395 633 348 c 2
 560 0 l 1
 501 0 l 1
 577 365 l 2
 589 416 593 448 593 469 c 0
 593 516 573 535 530 547 c 1
 426 485 l 1
 342 545 l 1
 229 511 199 353 199 278 c 0
 199 256 201 238 203 225 c 1
 246 290 l 2
 269 325 332 407 420 407 c 0
 451 407 499 388 499 333 c 0
 499 257 436 202 373 202 c 0
 345 202 323 212 308 231 c 1
 311 277 l 1
 330 295 l 1
 352 268 l 2
 359 258 369 253 382 253 c 0
 420 253 447 290 447 318 c 0
 447 333 438 355 402 355 c 0
EndSplineSet
EndChar

StartChar: uni0E06
Encoding: 3590 3590 219
Width: 692
VWidth: 1473
Flags: W
HStem: -9 53<183.153 239.634> 390 52<204.84 269.468> 542 52<218.398 287.639> 580 20<411.73 447.5 664.612 728>
VStem: 123 56<46.1758 158.197> 152 51<443.9 527.719> 425 55<423.886 526.176> 542 71<3.73755 48.5625>
LayerCount: 2
Fore
SplineSet
432 600 m 1xd7
 463 582 480 536 480 500 c 0
 480 435 439 393 407 361 c 2
 364 316 l 2
 350 301 340 283 333 262 c 1
 424 260 545 198 570 105 c 1
 573 134 584 186 588 208 c 2
 600 265 l 2
 603 284 606 299 608 311 c 2
 669 589 l 1
 728 589 l 1
 651 228 l 1
 619 63 l 2
 615 42 613 28 613 21 c 0
 613 7 611 0 600 0 c 2
 542 0 l 1
 539 136 433 213 324 220 c 1
 311 140 l 2
 296 63 286 -9 197 -9 c 0
 162 -9 123 6 123 68 c 0xdb
 123 176 203 246 283 261 c 1
 308 374 425 378 425 488 c 0
 425 508 417 533 415 538 c 1
 342 468 l 1
 296 524 l 2
 286 536 273 542 258 542 c 0
 224 542 203 506 203 475 c 0
 203 454 215 442 237 442 c 0
 244 442 259 444 274 455 c 2
 306 483 l 1
 318 466 l 1
 302 423 l 1
 275 401 250 390 225 390 c 0
 167 390 152 434 152 467 c 0
 152 537 207 594 268 594 c 0xe7
 304 594 336 561 357 526 c 1
 432 600 l 1xd7
179 86 m 0
 179 61 192 44 209 44 c 0
 255 44 247 109 274 217 c 1
 201 196 179 120 179 86 c 0
EndSplineSet
EndChar

StartChar: uni0E07
Encoding: 3591 3591 220
Width: 550
VWidth: 1473
Flags: W
HStem: -4 47<262.669 371.539> 542 53<419.123 504.181>
VStem: 123 445<365 498 365 498 365 365> 196 54<55 76.6917 76.6917 262.636> 351 55<462.294 528.155> 509 59<415.561 537.93>
LayerCount: 2
Fore
SplineSet
315 -4 m 0xe0
 246 -4 196 7 196 21 c 0xd0
 197 52 198 80 198 104 c 0
 198 220 184 270 124 361 c 0
 123 362 123 364 123 365 c 0xe0
 123 377 155 396 181 408 c 1
 218 364 250 267 250 91 c 0
 250 55 l 1
 253 48 287 43 318 43 c 256
 326 43 385 44 389 56 c 2
 418 153 l 1
 479 340 l 2
 506 427 509 475 509 490 c 0
 509 521 500 542 466 542 c 0
 437 542 406 520 406 487 c 0
 406 473 413 451 443 451 c 2
 488 451 l 1
 482 426 l 1
 432 399 l 1
 367 399 351 440 351 471 c 0xdc
 351 540 407 595 476 595 c 0
 550 595 568 546 568 498 c 0
 568 387 478 195 435 19 c 0
 429 -3 328 -4 315 -4 c 0xe0
EndSplineSet
EndChar

StartChar: uni0E08
Encoding: 3592 3592 221
Width: 601
VWidth: 1473
Flags: W
HStem: -9 47<358.205 440.44> 343 53<250.62 331.249> 545 52<354.383 507.079>
VStem: 183 55<263.263 328.94> 340 51<181.784 336.895> 551 61<386.62 504.072>
LayerCount: 2
Fore
SplineSet
293 14 m 0
 293 19 340 189 340 272 c 0
 340 324 323 343 298 343 c 0
 269 343 238 321 238 289 c 0
 238 273 246 252 275 252 c 2
 320 252 l 1
 314 227 l 1
 264 200 l 1
 263 200 l 2
 216 200 183 227 183 273 c 0
 183 339 238 396 309 396 c 0
 373 396 391 353 391 287 c 0
 391 240 380 166 352 49 c 0
 350 40 382 38 396 38 c 0
 404 38 447 39 451 50 c 0
 492 242 551 386 551 445 c 0
 551 525 470 545 430 545 c 0
 386 545 310 541 211 448 c 0
 194 431 166 470 161 479 c 1
 198 520 329 597 433 597 c 0
 522 597 612 560 612 460 c 0
 612 425 599 369 571 284 c 2
 550 218 l 2
 537 180 531 161 522 122 c 2
 510 78 l 2
 492 7 503 3 461 -4 c 0
 440 -7 417 -9 392 -9 c 256
 368 -9 293 -4 293 14 c 0
EndSplineSet
EndChar

StartChar: uni0E09
Encoding: 3593 3593 222
Width: 642
VWidth: 1473
Flags: W
HStem: -4 53<480.306 560.006> 183 47<411.664 515.86> 320 50<200.866 279.71> 545 52<391.43 550.989>
VStem: 132 53<230.099 290.313> 285 52<246.875 266.75 256.812 316.71> 417 54<51.4952 136.38> 575 54<63.7882 155.888> 598 60<412.768 503.561>
LayerCount: 2
Fore
SplineSet
629 128 m 0xff
 629 78 604 -4 499 -4 c 256
 461 -4 417 10 417 64 c 0
 417 132 458 160 486 181 c 1
 482 182 477 183 471 183 c 0
 407 183 297 89 275 0 c 1
 221 0 l 2
 191 0 236 37 271 194 c 2
 281 245 l 2
 284 255 285 265 285 273 c 0
 285 301 272 320 249 320 c 0
 197 320 185 275 185 255 c 0
 185 239 192 220 222 220 c 2
 262 220 l 1
 258 196 l 1
 212 168 l 1
 148 168 132 215 132 243 c 0
 132 309 183 370 259 370 c 0
 325 370 341 325 341 288 c 0
 341 277 340 267 337 256 c 2
 337 222 291 97 286 85 c 1
 352 206 454 230 494 230 c 0
 516 230 536 226 550 221 c 1
 556 232 563 258 566 273 c 2
 594 408 l 2
 597 421 598 433 598 444 c 0
 598 527 509 545 467 545 c 0
 426 545 348 540 249 448 c 0
 234 435 213 458 199 479 c 1
 235 517 362 597 471 597 c 0
 563 597 658 559 658 455 c 0xfe80
 658 441 657 425 653 408 c 2
 625 273 l 2
 621 252 604 220 586 205 c 1
 625 180 629 145 629 128 c 0xff
471 80 m 0
 471 55 489 49 511 49 c 256
 558 49 575 86 575 116 c 0xff
 575 139 560 157 530 169 c 1
 511 158 471 133 471 80 c 0
EndSplineSet
EndChar

StartChar: uni0E0A
Encoding: 3594 3594 223
Width: 587
VWidth: 1473
Flags: W
HStem: -9 52<243.376 442.796> 379 53<205.141 275.382> 544 48<244.248 370.829>
VStem: 147 55<443.154 507.2> 160 60<66.459 134.974> 382 53<437.112 531.842> 536 61<337.55 351 354 363.36 363.36 365.556 364.458 435.699>
LayerCount: 2
Fore
SplineSet
476 436 m 0xee
 468 436 457 457 457 467 c 0
 457 486 509 463 579 544 c 0
 602 570 623 603 633 625 c 1
 639 623 645 620 650 616 c 2
 664 606 l 2
 671 602 679 593 679 585 c 1
 674 575 614 504 552 466 c 1
 561 459 601 433 601 383 c 0
 601 374 599 364 597 354 c 2
 557 166 l 2
 544 106 510 -9 323 -9 c 0
 184 -9 160 58 160 103 c 0xee
 160 115 162 127 165 141 c 2
 180 214 l 2
 198 299 258 307 340 384 c 0
 369 411 382 455 382 485 c 0
 382 530 356 544 301 544 c 0
 279 544 259 541 240 534 c 0
 207 522 202 480 202 470 c 0
 202 455 209 432 236 432 c 0
 255 432 278 444 284 477 c 2
 295 520 l 1
 320 520 l 1
 336 477 l 1
 326 428 291 379 224 379 c 256
 163 379 147 425 147 456 c 0xf6
 147 523 206 592 317 592 c 0
 421 592 435 528 435 493 c 0
 435 468 422 404 390 366 c 0
 370 344 351 326 330 312 c 2
 273 271 l 2
 256 258 244 239 239 214 c 2
 222 137 l 2
 221 129 220 121 220 114 c 0
 220 72 249 43 336 43 c 0
 499 43 485 115 508 214 c 0
 511 229 515 248 520 270 c 2
 536 351 l 258
 539 364 541 376 541 386 c 0
 541 426 514 443 504 443 c 0
 487 443 493 436 476 436 c 0xee
EndSplineSet
EndChar

StartChar: uni0E0B
Encoding: 3595 3595 224
Width: 608
VWidth: 1473
Flags: W
HStem: -9 52<245.208 429.094> 390 52<197.675 241.11> 542 52<211.521 284.484>
VStem: 144 52<443.5 528.057> 167 58<63.2957 130.512> 410 48<469.071 530.461> 561 60<354.733 436.048>
LayerCount: 2
Fore
SplineSet
230 442 m 0xf6
 241 442 257 449 286 473 c 1
 296 455 l 1
 280 421 l 1
 258 400 237 390 218 390 c 0
 159 390 144 432 144 467 c 0xf6
 144 532 196 594 261 594 c 0
 290 594 316 573 334 526 c 1
 414 600 l 1
 439 586 458 547 458 503 c 0
 458 474 445 410 410 374 c 0
 329 291 263 295 246 214 c 2
 228 130 l 2
 226 122 225 114 225 107 c 0
 225 56 275 43 348 43 c 0
 393 43 429 49 458 62 c 0
 510 84 511 136 528 214 c 2
 557 351 l 258
 560 364 561 375 561 385 c 0
 561 426 535 443 524 443 c 0
 511 443 513 436 496 436 c 0
 489 436 477 455 477 467 c 0
 477 488 545 456 629 582 c 0
 639 596 647 610 654 625 c 1
 661 623 700 601 700 585 c 1
 699 582 637 505 573 466 c 1
 590 452 l 2
 604 439 621 416 621 384 c 0
 621 375 620 365 617 354 c 2
 577 166 l 2
 564 101 535 56 492 30 c 0
 449 4 396 -9 334 -9 c 0
 214 -9 167 33 167 97 c 0xee
 167 108 168 120 171 134 c 2
 187 214 l 2
 214 351 375 334 407 466 c 0
 409 477 410 487 410 496 c 0
 410 517 404 533 399 539 c 1
 320 468 l 1
 283 513 283 542 250 542 c 0
 214 542 196 503 196 475 c 0
 196 454 208 442 230 442 c 0xf6
EndSplineSet
EndChar

StartChar: uni0E0C
Encoding: 3596 3596 225
Width: 934
VWidth: 1473
Flags: W
HStem: -9 52<180.723 260.734 457.249 514.562> 220 42<607 688.701> 392 47<266.024 335.897> 547 51<328.658 544.597>
VStem: 118 58<46.3661 113.093> 278 55<60.8345 137.033> 397 56<46.122 157.477> 580 59<403.826 512.817> 784 70<3.3012 48.5625>
LayerCount: 2
Fore
SplineSet
471 -9 m 0
 412 -9 397 30 397 68 c 0
 397 154 454 240 552 259 c 1
 562 302 564 329 566 346 c 2
 570 367 l 2
 576 397 580 423 580 444 c 0
 580 526 530 547 440 547 c 0
 351 547 227 494 224 473 c 1
 220 463 254 420 265 420 c 0
 287 420 299 439 321 439 c 0
 333 439 347 392 331 392 c 0
 264 392 233 364 211 262 c 2
 180 113 l 2
 178 103 176 94 176 87 c 0
 176 59 191 43 214 43 c 0
 259 43 278 86 278 109 c 0
 278 126 271 150 240 150 c 2
 199 150 l 1
 205 174 l 1
 252 202 l 1
 316 202 333 151 333 121 c 0
 333 55 272 -9 202 -9 c 0
 162 -9 118 8 118 78 c 0
 118 94 120 112 125 133 c 2
 152 262 l 2
 166 329 183 358 227 395 c 1
 204 409 162 447 165 470 c 0
 173 503 306 598 452 598 c 0
 565 598 639 562 639 450 c 0
 639 426 636 399 629 367 c 2
 607 262 l 1
 685 258 787 220 812 105 c 1
 813 116 815 131 818 150 c 2
 830 208 l 2
 838 251 845 281 850 311 c 2
 910 589 l 1
 969 589 l 1
 892 228 l 2
 886 195 879 164 874 136 c 2
 860 63 l 2
 856 42 854 28 854 21 c 0
 854 4 851 0 841 0 c 2
 784 0 l 1
 780 126 721 209 600 220 c 1
 585 140 l 2
 570 63 560 -9 471 -9 c 0
453 86 m 0
 453 61 466 44 483 44 c 0
 502 44 513 53 518 72 c 2
 532 136 l 2
 537 152 537 168 545 217 c 1
 472 196 453 116 453 86 c 0
EndSplineSet
EndChar

StartChar: uni0E0D
Encoding: 3597 3597 226
Width: 957
VWidth: 1473
Flags: W
HStem: -262 44<527.33 722.766> -109 49<526.041 586.221> -9 52<180.723 260.734 587.992 790.923> 392 47<266.024 335.897> 547 51<318.088 528.6>
VStem: 118 58<46.3661 99.7637 97.3612 102.166 102.166 113 113 129.823> 278 55<60.8345 137.033> 467 50<-204.584 -129.154> 506 56<67.4962 143.142> 565 59<360.389 513.346> 793 57<-178.101 -71>
LayerCount: 2
Fore
SplineSet
278 109 m 0xfee0
 278 126 271 150 240 150 c 2
 199 150 l 1
 205 174 l 1
 252 202 l 1
 316 202 333 151 333 121 c 0
 333 55 272 -9 202 -9 c 0
 162 -9 118 8 118 78 c 0
 118 94 120 112 125 133 c 2
 152 262 l 2
 166 329 183 358 227 395 c 1
 204 409 162 447 165 470 c 0
 173 506 296 598 438 598 c 0
 551 598 624 562 624 450 c 0
 624 396 611 356 595 286 c 2
 580 226 l 2
 568 171 562 137 562 115 c 0
 562 72 594 43 685 43 c 0
 839 43 849 121 870 238 c 2
 885 320 l 1
 943 589 l 1
 1002 589 l 1
 918 194 l 2
 905 133 893 86 854 52 c 0
 829 30 783 -9 673 -9 c 256
 583 -9 543 15 519 52 c 0
 511 64 506 80 506 99 c 0
 506 118 512 156 520 194 c 2
 555 367 l 2
 561 397 565 423 565 444 c 0
 565 524 518 547 426 547 c 0
 331 547 227 492 224 473 c 1
 220 463 254 420 265 420 c 0
 287 420 299 439 321 439 c 0
 333 439 347 392 331 392 c 0
 264 392 233 364 211 262 c 2
 180 113 l 2
 178 103 176 94 176 87 c 0
 176 59 191 43 214 43 c 0
 259 43 278 86 278 109 c 0xfee0
617 -218 m 0
 721 -218 768 -188 793 -71 c 1
 850 -71 l 1
 823 -198 759 -262 611 -262 c 0
 490 -262 467 -209 467 -173 c 0
 467 -114 514 -60 573 -60 c 0
 609 -60 636 -80 636 -118 c 0
 636 -126 634 -136 632 -146 c 1
 600 -189 l 1
 576 -189 l 1
 585 -146 l 2
 590 -121 582 -109 563 -109 c 0
 522 -109 517 -150 517 -167 c 0xff60
 517 -205 549 -218 617 -218 c 0
EndSplineSet
Substitution2: "Single Substitution lookup 27 subtable" uni0E0D.alt1
Substitution2: "Single Substitution lookup 27 subtable" uni0E0D.alt1
EndChar

StartChar: uni0E0E
Encoding: 3598 3598 227
Width: 673
VWidth: 1473
Flags: W
HStem: -253 45<198.331 277.795> -127 45<203.969 315.56> -9 52<109.686 194.069> 147 49<120.449 171> 392 47<313.024 383.182> 547 51<365.724 575.432>
VStem: 53 53<47.1565 118.107> 144 46<-206.332 -142.316> 220 54<70.511 206.023 206.023 278.979> 612 59<401.793 513.482>
LayerCount: 2
Fore
SplineSet
219 -253 m 0
 153.691 -253 144 -211.577 144 -189 c 0
 144 -125 207 -82 278 -82 c 0
 316 -82 351 -91 377 -103 c 1
 382.577 -93.8746 394.28 -75.16 401 -55 c 1
 418 -59 445 -70 442 -82 c 1
 440 -86 435 -101 418 -124 c 1
 446 -142 470 -167 486 -193 c 1
 491 -164 500 -120 516 -46 c 2
 603 367 l 2
 609 397 612 422 612 443 c 0
 612 512 581 547 473 547 c 0
 379 547 277 493 271 473 c 0
 268 460 301 420 312 420 c 0
 334 420 346 439 368 439 c 0
 380 439 395 392 379 392 c 0
 310 392 294 358 281 299 c 0
 274 268 274 241 274 194 c 2
 274 145 l 2
 274 50 219 -9 137 -9 c 0
 86 -9 53 24 53 70 c 0
 53 120.4 94.88 196 171 196 c 1
 199 171 l 1
 194 147 l 1
 161 147 l 2
 114 147 106 93 106 81 c 0
 106 56 123 43 149 43 c 0
 206 43 220 109 220 158 c 0
 220 197 218 216 218 254 c 0
 218 330 244 360 277 393 c 1
 270 398 209 445 212 470 c 0
 220 506 343 598 485 598 c 0
 598 598 671 562 671 450 c 0
 671 426 668 399 661 367 c 2
 530 -250 l 1
 470 -250 l 1
 462 -229 437 -191 387 -161 c 1
 368 -183 344 -204 316 -224 c 0
 288 -243 255 -253 219 -253 c 0
190 -184 m 0
 190 -203 208 -208 225 -208 c 0
 252 -208 300 -202 349 -141 c 1
 321 -130 297 -127 274 -127 c 0
 201 -127 190 -161 190 -184 c 0
EndSplineSet
Substitution2: "Single Substitution lookup 27 subtable" uni0E0E.alt1
Substitution2: "Single Substitution lookup 27 subtable" uni0E0E.alt1
EndChar

StartChar: uni0E0F
Encoding: 3599 3599 228
Width: 673
VWidth: 1473
Flags: W
HStem: -259 45<152.349 242.833> -131 46<161.125 242.35> -9 52<109.686 194.069> 147 49<120.5 171> 392 47<313.024 383.182> 547 51<365.724 575.432>
VStem: 53 53<47.1565 118.02> 104 47<-212.784 -153.882> 220 54<70.511 206.023 206.023 278.979> 612 59<401.793 513.482>
LayerCount: 2
Fore
SplineSet
53 70 m 0xfec0
 53 120 95 196 171 196 c 1
 199 171 l 1
 194 147 l 1
 161 147 l 2
 114 147 106 93 106 81 c 0xfec0
 106 56 123 43 149 43 c 0
 206 43 220 109 220 158 c 0
 220 197 218 216 218 254 c 0
 218 330 244 360 277 393 c 1
 270 398 209 445 212 470 c 0
 220 506 343 598 485 598 c 0
 598 598 671 562 671 450 c 0
 671 426 668 399 661 367 c 2
 526 -265 l 1
 463 -265 l 1
 404 -206 l 1
 323 -262 l 1
 281 -206 l 1
 248 -241 214 -259 169 -259 c 0
 117 -259 104 -217 104 -194 c 0xfdc0
 104 -155 138 -85 206 -85 c 0
 232 -85 254 -92 286 -130 c 1
 299 -105 309 -70 311 -63 c 1
 315 -63 353 -68 352 -82 c 0
 350 -99 336 -121 309 -161 c 1
 340 -202 l 1
 412 -153 l 1
 482 -212 l 1
 548 112 l 1
 603 367 l 2
 609 397 612 422 612 443 c 0
 612 512 581 547 473 547 c 0
 379 547 277 493 271 473 c 0
 268 460 301 420 312 420 c 0
 334 420 346 439 368 439 c 0
 380 439 395 392 379 392 c 0
 310 392 294 358 281 299 c 0
 274 268 274 241 274 194 c 2
 274 145 l 2
 274 50 219 -9 137 -9 c 0
 86 -9 53 24 53 70 c 0xfec0
200 -131 m 256
 161 -131 151 -170 151 -187 c 0xfdc0
 151 -205 162 -214 184 -214 c 0
 229 -214 249 -187 259 -174 c 1
 239 -145 224 -131 200 -131 c 256
EndSplineSet
Substitution2: "Single Substitution lookup 27 subtable" uni0E0F.alt1
Substitution2: "Single Substitution lookup 27 subtable" uni0E0F.alt1
EndChar

StartChar: uni0E10
Encoding: 3600 3600 229
Width: 602
VWidth: 1473
Flags: W
HStem: -290 41<79.8532 148.138> -174 43<86.9433 165.452> -100 41<376.457 435.376> -4 42<351.937 430.087> 255 53<229.948 316.768> 371 53<227.209 409.107> 383 53<249.74 495.6> 520 59<430.252 602.839> 538 51<252.085 364.474>
VStem: 37 42<-248.513 -193.412> 162 55<174.618 240.91> 173 54<424.817 488.703> 323 51<80.5105 248.794> 331 39<-156.634 -116.196> 437 50<-163.742 -100.799> 515 61<300.861 363.186>
LayerCount: 2
Fore
SplineSet
79 -225 m 0xf843
 79 -241 89 -249 107 -249 c 0
 127 -249 152 -246 178 -211 c 1
 161 -187 143 -174 123 -174 c 0
 88 -174 79 -209 79 -225 c 0xf843
515 323 m 0
 515 357 492 383 387 383 c 0xfa6b
 315 383 277 371 229 371 c 0
 195 371 173 384 173 429 c 0
 173 500 217 589 324 589 c 0xfcdb
 359 589 437 579 498 579 c 0
 553 579 605 591 648 603 c 1
 652.5 571.503 654 567 654 558 c 0
 654 534 644 532 574 524 c 0
 545 522 516 520 488 520 c 0xf95b
 444 520 331 538 315 538 c 0
 267 538 241 521 230 467 c 0
 228 458 227 450 227 444 c 0
 227 430 232 424 265 424 c 256xfcdb
 335 424 343 436 439 436 c 0
 554 436 576 376 576 337 c 0
 576 321 573 303 558 256 c 2
 482 18 l 2
 477 -3 406 -4 386 -4 c 0
 368 -4 286 -3 286 17 c 0
 286 24 323 154 323 203 c 0
 323 245 301 255 275 255 c 0
 244 255 217 229 217 199 c 0
 217 185 224 164 253 164 c 2
 298 164 l 1
 292 138 l 1
 243 112 l 1
 196 112 162 137 162 183 c 0
 162 246 212 308 287 308 c 0
 339 308 374 285 374 212 c 0xfa6b
 374 151 345 54 345 48 c 0
 345 41 377 38 390 38 c 256
 403 38 437 40 440 50 c 2
 480 182 l 2
 502 251 515 295 515 323 c 0
437 -132 m 0
 437 -108 427 -100 411 -100 c 0
 382 -100 370 -127 370 -143 c 0
 370 -150 373 -155 382 -164 c 2
 398 -178 l 1
 382 -194 l 1
 349 -189 l 1
 336 -175 331 -159 331 -145 c 0
 331 -101 372 -59 423 -59 c 0
 475 -59 487 -91 487 -121 c 0
 487 -179 441 -200 421 -289 c 1
 355 -289 l 1
 306 -255 l 1
 234 -292 l 1
 197 -242 l 1
 175 -264 145 -290 97 -290 c 0
 49 -290 37 -254 37 -233 c 0
 37 -202 62 -131 131 -131 c 0
 155 -131 177 -140 202 -174 c 1
 210 -162 217 -148 227 -106 c 1xf857
 227 -106 268 -109 268 -123 c 0
 268 -142.526 228.129 -198.183 224 -203 c 1
 252 -239 l 1
 315 -208 l 1
 380 -246 l 1
 393 -189 423 -200 436 -143 c 0
 437 -139 437 -135 437 -132 c 0
EndSplineSet
Substitution2: "Single Substitution lookup 27 subtable" uni0E10.alt1
Substitution2: "Single Substitution lookup 27 subtable" uni0E10.alt1
EndChar

StartChar: uni0E11
Encoding: 3601 3601 230
Width: 679
VWidth: 1473
Flags: W
HStem: 0 21G<152 212.308 539 602.24> 401 48<173.512 244.2> 533 61<561.701 635.408> 545 49<186.938 259.19>
VStem: 123 49<458.141 531.114> 638 59<450.49 467 467 479.907 479.907 504.049 491.978 531.998>
LayerCount: 2
Fore
SplineSet
205 449 m 0xdc
 223 449 241 465 258 479 c 1
 268 461 l 1
 253 430 l 1
 232 411 211 401 190 401 c 0
 136 401 123 443 123 470 c 0
 123 535 177 594 228 594 c 0xdc
 255 594 279 580 296 541 c 1
 362 600 l 1
 405 565 405 538 405 527 c 0
 405 509 396 464 374 436 c 0
 318 364 281 355 265 271 c 2
 239 168 l 1
 252 193 269 220 288 250 c 2
 350 343 l 2
 355 350 517 594 620 594 c 0
 689 594 704 566 704 524 c 0
 704 508 702 489 697 467 c 2
 598 0 l 1
 539 0 l 1
 638 467 l 2
 641 481 643 493 643 501 c 0
 643 533 624 533 607 533 c 0xec
 565 533 484 454 416 360 c 0
 347 265 279 158 278 156 c 2
 222 65 l 1
 208 0 l 1
 158 0 l 2
 146 0 146 7 150 21 c 1
 168 60 201 221 211 268 c 0
 220 314 237 350 288 400 c 2
 331 444 l 2
 348 460 372 502 349 547 c 1
 281 486 l 1
 255 535 247 545 224 545 c 0
 190 545 172 505 172 480 c 0
 172 468 179 449 205 449 c 0xdc
EndSplineSet
EndChar

StartChar: uni0E12
Encoding: 3602 3602 231
Width: 956
VWidth: 1473
Flags: W
HStem: -9 53<472.314 528.544> 220 47<623 711.695> 376 51<338.063 421.319> 578 20<319.5 378.323 523.692 579.5 928.612 991>
VStem: 137 59<176.333 352.16> 268 52<295.421 357.53> 412 56<46.2005 157.313> 425 53<284.352 372.659> 602 58<439.622 531.781> 806 71<4.26407 51.1517>
LayerCount: 2
Fore
SplineSet
386 376 m 0xfdc0
 346 376 320 339 320 314 c 0
 320 306 323 298 329 290 c 2
 349 262 l 1
 329 247 l 1
 284 253 l 1
 270 275 268 295 268 305 c 0
 268 365 327 427 395 427 c 0
 444 427 478 395 478 348 c 0xfdc0
 478 272 410 232 392 221 c 2
 321 174 l 2
 207 99 189 33 183 0 c 1
 125 0 l 2
 120 0 115 1 115 7 c 0
 115 29 154 86 180 115 c 0
 213 151 137 134 137 266 c 0
 137 314 155 433 216 510 c 0
 246 549 291 579 348 598 c 1
 442 536 l 1
 560 601 l 1
 599 595 660 576 660 478 c 0
 660 465 658 425 641 348 c 2
 623 267 l 1
 696 262 809 224 834 106 c 1
 865 291 865 270 872 311 c 2
 933 589 l 1
 991 589 l 1
 896 136 l 2
 894 124 877 44 877 21 c 0
 877 6 874 0 863 0 c 2
 806 0 l 1
 802 130 734 209 614 220 c 1
 600 140 l 2
 585 64 574 -9 486 -9 c 0
 427 -9 412 30 412 68 c 0xfec0
 412 158 475 244 569 264 c 1
 575 304 572 305 583 365 c 2
 597 435 l 2
 600 452 602 466 602 479 c 0
 602 520 584 537 545 547 c 1
 430 485 l 1
 342 545 l 1
 272 524 229 458 208 357 c 0
 200 320 196 291 196 268 c 0
 196 194 219 181 230 152 c 1
 242 164 270 187 299 208 c 2
 342 238 l 2
 368 256 425 281 425 337 c 0
 425 361 409 376 386 376 c 0xfdc0
468 88 m 0xfec0
 468 63 480 44 498 44 c 0
 536 44 535 92 547 136 c 0
 552 152 552 177 560 217 c 1
 488 197 468 122 468 88 c 0xfec0
EndSplineSet
EndChar

StartChar: uni0E13
Encoding: 3603 3603 232
Width: 939
VWidth: 1473
Flags: W
HStem: -9 52<182.077 259.767 767.378 848.416> 202 47<676.281 786.35> 392 47<266.024 335.897> 547 51<318.088 523.984>
VStem: 116 62<44.9784 95.899 88.3441 103.454 103.454 118 118 134.8> 278 55<61.1837 138.529> 552 59<365.248 520.238> 708 54<52.7423 144.213> 874 54<86.958 168.937>
LayerCount: 2
Fore
SplineSet
278 110 m 0
 278 127 271 152 240 152 c 2
 199 152 l 1
 205 175 l 1
 252 203 l 1
 301.625 203 333 168.175 333 121 c 0
 333 54 271 -9 200 -9 c 0
 133 -9 116 26 116 71 c 0
 116 85 118 100 122 118 c 2
 152 262 l 2
 166 329 183 358 227 395 c 1
 204 409 162 447 165 470 c 0
 173 506 296 598 438 598 c 0
 550 598 611 564 611 456 c 0
 611 431 607 401 600 367 c 2
 548 134 l 1
 618 218 715 249 766 249 c 0
 795.264 249 821.264 245.265 847 236 c 1
 851 243 855 255 859 273 c 2
 927 589 l 1
 986 589 l 1
 918 273 l 2
 913 253 901 235 882 220 c 1
 904 205 928 176 928 136 c 0
 928 98 912 46 875 22 c 0
 850 4 822 -4 793 -4 c 256
 745 -4 708 21 708 71 c 0
 708 135 746 170 787 199 c 1
 779 201 768 202 754 202 c 0
 663 202 541 102 522 0 c 1
 471 0 l 2
 450 0 468 4 519 262 c 0
 538 361 552 406 552 456 c 0
 552 529 509 547 426 547 c 0
 331 547 227 492 224 473 c 1
 220 463 254 420 265 420 c 0
 287 420 299 439 321 439 c 0
 333 439 347 392 331 392 c 0
 264 392 233 364 211 262 c 2
 181 118 l 2
 179 107 178 98 178 89 c 0
 178 62 188 43 212 43 c 0
 255 43 278 82 278 110 c 0
804 49 m 0
 868 49 874 116 874 127 c 0
 874 161 845 176 826 184 c 1
 785 160 762 126 762 87 c 0
 762 62 776 49 804 49 c 0
EndSplineSet
EndChar

StartChar: uni0E14
Encoding: 3604 3604 233
Width: 626
VWidth: 1473
Flags: W
HStem: 0 21G<122.5 186 485 548.298> 376 51<352.749 435.944> 547 51<328.15 536.959>
VStem: 137 59<175.995 309.758> 282 53<284.107 356.963> 440 53<284.31 371.6> 573 59<406.376 511.101>
LayerCount: 2
Fore
SplineSet
125 0 m 2
 120 0 115 1 115 7 c 0
 115 29 154 86 180 115 c 0
 186 121 188 126 188 130 c 0
 188 150 137 158 137 266 c 0
 137 290 141 320 149 357 c 0
 187 529 316 598 436 598 c 0
 553 598 632 571 632 460 c 0
 632 428 628 391 619 348 c 2
 544 -1 l 1
 485 -1 l 1
 557 333 l 2
 571 401 573 437 573 448 c 0
 573 527 519 547 424 547 c 0
 383 547 245 537 208 357 c 0
 200 320 196 291 196 268 c 0
 196 194 219 181 230 152 c 1
 236 158 246 166 261 176 c 0
 379 259 440 274 440 336 c 0
 440 360 424 376 401 376 c 0
 364 376 335 343 335 313 c 0
 335 305 337 297 343 290 c 2
 364 262 l 1
 343 247 l 1
 299 253 l 1
 296 257 282 274 282 305 c 0
 282 362 341 427 410 427 c 0
 458 427 493 395 493 348 c 0
 493 272 425 232 407 221 c 2
 334 174 l 2
 208 96 189 31 183 0 c 1
 125 0 l 2
EndSplineSet
EndChar

StartChar: uni0E15
Encoding: 3605 3605 234
Width: 640
VWidth: 1473
Flags: W
HStem: 0 21G<122.5 186 501 564.195> 376 51<352.749 435.944> 581 20G<319.5 377.032 512.077 582>
VStem: 137 59<175.995 352.16> 282 53<284.107 356.963> 440 53<284.31 371.6> 593 57<426.606 527.291>
LayerCount: 2
Fore
SplineSet
545 601 m 1
 619 589 650 546 650 472 c 0
 650 439 643 395 633 348 c 2
 560 0 l 1
 501 0 l 1
 577 365 l 2
 589 416 593 448 593 469 c 0
 593 516 573 535 530 547 c 1
 426 485 l 1
 342 545 l 1
 272 524 229 458 208 357 c 0
 200 320 196 291 196 268 c 0
 196 194 219 181 230 152 c 1
 236 158 246 166 261 176 c 0
 379 259 440 274 440 336 c 0
 440 360 424 376 401 376 c 0
 364 376 335 343 335 313 c 0
 335 305 337 297 343 290 c 2
 364 262 l 1
 343 247 l 1
 299 253 l 1
 296 257 282 274 282 305 c 0
 282 362 341 427 410 427 c 0
 458 427 493 395 493 348 c 0
 493 272 425 232 407 221 c 2
 334 174 l 2
 208 96 189 31 183 0 c 1
 125 0 l 2
 120 0 115 1 115 7 c 0
 115 29 154 86 180 115 c 0
 186 121 188 126 188 130 c 0
 188 150 137 158 137 266 c 0
 137 314 155 433 216 510 c 0
 246 549 291 579 348 598 c 1
 438 536 l 1
 545 601 l 1
EndSplineSet
EndChar

StartChar: uni0E16
Encoding: 3606 3606 235
Width: 618
VWidth: 1473
Flags: W
HStem: -9 52<180.723 260.734> 392 47<266.024 335.897> 547 51<318.088 528.6>
VStem: 118 58<46.3661 99.7637 97.3612 102.166 102.166 113 113 129.823> 278 55<60.8345 137.033> 565 59<403.826 513.346>
LayerCount: 2
Fore
SplineSet
278 109 m 0
 278 126 271 150 240 150 c 2
 199 150 l 1
 205 174 l 1
 252 202 l 1
 316 202 333 151 333 121 c 0
 333 55 272 -9 202 -9 c 0
 162 -9 118 8 118 78 c 0
 118 94 120 112 125 133 c 2
 152 262 l 2
 166 329 183 358 227 395 c 1
 204 409 162 447 165 470 c 0
 173 506 296 598 438 598 c 0
 551 598 624 562 624 450 c 0
 624 426 621 399 614 367 c 2
 538 0 l 1
 479 0 l 1
 555 367 l 2
 561 397 565 423 565 444 c 0
 565 524 518 547 426 547 c 0
 331 547 227 492 224 473 c 1
 220 463 254 420 265 420 c 0
 287 420 299 439 321 439 c 0
 333 439 347 392 331 392 c 0
 264 392 233 364 211 262 c 2
 180 113 l 2
 178 103 176 94 176 87 c 0
 176 59 191 43 214 43 c 0
 259 43 278 86 278 109 c 0
EndSplineSet
EndChar

StartChar: uni0E17
Encoding: 3607 3607 236
Width: 704
VWidth: 1473
Flags: W
HStem: 0 21G<177 238.455 564 627.213> 548 52<226.342 308.053 577.249 657.752>
VStem: 153 53<441.101 527.969> 312 60<457.126 545.476> 663 59<453.384 470 470 482.523 482.523 497.804 490.164 536.934>
LayerCount: 2
Fore
SplineSet
206 475 m 0
 206 446 224 439 240 439 c 2
 273 439 l 1
 267 415 l 1
 227 389 l 1
 167 389 153 434 153 465 c 0
 153 544 222 600 286 600 c 0
 355 600 372 557 372 521 c 0
 372 443 335 434 303 323 c 2
 267 186 l 1
 291 238 392 458 533 558 c 0
 566 582 598 594 629 594 c 0
 676 594 728 578 728 514 c 0
 728 501 726 487 722 470 c 2
 623 0 l 1
 564 0 l 1
 663 470 l 2
 665 479 666 487 666 495 c 0
 666 525 651 542 625 542 c 0
 514 542 293 221 239 22 c 2
 233 0 l 1
 183 0 l 2
 171 0 171 7 175 21 c 1
 185 42 204 124 207 136 c 0
 256 341 244 337 282 416 c 2
 298 448 l 2
 307 465 312 487 312 508 c 0
 312 535 299 548 275 548 c 0
 233 548 206 511 206 475 c 0
EndSplineSet
EndChar

StartChar: uni0E18
Encoding: 3608 3608 237
Width: 614
VWidth: 1473
Flags: W
HStem: -9 52<202.517 423.551> 517 59<372.148 588.099> 535 54<252.546 353.832>
VStem: 120 56<68.3322 143.332> 156 56<287.341 301 406.983 496.378> 509 60<242 266.523 266.523 273.046 269.785 314.056>
LayerCount: 2
Fore
SplineSet
176 115 m 0xb4
 176 72 209 43 309 43 c 256
 406 43 460 73 474 118 c 2
 488 169 l 1
 507 258 l 2
 508 264 509 270 509 275 c 0
 509 382 208 330 174 368 c 0
 161 382 156 396 156 415 c 0
 156 499 213 589 321 589 c 0xac
 349 589 437 576 495 576 c 0
 555 576 610 590 645 603 c 1
 649 572 651 567 651 558 c 0
 651 534 641 532 570 523 c 0
 539 519 510 517 482 517 c 0xcc
 425 517 330 535 312 535 c 0
 258 535 214 492 214 430 c 0
 214 391 263 412 421 396 c 0
 505 388 569 353 569 288 c 0
 569 279 568 269 566 258 c 2
 552 194 l 2
 539 125 517 -9 298 -9 c 0
 224 -9 120 10 120 99 c 0xb4
 120 118 126 156 134 194 c 2
 156 305 l 1
 212 301 l 1xac
 207 276 203 256 199 240 c 2
 186 187 l 2
 180 159 176 133 176 115 c 0xb4
EndSplineSet
EndChar

StartChar: uni0E19
Encoding: 3609 3609 238
Width: 671
VWidth: 1473
Flags: W
HStem: -4 53<495.055 583.581> 200 49<400.364 516.131> 548 52<226.342 308.053>
VStem: 153 53<441.101 527.969> 312 60<481.985 545.476> 438 54<53.0731 144.087> 605 54<85.848 168.793>
LayerCount: 2
Fore
SplineSet
659 134 m 0
 659 59 607 -4 523 -4 c 256
 475 -4 438 22 438 71 c 0
 438 134 476 171 517 196 c 1
 510 199 500 200 485 200 c 0
 384 200 257 95 237 0 c 1
 187 0 l 2
 166 0 182 11 209 136 c 2
 249 327 l 2
 253 345 257 365 282 416 c 2
 298 448 l 2
 307 465 312 487 312 508 c 0
 312 535 299 548 275 548 c 0
 233 548 206 511 206 475 c 0
 206 446 224 439 240 439 c 2
 273 439 l 1
 267 415 l 1
 227 389 l 1
 167 389 153 434 153 465 c 0
 153 544 222 600 286 600 c 0
 355 600 372 557 372 521 c 0
 372 497 367 470 357 452 c 2
 340 418 l 2
 326 391 313 362 303 323 c 2
 264 134 l 1
 324 207 433 249 498 249 c 0
 527 249 553 245 577 236 c 1
 581 243 585 255 589 273 c 2
 657 589 l 1
 716 589 l 1
 648 273 l 2
 643 253 632 235 613 220 c 1
 624 213 659 186 659 134 c 0
535 49 m 0
 594 49 605 108 605 125 c 0
 605 152 589 171 557 184 c 1
 515 160 492 126 492 88 c 0
 492 62 507 49 535 49 c 0
EndSplineSet
EndChar

StartChar: uni0E1A
Encoding: 3610 3610 239
Width: 699
VWidth: 1473
Flags: W
HStem: -9 52<321.347 485.237> 548 52<226.58 308.053>
VStem: 153 54<450.716 528.846> 208 55<68.724 144.862> 312 60<481.985 545.476>
LayerCount: 2
Fore
SplineSet
207 477 m 0
 207 462 214 439 243 439 c 2
 277 439 l 1
 271 415 l 1
 231 387 l 1
 168 387 153 439 153 466 c 0
 153 544 222 600 286 600 c 0
 355 600 372 557 372 521 c 0
 372 497 367 470 357 452 c 2
 340 418 l 2
 302 345 302 311 288 252 c 2
 273 187 l 2
 267 159 263 133 263 115 c 0
 263 90 269 66 322 52 c 0
 348 46 376 43 407 43 c 256
 576 43 585 115 598 169 c 0
 607 208 609 234 620 290 c 2
 685 589 l 1
 744 589 l 1
 660 194 l 2
 636 83 607 10 440 -6 c 0
 424 -8 408 -9 395 -9 c 0
 306 -9 208 13 208 99 c 0
 208 118 213 156 221 194 c 2
 249 327 l 2
 253 345 257 365 282 416 c 2
 298 448 l 2
 307 465 312 487 312 508 c 0
 312 535 299 548 275 548 c 0
 233 548 207 511 207 477 c 0
EndSplineSet
EndChar

StartChar: uni0E1B
Encoding: 3611 3611 240
Width: 699
VWidth: 1473
Flags: W
HStem: -9 52<321.347 485.237> 547 51<226.659 307.519>
VStem: 152 54<450.137 526.094> 208 55<68.724 144.862> 312 60<481.834 543.002>
LayerCount: 2
Fore
SplineSet
206 477 m 0
 206 461 214 438 243 438 c 2
 277 438 l 1
 271 414 l 1
 231 386 l 1
 182 386 152 421 152 468 c 0
 152 536 217 598 286 598 c 0
 355 598 372 556 372 520 c 0
 372 496 367 469 357 450 c 2
 340 416 l 2
 301 341 304 319 288 252 c 2
 273 187 l 2
 267 159 263 133 263 115 c 0
 263 90 269 66 322 52 c 0
 348 46 376 43 407 43 c 256
 576 43 585 115 598 169 c 0
 607 208 609 234 620 290 c 2
 729 801 l 1
 788 801 l 1
 660 194 l 2
 636 83 607 10 440 -6 c 0
 424 -8 408 -9 395 -9 c 0
 306 -9 208 13 208 99 c 0
 208 118 213 156 221 194 c 2
 249 327 l 2
 253 345 257 365 282 416 c 2
 298 448 l 2
 305 464 312 484 312 505 c 0
 312 531 297 547 274 547 c 0
 231 547 206 506 206 477 c 0
EndSplineSet
EndChar

StartChar: uni0E1C
Encoding: 3612 3612 241
Width: 639
VWidth: 1473
Flags: W
HStem: 0 21G<83 143 492 552.5> 387 52<275 329.37> 548 52<262.005 343.247>
VStem: 348 53<457.596 534.336> 497 63<15.3281 106.795>
LayerCount: 2
Fore
SplineSet
315 600 m 0
 380 600 401 549 401 517 c 0
 401 452 344 387 275 387 c 1
 240 415 l 1
 246 439 l 1
 287 439 l 2
 326 439 348 481 348 508 c 0
 348 524 339 548 305 548 c 0
 269 548 235 508 228 442 c 0
 228 432 226 421 224 410 c 2
 218 371 l 2
 211 321 206 311 196 272 c 2
 170 163 l 2
 166 146 163 132 161 122 c 1
 221 197 322 265 383 302 c 1
 432 265 502 195 524 115 c 1
 536 161 545 253 554 290 c 2
 619 589 l 1
 678 589 l 1
 594 194 l 2
 582 145 566 66 560 21 c 0
 560 7 558 0 547 0 c 2
 492 0 l 1
 495 15 l 2
 496 22 497 29 497 36 c 0
 497 120 382 234 371 245 c 1
 220 143 154 68 143 15 c 2
 140 0 l 1
 85 0 l 2
 81 0 76 2 76 8 c 0
 76 30 90 33 108 116 c 2
 149 317 l 2
 164 386 160 387 168 434 c 2
 175 473 l 2
 191 554 245 600 315 600 c 0
EndSplineSet
EndChar

StartChar: uni0E1D
Encoding: 3613 3613 242
Width: 639
VWidth: 1473
Flags: W
HStem: 0 21G<83 143 492 552.5> 387 52<275 329.37> 548 52<262.005 343.247>
VStem: 348 53<457.596 534.336> 497 63<15.3281 106.795>
LayerCount: 2
Fore
SplineSet
315 600 m 0
 380 600 401 549 401 517 c 0
 401 452 344 387 275 387 c 1
 240 415 l 1
 246 439 l 1
 287 439 l 2
 326 439 348 481 348 508 c 0
 348 524 339 548 305 548 c 0
 269 548 235 508 228 442 c 0
 228 432 226 421 224 410 c 2
 218 371 l 2
 211 321 206 311 196 272 c 2
 170 163 l 2
 166 146 163 132 161 122 c 1
 221 197 322 265 383 302 c 1
 432 265 502 195 524 115 c 1
 536 161 545 253 554 290 c 2
 663 801 l 1
 722 801 l 1
 594 194 l 2
 582 145 566 66 560 21 c 0
 560 7 558 0 547 0 c 2
 492 0 l 1
 495 15 l 2
 496 22 497 29 497 36 c 0
 497 120 382 234 371 245 c 1
 220 143 154 68 143 15 c 2
 140 0 l 1
 85 0 l 2
 81 0 76 2 76 8 c 0
 76 30 90 33 108 116 c 2
 149 317 l 2
 164 386 160 387 168 434 c 2
 175 473 l 2
 191 554 245 600 315 600 c 0
EndSplineSet
EndChar

StartChar: uni0E1E
Encoding: 3614 3614 243
Width: 735
VWidth: 1473
Flags: W
HStem: 0 21G<169 239 588 647.5> 548 52<226.58 308.053>
VStem: 153 54<450.716 528.846> 312 60<462.036 545.476> 594 62<15.3772 131.292>
LayerCount: 2
Fore
SplineSet
286 600 m 0
 355 600 372 557 372 521 c 0
 372 496 367 470 356 450 c 2
 338 410 l 2
 302 338 298 290 280 222 c 2
 269 180 l 2
 266 166 263 154 261 144 c 1
 347 318 493 505 532 552 c 1
 558 484 619 304 625 137 c 1
 636 182 637 229 650 290 c 2
 715 589 l 1
 773 589 l 1
 689 194 l 2
 678 142 661 56 656 21 c 1
 656 6 653 0 642 0 c 2
 588 0 l 1
 591 15 l 2
 593 23 594 34 594 46 c 0
 594 135 559 298 514 466 c 1
 383 275 l 2
 325 191 252 71 239 15 c 2
 236 0 l 1
 181 0 l 2
 157 0 183 10 221 194 c 2
 246 312 l 2
 268 416 312 439 312 508 c 0
 312 535 299 548 275 548 c 0
 233 548 207 511 207 477 c 0
 207 462 214 439 243 439 c 2
 277 439 l 1
 271 415 l 1
 231 387 l 1
 168 387 153 439 153 466 c 0
 153 544 222 600 286 600 c 0
EndSplineSet
EndChar

StartChar: uni0E1F
Encoding: 3615 3615 244
Width: 735
VWidth: 1473
Flags: W
HStem: 0 21G<169 239 588 647.5> 548 52<226.58 308.053>
VStem: 153 54<450.716 528.846> 312 60<462.036 545.476> 594 62<15.3772 131.292>
LayerCount: 2
Fore
SplineSet
286 600 m 0
 355 600 372 557 372 521 c 0
 372 496 367 470 356 450 c 2
 338 410 l 2
 302 338 298 290 280 222 c 2
 269 180 l 2
 266 166 263 154 261 144 c 1
 347 318 493 505 532 552 c 1
 558 484 619 304 625 137 c 1
 636 182 637 229 650 290 c 2
 759 801 l 1
 818 801 l 1
 689 194 l 2
 678 142 661 56 656 21 c 1
 656 6 653 0 642 0 c 2
 588 0 l 1
 591 15 l 2
 593 23 594 34 594 46 c 0
 594 135 559 298 514 466 c 1
 383 275 l 2
 325 191 252 71 239 15 c 2
 236 0 l 1
 181 0 l 2
 157 0 183 10 221 194 c 2
 246 312 l 2
 268 416 312 439 312 508 c 0
 312 535 299 548 275 548 c 0
 233 548 207 511 207 477 c 0
 207 462 214 439 243 439 c 2
 277 439 l 1
 271 415 l 1
 231 387 l 1
 168 387 153 439 153 466 c 0
 153 544 222 600 286 600 c 0
EndSplineSet
EndChar

StartChar: uni0E20
Encoding: 3616 3616 245
Width: 665
VWidth: 1473
Flags: W
HStem: -9 52<109.686 194.069> 147 49<122.188 171> 392 47<313.024 383.182> 547 51<365.724 575.432>
VStem: 53 53<47.1565 118.051> 220 54<70.511 206.023 206.023 278.979> 612 59<401.793 513.482>
LayerCount: 2
Fore
SplineSet
53 70 m 0
 53 126 100 196 170 196 c 2
 171 196 l 1
 199 171 l 1
 194 147 l 1
 161 147 l 2
 114 147 106 93 106 81 c 0
 106 56 123 43 149 43 c 0
 206 43 220 109 220 158 c 0
 220 197 218 216 218 254 c 0
 218 321 239 359 277 393 c 1
 270 398 209 445 212 470 c 0
 220 506 343 598 485 598 c 0
 598 598 671 562 671 450 c 0
 671 426 668 399 661 367 c 2
 585 0 l 1
 526 0 l 1
 603 367 l 2
 609 397 612 422 612 443 c 0
 612 512 581 547 473 547 c 0
 379 547 277 493 271 473 c 0
 268 460 301 420 312 420 c 0
 334 420 346 439 368 439 c 0
 380 439 395 392 379 392 c 0
 310 392 294 358 281 299 c 0
 274 268 274 241 274 194 c 2
 274 145 l 2
 274 50 219 -9 137 -9 c 0
 86 -9 53 24 53 70 c 0
EndSplineSet
EndChar

StartChar: uni0E21
Encoding: 3617 3617 246
Width: 671
VWidth: 1473
Flags: W
HStem: -9 53<163.052 219.514> 220 44<314 390.154> 548 52<248.797 331.483>
VStem: 103 56<46.1783 159.827> 175 53<441.101 526.233> 334 60<482.539 545.615> 522 70<3.3012 48.5625>
LayerCount: 2
Fore
SplineSet
228 475 m 0
 228 446 246 439 262 439 c 2
 295 439 l 1
 289 415 l 1
 249 389 l 1
 189 389 175 434 175 465 c 0
 175 544 244 600 308 600 c 0
 377 600 394 557 394 521 c 0
 394 496 389 470 378 450 c 2
 360 413 l 2
 345 385 332 355 324 314 c 2
 314 264 l 1
 456 264 527 166 550 105 c 1
 551 126 557 157 567 208 c 2
 579 265 l 2
 583 284 586 299 588 311 c 2
 648 589 l 1
 707 589 l 1
 630 228 l 2
 624 195 617 164 612 136 c 2
 598 63 l 2
 594 42 592 28 592 21 c 0
 592 4 589 0 579 0 c 2
 522 0 l 1
 517 135 417 212 305 220 c 1
 276 67 273 -9 177 -9 c 0
 142 -9 103 6 103 68 c 0
 103 182 187 245 258 259 c 1
 263 292 l 2
 270 341 286 378 302 411 c 2
 320 447 l 2
 331 469 334 496 334 508 c 0
 334 535 322 548 298 548 c 0
 257 548 228 513 228 475 c 0
159 87 m 0
 159 61 171 44 189 44 c 0
 228 44 230 92 250 217 c 1
 179 197 159 121 159 87 c 0
EndSplineSet
EndChar

StartChar: uni0E22
Encoding: 3618 3618 247
Width: 617
VWidth: 1473
Flags: W
HStem: -9 52<237.931 365.15> 268 53<325.653 369.875> 404 51<280 333.989> 547 53<258.349 343.758>
VStem: 119 58<69.5497 146.226> 167 58<360.86 481.752> 347 55<467.47 536.335>
LayerCount: 2
Fore
SplineSet
311 -9 m 0xfa
 156 -9 119 57 119 101 c 0xfa
 119 118 122 142 128 172 c 2
 134 200 l 2
 142 235 154 260 170 276 c 0
 186 293 200 304 212 311 c 1
 196 322 167 357 167 421 c 0
 167 503 221 600 324 600 c 0
 386 600 402 557 402 525 c 0
 402 459.728 349.896 404.011 280 404 c 1
 242 429 l 1
 247 455 l 1
 290 455 l 2
 328 455 347 486 347 510 c 0
 347 528 340 547 312 547 c 0
 247 547 239 495 228 454 c 0
 226 443 225 433 225 423 c 0xf6
 225 390 236 366 260 350 c 0
 290 331 333 321 386 321 c 0
 389 321 390 320 390 318 c 0
 390 308 352 268 343 268 c 0
 339 268 333 269 324 272 c 2
 271 286 l 2
 262 289 254 290 247 290 c 0
 229 290 202 261 193 214 c 2
 184 171 l 2
 179 148 177 130 177 118 c 0
 177 78 201 62 238 52 c 0
 264 46 292 43 323 43 c 256
 346 43 432 45 474 82 c 0
 512 118 507 149 536 290 c 2
 601 589 l 1
 660 589 l 1
 595 290 l 1
 579 208 l 2
 553 72 514 9 356 -6 c 0
 340 -8 324 -9 311 -9 c 0xfa
EndSplineSet
EndChar

StartChar: uni0E23
Encoding: 3619 3619 248
Width: 530
VWidth: 1473
Flags: W
HStem: -9 52<291.12 377.003> 153 52<304.391 359> 517 59<294.693 533.442> 535 54<232.313 384.802>
VStem: 135 57<398.661 491.802> 233 54<56.7268 120.192> 428 61<238.371 298.765>
LayerCount: 2
Fore
SplineSet
318 -9 m 0xde
 255 -9 233 41 233 72 c 0
 233 130 283 205 359 205 c 1
 393 177 l 1
 389 153 l 1
 349 153 l 2
 299 153 287 100 287 82 c 0
 287 67 296 43 330 43 c 0
 368 43 389 67 401 118 c 2
 426 237 l 2
 428 244 428 251 428 257 c 0
 428 304 379 324 314 328 c 2
 248 334 l 2
 170 339 135 342 135 407 c 0
 135 501 202 589 299 589 c 0xde
 334 589 383 576 448 576 c 0
 501 576 546 587 583 603 c 1
 587 572 589 567 589 558 c 0
 589 534 579 533 516 523 c 0
 490 519 463 517 435 517 c 0xee
 361 517 324 535 287 535 c 0
 222 535 192 465 192 424 c 0
 192 412 195 402 200 398 c 0
 229 369 489 418 489 272 c 0
 489 261 488 250 485 237 c 2
 460 118 l 2
 431 -4 355 -9 318 -9 c 0xde
EndSplineSet
EndChar

StartChar: uni0E24
Encoding: 3620 3620 249
Width: 618
VWidth: 1473
Flags: W
HStem: -9 52<180.723 260.734> 392 47<266.024 335.897> 547 51<318.748 528.6>
VStem: 118 58<46.3661 99.7637 97.3612 102.166 102.166 113 113 129.823> 278 55<60.8345 137.033> 432 59<-208.92 379.727> 565 59<403.826 513.346>
LayerCount: 2
Fore
SplineSet
278 109 m 0
 278 126 271 150 240 150 c 2
 199 150 l 1
 205 174 l 1
 252 202 l 1
 316 202 333 151 333 121 c 0
 333 55 272 -9 202 -9 c 0
 162 -9 118 8 118 78 c 0
 118 94 120 112 125 133 c 2
 152 262 l 2
 166 329 183 358 227 395 c 1
 210 405 169 447 172 470 c 0
 180 504 293 598 438 598 c 0
 551 598 624 562 624 450 c 0
 624 426 621 399 614 367 c 2
 491 -221 l 1
 432 -221 l 1
 555 367 l 2
 561 397 565 423 565 444 c 0
 565 524 518 547 426 547 c 0
 335 547 237 493 231 473 c 0
 229 461 254 420 265 420 c 0
 287 420 299 439 321 439 c 0
 333 439 347 392 331 392 c 0
 264 392 233 364 211 262 c 2
 180 113 l 2
 178 103 176 94 176 87 c 0
 176 59 191 43 214 43 c 0
 259 43 278 86 278 109 c 0
EndSplineSet
EndChar

StartChar: uni0E25
Encoding: 3621 3621 250
Width: 642
VWidth: 1473
Flags: W
HStem: -9 53<196.302 278.886> 324 52<288.777 449.207> 545 52<351.694 546.136>
VStem: 132 55<51.9047 206.143> 290 55<55.3723 125.934> 588 61<383.913 507.767>
LayerCount: 2
Fore
SplineSet
570 21 m 0
 570 4 567 0 557 0 c 2
 499 0 l 1
 509 47 514 88 514 125 c 0
 514 221 480 324 382 324 c 0
 208 324 187 165 187 110 c 0
 187 61 207 44 237 44 c 0
 272 44 290 74 290 102 c 0
 290 117 283 136 255 136 c 2
 211 136 l 1
 217 162 l 1
 265 187 l 1
 315 187 345 159 345 116 c 0
 345 65 308 -9 225 -9 c 0
 182 -9 132 14 132 95 c 0
 132 185 184 376 389 376 c 0
 434 376 517 357 552 267 c 1
 554 278 558 296 564 320 c 2
 583 408 l 2
 586 423 588 437 588 449 c 0
 588 526 512 545 458 545 c 0
 365 545 284 502 225 448 c 0
 210 435 189 458 175 479 c 1
 216 522 357 597 463 597 c 0
 558 597 649 564 649 461 c 0
 649 397 611 309 592 233 c 0
 590 222 588 207 586 186 c 2
 578 122 l 2
 575 89 570 38 570 21 c 0
EndSplineSet
EndChar

StartChar: uni0E26
Encoding: 3622 3622 251
Width: 665
VWidth: 1473
Flags: W
HStem: -9 52<109.686 194.069> 147 49<120.5 171> 392 47<313.024 383.638> 547 51<365.313 575.432>
VStem: 53 53<47.1565 118.02> 220 54<70.511 206.023 206.023 281.011 433.927 489.832> 479 59<-208.92 379.932> 612 59<401.793 513.482>
LayerCount: 2
Fore
SplineSet
53 70 m 0
 53 120 95 196 171 196 c 1
 199 171 l 1
 194 147 l 1
 161 147 l 2
 114 147 106 93 106 81 c 0
 106 56 123 43 149 43 c 0
 206 43 220 109 220 158 c 0
 220 197 218 216 218 254 c 0
 218 346 260 383 274 395 c 1
 244 418 220 448 220 466 c 0
 220 503 342 598 485 598 c 0
 598 598 671 562 671 450 c 0
 671 426 668 399 661 367 c 2
 538 -221 l 1
 479 -221 l 1
 603 367 l 2
 609 397 612 422 612 443 c 0
 612 512 581 547 473 547 c 0
 385 547 278 492 278 471 c 0
 278 457 302 420 312 420 c 0
 334 420 346 439 368 439 c 0
 377 439 386 417 386 403 c 0
 386 397 384 392 379 392 c 0
 310 392 294 358 281 299 c 0
 274 271 274 247 274 209 c 2
 274 145 l 2
 274 50 219 -9 137 -9 c 0
 86 -9 53 24 53 70 c 0
EndSplineSet
EndChar

StartChar: uni0E27
Encoding: 3623 3623 252
Width: 540
VWidth: 1473
Flags: W
HStem: -10 51<316.415 385.487> 150 52<328.727 383> 545 52<292.972 454.954>
VStem: 257 54<55.871 132.664> 491 61<377.685 509.508>
LayerCount: 2
Fore
SplineSet
131 479 m 1
 175 526 309 597 387 597 c 0
 476 597 552 561 552 465 c 0
 552 425 537 373 528 328 c 2
 482 116 l 2
 464 32 418 -10 343 -10 c 0
 275 -10 257 46 257 71 c 0
 257 136 314 202 383 202 c 1
 417 174 l 1
 411 150 l 1
 371 150 l 2
 333 150 311 109 311 84 c 0
 311 67 320 41 354 41 c 0
 368 41 412 50 424 116 c 2
 486 408 l 2
 489 424 491 437 491 450 c 0
 491 526 422 545 385 545 c 0
 303 545 228 493 180 448 c 0
 163 431 136 469 131 479 c 1
EndSplineSet
EndChar

StartChar: uni0E28
Encoding: 3624 3624 253
Width: 623
VWidth: 1473
Flags: W
HStem: 0 21G<106.5 194.5 486 549.253> 202 51<356.554 428.105> 355 52<349.406 443.788> 547 51<326.387 536.571>
VStem: 142 57<233.343 401.656> 447 52<271.633 341.503> 573 59<406.263 502.081>
LayerCount: 2
Fore
SplineSet
402 355 m 0
 339 355 221 230 168 0 c 1
 110 0 l 2
 103 0 101 3 101 8 c 0
 101 27 118 70 128 90 c 2
 162 161 l 2
 168 171 171 179 171 186 c 0
 171 196 142 234 142 294 c 0
 142 422 233 598 436 598 c 0
 499 598 545 589 576 570 c 1
 600 580 635 601 689 639 c 1
 695 638 729 624 729 607 c 0
 729 593 653 550 611 536 c 1
 625 515 632 489 632 458 c 0
 632 428 628 391 619 348 c 2
 545 0 l 1
 486 0 l 1
 557 333 l 2
 571 401 573 437 573 448 c 0
 573 527 519 547 424 547 c 0
 289 547 199 442 199 278 c 0
 199 256 201 238 203 225 c 1
 246 290 l 2
 269 325 332 407 420 407 c 0
 451 407 499 388 499 333 c 0
 499 257 436 202 373 202 c 0
 345 202 323 212 308 231 c 1
 311 277 l 1
 330 295 l 1
 352 268 l 2
 359 258 369 253 382 253 c 0
 420 253 447 290 447 318 c 0
 447 333 438 355 402 355 c 0
EndSplineSet
EndChar

StartChar: uni0E29
Encoding: 3625 3625 254
Width: 720
VWidth: 1473
Flags: W
HStem: -9 52<344.118 509.329> 186 47<460.979 566.885> 330 49<463.89 520.872> 557 51<249.581 323.583>
VStem: 175 55<449.973 536.439> 228 55<69.9336 143.945> 335 59<443.537 554.225> 406 51<238.821 311.242> 514 53<296 306.41 306.41 324.487>
LayerCount: 2
Fore
SplineSet
230 488 m 0xfb80
 230 464 241 448 265 448 c 2
 299 448 l 1
 295 424 l 1
 255 396 l 1
 191 396 175 448 175 476 c 0xfb80
 175 548 239 608 308 608 c 0
 377 608 394 566 394 530 c 0
 394 452 345 415 323 317 c 2
 293 187 l 2
 287 158 283 128 283 113 c 0
 283 89 290 66 344 52 c 0
 369 46 397 43 427 43 c 256
 591 43 606 110 620 169 c 2
 636 245 l 1
 605 198 536 186 510 186 c 0
 450 186 406 202 406 265 c 0
 406 329 447 379 510 379 c 0
 537 379 571 368 571 325 c 0
 571 317 570 307 567 296 c 1
 538 264 l 1
 514 264 l 1
 520 296 l 2
 524 319 520 330 499 330 c 0
 470 330 465 320 460 296 c 0
 458 287 457 279 457 272 c 0
 457 241 482 233 517 233 c 0
 605 233 643 298 651 333 c 2
 706 589 l 1
 765 589 l 1
 681 194 l 2
 659 90 632 50 568 20 c 0
 514 -6 438 -9 415 -9 c 0
 345 -9 228 7 228 99 c 0xf780
 228 118 233 157 242 194 c 2
 270 327 l 2
 285 410 335 451 335 517 c 0
 335 549 315 557 298 557 c 0
 260 557 230 524 230 488 c 0xfb80
EndSplineSet
EndChar

StartChar: uni0E2A
Encoding: 3626 3626 255
Width: 630
VWidth: 1473
Flags: W
HStem: -10 53<196.034 278.562> 324 52<286.733 449.207> 545 52<351.694 530.145>
VStem: 132 55<51.3795 211.156> 290 55<66.7799 123.992> 588 60<382.766 507.377>
LayerCount: 2
Fore
SplineSet
744 607 m 0
 744 594 673 550 626 536 c 1
 641 518 648 493 648 462 c 0
 648 391 613 318 592 233 c 0
 590 222 588 207 586 186 c 2
 578 122 l 2
 575 89 570 38 570 21 c 0
 570 4 567 0 557 0 c 2
 499 0 l 1
 509 47 514 88 514 125 c 0
 514 221 480 324 382 324 c 0
 206 324 187 159.97 187 108 c 0
 187 69 199 43 237 43 c 0
 280 43 290 82 290 100 c 0
 290 115 283 134 255 134 c 2
 211 134 l 1
 217 161 l 1
 265 186 l 1
 314.8 186 345 157.2 345 114 c 0
 345 60 305 -10 225 -10 c 0
 182 -10 132 13 132 96 c 0
 132 170 161 269 234 324 c 0
 280 358 332 376 389 376 c 0
 434 376 517 357 552 267 c 1
 554 278 558 296 564 320 c 2
 583 408 l 2
 586 423 588 437 588 449 c 0
 588 526 512 545 458 545 c 0
 365 545 284 502 225 448 c 0
 210 435 189 458 175 479 c 1
 216 522 357 597 463 597 c 0
 489 597 549 594 591 567 c 1
 629 582 681 622 704 639 c 1
 708 639 744 624 744 607 c 0
EndSplineSet
EndChar

StartChar: uni0E2B
Encoding: 3627 3627 256
Width: 693
VWidth: 1473
Flags: W
HStem: 0 21G<183 242 554 617.226> 548 52<226.58 308.053 605.804 688.913>
VStem: 153 54<450.716 528.846> 312 60<438.415 545.476> 529 55<418.401 525.234> 694 54<448.592 541.365>
LayerCount: 2
Fore
SplineSet
207 477 m 0
 207 462 214 439 243 439 c 2
 277 439 l 1
 271 415 l 1
 231 387 l 1
 168 387 153 439 153 466 c 0
 153 544 222 600 286 600 c 0
 355 600 372 557 372 521 c 0
 372 446 329 422 303 323 c 2
 259 138 l 1
 333 246 455 331 575 382 c 1
 566 393 529 422 529 466 c 0
 529 516 571 598 663 598 c 0
 711 598 748 570 748 519 c 0
 748 436 694 401 660 380 c 1
 673 372 689 356 684 336 c 2
 613 0 l 1
 554 0 l 1
 625 334 l 2
 626 345 621 356 604 351 c 0
 417 276 261 116 242 18 c 2
 239 0 l 1
 189 0 l 2
 177 0 177 7 181 21 c 1
 191 42 206 113 211 136 c 2
 250 327 l 2
 269 416 312 442 312 508 c 0
 312 535 299 548 275 548 c 0
 233 548 207 511 207 477 c 0
651 545 m 0
 612 545 584 511 584 478 c 0
 584 436 606 417 617 408 c 1
 674 438 694 465 694 502 c 0
 694 536 674 545 651 545 c 0
EndSplineSet
EndChar

StartChar: uni0E2C
Encoding: 3628 3628 257
Width: 724
VWidth: 1473
Flags: W
HStem: 0 21G<169 239 588 647.5> 401 40<643.509 680.198 675.477 684.919> 548 52<226.58 308.053> 576 52<653.616 718.578>
VStem: 153 54<450.716 528.846> 312 60<481.985 545.476> 585 51<447.088 560.203> 719 54<526.918 575.201>
LayerCount: 2
Fore
SplineSet
207 477 m 0xef
 207 462 214 439 243 439 c 2
 277 439 l 1
 271 415 l 1
 231 387 l 1
 168 387 153 439 153 466 c 0
 153 544 222 600 286 600 c 0xef
 355 600 372 557 372 521 c 0
 372 497 367 470 357 452 c 2
 340 418 l 2
 303 347 308 333 280 226 c 2
 268 176 l 2
 264 160 261 147 259 137 c 1
 286 176 331 234 414 320 c 2
 501 405 l 1
 582 277 612 193 623 130 c 1
 649 286 649 287 669 352 c 2
 685 402 l 1
 678 401 672 401 666 401 c 0
 601 401 585 454 585 490 c 0
 585 583 666 628 704 628 c 0xdf
 738 628 773 615 773 563 c 0
 773 549 771 534 766 517 c 2
 744 454 l 1
 768 465 817 505 843 557 c 1
 869 546 879 530 879 523 c 0
 879 512 802 437 735 412 c 1
 723 364 l 2
 718 345 712 320 706 290 c 2
 679 169 l 2
 662 96 664 80 656 21 c 0
 656 6 653 0 642 0 c 2
 588 0 l 1
 591 15 l 2
 593 21 593 29 593 37 c 0
 593 75 575 137 566 160 c 2
 547 214 l 2
 530 254 511 296 488 340 c 1
 445 296 405 254 370 214 c 2
 326 160 l 2
 283 109 246 46 239 15 c 2
 236 0 l 1
 181 0 l 2
 157 0 183 10 221 194 c 2
 249 327 l 2
 253 345 257 365 282 416 c 2
 298 448 l 2
 307 465 312 487 312 508 c 0
 312 535 299 548 275 548 c 0
 233 548 207 511 207 477 c 0xef
636 497 m 0
 636 450 662 441 679 441 c 0
 684 441 689 442 695 443 c 1
 702 459 719 529 719 550 c 0
 719 569 711 576 694 576 c 256xdf
 661 576 636 544 636 497 c 0
EndSplineSet
Substitution2: "Single Substitution lookup 27 subtable" uni0E2C.alt1
Substitution2: "Single Substitution lookup 27 subtable" uni0E2C.alt1
EndChar

StartChar: uni0E2D
Encoding: 3629 3629 258
Width: 629
VWidth: 1473
Flags: W
HStem: -9 52<216.394 432.554> 181 52<252 305.309> 323 53<230.961 315.089> 545 52<321.188 527.925>
VStem: 126 59<71.4336 210.782> 318 55<244.103 320.545> 569 58<380.336 505.646>
LayerCount: 2
Fore
SplineSet
295 376 m 0
 358 376 373 333 373 304 c 0
 373 239 327 181 252 181 c 1
 214 206 l 1
 220 233 l 1
 262 233 l 2
 301 233 318 264 318 289 c 0
 318 310 305 323 284 323 c 0
 231 323 209 285 196 215 c 0
 186 165 185 138 185 130 c 0
 185 60 235 43 329 43 c 256
 475 43 514 124 550 289 c 0
 565 357 569 399 569 427 c 0
 569 513 532 545 420 545 c 0
 369 545 311 536 217 448 c 0
 201 435 180 457 166 479 c 1
 204 519 313 597 432 597 c 0
 562 597 627 555 627 430 c 0
 627 384 605 170 513 67 c 0
 463 11 395 -9 317 -9 c 256
 163 -9 126 45 126 127 c 0
 126 196 153 376 295 376 c 0
EndSplineSet
EndChar

StartChar: uni0E2E
Encoding: 3630 3630 259
Width: 629
VWidth: 1473
Flags: W
HStem: -9 52<223.092 430.583> 159 52<246 300.234> 301 53<227.402 311.487> 395 50<240.045 481.008> 545 52<305.274 522.941>
VStem: 126 60<77.5566 212.809> 180 58<452.683 517.63> 314 55<236.777 291.444> 565 60<317.075 453.587>
LayerCount: 2
Fore
SplineSet
126 134 m 0xfd80
 126 187 149 354 292 354 c 0
 354 354 369 311 369 282 c 0
 369 226 329 159 246 159 c 1
 209 184 l 1
 215 211 l 1
 258 211 l 2
 303 211 314 252 314 268 c 0
 314 281 307 301 280 301 c 0
 227 301 205 261 192 194 c 0
 188 175 186 158 186 143 c 0xfd80
 186 64 241 43 326 43 c 0
 460 43 511 109 550 289 c 0
 560 340 565 382 565 417 c 0
 565 430 565 443 563 454 c 1
 495 415 426 395 356 395 c 0
 220 395 180 422 180 465 c 0xfb80
 180 497 192 568 313 590 c 0
 341 594 376 597 417 597 c 0
 500 597 559 576 594 533 c 1
 632 568 l 2
 644 580 656 594 667 610 c 1
 679 607 709 592 709 577 c 1
 701 565 680 544 658 526 c 2
 616 491 l 1
 622 470 625 446 625 418 c 0
 625 358 600 170 511 67 c 0
 467 16 401 -9 314 -9 c 0
 210 -9 126 20 126 134 c 0xfd80
238 476 m 0xfb80
 238 451 261 445 371 445 c 0
 424 445 491 457 554 496 c 1
 540 517 507 545 405 545 c 0
 309 545 238 531 238 476 c 0xfb80
EndSplineSet
EndChar

StartChar: uni0E2F
Encoding: 3631 3631 260
Width: 464
VWidth: 1473
Flags: W
HStem: 0 21G<320 386.168> 393 45<187.97 327.843> 547 48<187.121 246.575>
VStem: 127 51<449.039 526.674> 246 47<510 515.523 515.523 523.546 519.535 546.214>
LayerCount: 2
Fore
SplineSet
242 438 m 0
 303 438 426 486 446 589 c 1
 495 589 l 2
 504 589 509 587 509 584 c 0
 509 580 504 577 496 547 c 2
 382 0 l 1
 320 0 l 1
 421 482 l 1
 386 441 313 393 230 393 c 0
 171 393 127 422 127 478 c 0
 127 542 171 595 233 595 c 0
 270 595 296 575 296 537 c 0
 296 529 295 520 293 510 c 1
 261 467 l 1
 237 467 l 1
 246 510 l 2
 247 514 247 518 247 521 c 0
 247 539 237 547 222 547 c 0
 184 547 178 507 178 488 c 0
 178 448 217 438 242 438 c 0
EndSplineSet
EndChar

StartChar: uni0E30
Encoding: 3632 3632 261
Width: 447
VWidth: 1473
Flags: W
HStem: 44 47<109.512 282.155> 178 49<113.26 174.469> 379 47<180.079 354.416> 513 48<183.418 245.096>
VStem: 57 49<98.2186 160.624> 128 48<433.556 493.708> 174 47<141 147 147 154.046 150.523 177.64> 245 47<476 481.523 481.523 489.046 485.285 512.66>
LayerCount: 2
Fore
SplineSet
250 426 m 0xfd
 358 426 411 478 454 545 c 1
 516 530 l 1
 426 392 303 379 245 379 c 0
 184 379 128 394 128 455 c 0xfd
 128 513 173 561 231 561 c 0
 268 561 295 541 295 502 c 0
 295 494 294 486 292 476 c 1
 261 440 l 1
 237 440 l 1
 245 476 l 2
 246 480 246 484 246 487 c 0
 246 505 236 513 221 513 c 0xfb
 185 513 176 480 176 463 c 0
 176 441 189 426 250 426 c 0xfd
180 91 m 0
 286 91 341 144 383 211 c 1
 445 196 l 1
 417 153 337 44 174 44 c 0
 90 44 57 75 57 121 c 0
 57 177 98 227 161 227 c 0
 197 227 224 206 224 167 c 0
 224 159 223 151 221 141 c 1
 190 106 l 1
 166 106 l 1
 174 141 l 2xfb
 175 145 175 149 175 153 c 0
 175 170 166 178 149 178 c 0
 115 178 106 146 106 128 c 0
 106 98 134 91 180 91 c 0
EndSplineSet
EndChar

StartChar: uni0E31
Encoding: 3633 3633 262
Width: 0
VWidth: 1473
Flags: W
HStem: 670 46<-129.507 58.5146> 816 49<-130.734 -68.531>
VStem: -187 49<726.932 809.098> -69 47<779 785.023 785.023 792.046 788.535 815.672>
LayerCount: 2
Fore
SplineSet
-57 716 m 0
 85 716 151 793 180 844 c 1
 249 829 l 1
 214 781 127 670 -56 670 c 0
 -127 670 -187 686 -187 752 c 0
 -187 814 -142 865 -82 865 c 0
 -46 865 -19 844 -19 805 c 0
 -19 797 -20 789 -22 779 c 1
 -53 744 l 1
 -77 744 l 1
 -69 779 l 2
 -68 783 -68 788 -68 791 c 0
 -68 808 -77 816 -93 816 c 0
 -129 816 -138 785 -138 760 c 0
 -138 734 -116 716 -57 716 c 0
EndSplineSet
Substitution2: "Single Substitution lookup 27 subtable" uni0E31.alt1
Substitution2: "Single Substitution lookup 27 subtable" uni0E31.alt1
EndChar

StartChar: uni0E32
Encoding: 3634 3634 263
Width: 493
VWidth: 1473
Flags: W
HStem: 0 21G<334 397> 547 51<254.068 402.157>
VStem: 434 61<353.427 514.959>
LayerCount: 2
Fore
SplineSet
405 21 m 0
 405 4 402 0 392 0 c 2
 334 0 l 1
 357 98 352 82 369 164 c 2
 382 225 l 2
 400 310 434 402 434 454 c 0
 434 528 372 547 340 547 c 0
 302 547 244 539 150 449 c 1
 137 432 108 468 102 480 c 1
 148 531 267 598 343 598 c 0
 418 598 495 573 495 472 c 0
 495 397 460 339 421 122 c 2
 410 60 l 2
 407 41 405 28 405 21 c 0
EndSplineSet
EndChar

StartChar: uni0E33
Encoding: 3635 3635 264
Width: 493
VWidth: 1473
Flags: W
HStem: 0 21G<334 397> 547 51<254.068 402.157> 688 49<5.91333 86.5464> 837 48<17.2283 98.4044>
VStem: -49 50<751.63 820.105> 103 50<753.575 832.191> 434 61<353.427 514.959>
LayerCount: 2
Fore
SplineSet
153 810 m 0
 153 747 97 688 31 688 c 0
 -17 688 -49 722 -49 764 c 0
 -49 826 7 885 72 885 c 256
 122 885 153 850 153 810 c 0
41 737 m 256
 76 737 103 769 103 797 c 0
 103 819 86 837 62 837 c 256
 28 837 1 804 1 781 c 0
 1 765 9 737 41 737 c 256
405 21 m 0
 405 4 402 0 392 0 c 2
 334 0 l 1
 357 98 352 82 369 164 c 2
 382 225 l 2
 400 310 434 402 434 454 c 0
 434 528 372 547 340 547 c 0
 302 547 244 539 150 449 c 1
 137 432 108 468 102 480 c 1
 148 531 267 598 343 598 c 0
 418 598 495 573 495 472 c 0
 495 397 460 339 421 122 c 2
 410 60 l 2
 407 41 405 28 405 21 c 0
EndSplineSet
Substitution2: "Single Substitution lookup 27 subtable" uni0E33.alt1
Substitution2: "Single Substitution lookup 27 subtable" uni0E33.alt1
EndChar

StartChar: uni0E34
Encoding: 3636 3636 265
Width: 0
VWidth: 1473
Flags: W
HStem: 644 47<-170.726 21> 671 39<-340 -302.569 -302.569 -12.5131> 806 47<-271.898 -59.8714>
VStem: -405 478<672.246 690.519> 21 52<691 742.93>
LayerCount: 2
Fore
SplineSet
-288 671 m 0x70
 -385 671 -405 657 -405 674 c 1
 -405 674 -379 853 -158 853 c 0
 11 853 73 766 73 690 c 0
 73 650 64 644 52 644 c 0xb0
 -0 644 -149 671 -288 671 c 0x70
-265 713 m 0
 -135 713 -68 700 21 691 c 1xa8
 21 748 -51 806 -172 806 c 0
 -299 806 -338 732 -340 710 c 1x68
 -317 712 -291 713 -265 713 c 0
EndSplineSet
Substitution2: "Single Substitution lookup 27 subtable" uni0E34.alt1
Substitution2: "Single Substitution lookup 27 subtable" uni0E34.alt1
EndChar

StartChar: uni0E35
Encoding: 3637 3637 266
Width: 0
VWidth: 1473
Flags: W
HStem: 644 47<-170.726 21> 671 39<-340 -302.569 -302.569 -12.5131> 806 47<-271.898 -57.3845>
LayerCount: 2
Fore
SplineSet
-158 853 m 0x60
 -74 853 -0 818 22 793 c 1
 41 887 l 1
 105 887 l 1
 69 716 l 1
 78 656 66 644 52 644 c 0xa0
 -0 644 -149 671 -288 671 c 0
 -385 671 -405 657 -405 674 c 1
 -405 674 -379 853 -158 853 c 0x60
-265 713 m 0
 -135 713 -68 700 21 691 c 1xa0
 21 748 -51 806 -172 806 c 0
 -299 806 -338 732 -340 710 c 1x60
 -317 712 -291 713 -265 713 c 0
EndSplineSet
Substitution2: "Single Substitution lookup 27 subtable" uni0E35.alt1
Substitution2: "Single Substitution lookup 27 subtable" uni0E35.alt1
EndChar

StartChar: uni0E36
Encoding: 3638 3638 267
Width: 0
VWidth: 1473
Flags: W
HStem: 644 47<-170.726 21> 671 39<-340 -302.569 -302.569 -12.5131> 806 47<-271.898 -57.7669> 869 41<29.6757 100.108>
VStem: 103 42<792.47 858.524>
LayerCount: 2
Fore
SplineSet
21 691 m 1xb8
 21 748 -51 806 -172 806 c 0
 -299 806 -338 732 -340 710 c 1x78
 -317 712 -291 713 -265 713 c 0
 -135 713 -68 700 21 691 c 1xb8
-158 853 m 0
 -90 853 -38 834 -21 824 c 1
 -11 868 29 910 78 910 c 256
 119 910 145 884 145 844 c 0
 145 790 96 750 59 744 c 1
 67 730 74 713 74 691 c 0
 74 652 65 644 52 644 c 0xb8
 -0 644 -149 671 -288 671 c 0
 -385 671 -405 657 -405 674 c 1
 -405 674 -379 853 -158 853 c 0
50 781 m 256
 82 781 103 812 103 834 c 0
 103 848 96 869 69 869 c 256
 29 869 19 827 19 811 c 0
 19 799 25 781 50 781 c 256
EndSplineSet
Substitution2: "Single Substitution lookup 27 subtable" uni0E36.alt1
Substitution2: "Single Substitution lookup 27 subtable" uni0E36.alt1
EndChar

StartChar: uni0E37
Encoding: 3639 3639 268
Width: 0
VWidth: 1473
Flags: W
HStem: 644 47<-170.726 21> 671 39<-340 -302.569 -302.569 -12.5131> 806 47<-271.898 -100.735>
LayerCount: 2
Fore
SplineSet
-265 713 m 0x60
 -135 713 -68 700 21 691 c 1xa0
 21 748 -51 806 -172 806 c 0
 -299 806 -338 732 -340 710 c 1
 -317 712 -291 713 -265 713 c 0x60
-158 853 m 0
 -144 853 -106 850 -88 841 c 1
 -77 894 l 1
 -13 894 l 1
 -29 824 l 1
 -18 819 -9 813 -0 807 c 2
 22 791 l 1
 44 894 l 1
 108 894 l 1
 69 716 l 1
 78 656 66 644 52 644 c 0xa0
 -0 644 -149 671 -288 671 c 0x60
 -385 671 -405 657 -405 674 c 1
 -405 674 -379 853 -158 853 c 0
EndSplineSet
Substitution2: "Single Substitution lookup 27 subtable" uni0E37.alt1
Substitution2: "Single Substitution lookup 27 subtable" uni0E37.alt1
EndChar

StartChar: uni0E38
Encoding: 3640 3640 269
Width: 0
VWidth: 1473
Flags: W
HStem: -99 39<-216.628 -154.667>
VStem: -263 40<-164.19 -104.485> -154 46<-144.925 -99.7495>
LayerCount: 2
Fore
SplineSet
-168 -60 m 0
 -117 -63 -108 -98 -108 -119 c 0
 -108 -133 -113 -151 -117 -162 c 2
 -132 -196 l 2
 -135 -203 -137 -211 -138 -221 c 2
 -158 -309 l 1
 -214 -309 l 1
 -194 -220 l 2
 -192 -202 -185 -192 -175 -177 c 2
 -164 -160 l 2
 -158 -151 -154 -139 -154 -128 c 0
 -154 -112 -162 -99 -181 -99 c 256
 -207 -99 -223 -122 -223 -143 c 0
 -223 -154 -218 -165 -206 -169 c 1
 -192 -177 l 1
 -202 -193 l 1
 -231 -194 l 1
 -249 -190 -263 -176 -263 -153 c 0
 -263 -114 -227 -60 -168 -60 c 0
EndSplineSet
Substitution2: "Single Substitution lookup 26 subtable" a
Substitution2: "Single Substitution lookup 27 subtable" uni0E38.alt1
Substitution2: "Single Substitution lookup 26 subtable" a
Substitution2: "Single Substitution lookup 27 subtable" uni0E38.alt1
EndChar

StartChar: uni0E39
Encoding: 3641 3641 270
Width: 0
VWidth: 1473
Flags: W
HStem: -293 31<-266.672 -189.149> -99 39<-337.639 -274.811>
VStem: -383 40<-157.01 -103.604> -274 42<-157.665 -106.225>
LayerCount: 2
Fore
SplineSet
-274 -130 m 0
 -274 -116 -279 -99 -301 -99 c 0
 -324 -99 -338 -111 -343 -136 c 0
 -345 -145 -343 -154 -336 -162 c 2
 -323 -177 l 1
 -337 -192 l 1
 -367 -186 l 1
 -378 -173 -383 -160 -383 -145 c 0
 -383 -112 -351 -60 -292 -60 c 0
 -241 -63 -232 -95 -232 -118 c 0
 -232 -134 -237 -152 -243 -160 c 2
 -256 -179 l 2
 -270 -202 -280 -235 -280 -245 c 0
 -280 -260 -254 -262 -239 -262 c 256
 -206 -262 -192 -254 -189 -242 c 2
 -152 -69 l 1
 -96 -69 l 1
 -134 -247 l 2
 -144 -289 -196 -293 -228 -293 c 2
 -264 -293 l 2
 -299 -293 -340 -291 -340 -258 c 0
 -340 -255 -340 -251 -339 -247 c 2
 -334 -228 l 2
 -325 -189 -274 -167 -274 -130 c 0
EndSplineSet
Substitution2: "Single Substitution lookup 26 subtable" b
Substitution2: "Single Substitution lookup 27 subtable" uni0E39.alt1
Substitution2: "Single Substitution lookup 26 subtable" b
Substitution2: "Single Substitution lookup 27 subtable" uni0E39.alt1
EndChar

StartChar: uni0E3A
Encoding: 3642 3642 271
Width: 0
VWidth: 1473
Flags: W
HStem: -206 118<-182.059 -101.791>
VStem: -206 127<-183.148 -111.568>
LayerCount: 2
Fore
SplineSet
-79 -133 m 0
 -79 -176 -118 -206 -155 -206 c 256
 -186 -206 -206 -184 -206 -157 c 0
 -206 -124 -171 -88 -130 -88 c 256
 -102 -88 -79 -106 -79 -133 c 0
EndSplineSet
Substitution2: "Single Substitution lookup 26 subtable" c
Substitution2: "Single Substitution lookup 27 subtable" uni0E3A.alt1
Substitution2: "Single Substitution lookup 26 subtable" c
Substitution2: "Single Substitution lookup 27 subtable" uni0E3A.alt1
EndChar

StartChar: uni0E3F
Encoding: 3647 3647 272
Width: 629
VWidth: 1473
Flags: W
HStem: 0 62<174 286 351 457.798> 382 58<258 367 432 511.147> 650 66<302 423 491 571.752>
VStem: 563 74<203.662 338.11> 591 75<530.799 630.264>
LayerCount: 2
Fore
SplineSet
666 598 m 0xe8
 666 553 645 445 544 414 c 1
 616 397 637 313 637 268 c 0xf0
 637 227 609 -0 340 0 c 2
 339 0 l 1
 309 -133 l 1
 256 -133 l 1
 286 0 l 1
 88 0 l 1
 240 716 l 1
 438 716 l 1
 467 857 l 1
 520 857 l 1
 491 716 l 1
 582 716 666 692 666 598 c 0xe8
367 382 m 1
 243 382 l 1
 174 62 l 1
 298 62 l 1
 367 382 l 1
423 650 m 1
 302 650 l 1
 258 440 l 1
 379 440 l 1
 423 650 l 1
591 581 m 0xe8
 591 641 541 650 476 650 c 1
 432 440 l 1
 558 448 574 489 588 557 c 0
 590 566 591 574 591 581 c 0xe8
351 62 m 1
 468 66 534 108 558 228 c 0
 561 243 563 258 563 271 c 0xf0
 563 353 503 376 418 380 c 1
 351 62 l 1
EndSplineSet
EndChar

StartChar: uni0E40
Encoding: 3648 3648 273
Width: 313
VWidth: 1473
Flags: W
HStem: -1 58<181.046 255.827> 569 20G<212 275>
VStem: 108 59<62.4048 154.837> 271 60<71.6552 141.11>
LayerCount: 2
Fore
SplineSet
271 115 m 0
 271 132 264 152 236 152 c 2
 193 152 l 1
 199 178 l 1
 249 211 l 1
 302 211 331 174 331 128 c 0
 331 62 269 -1 199 -1 c 0
 145 -1 108 28 108 86 c 0
 108 139 154 270 172 364 c 2
 180 410 l 2
 186 442 203 537 203 569 c 0
 203 582 206 589 218 589 c 2
 275 589 l 1
 259 504 l 2
 248 448 236 355 197 224 c 0
 186 185 167 116 167 96 c 0
 167 61 200 57 212 57 c 0
 239 57 271 82 271 115 c 0
EndSplineSet
EndChar

StartChar: uni0E41
Encoding: 3649 3649 274
Width: 608
VWidth: 1473
Flags: W
HStem: -1 58<181.046 255.827 475.926 550.456> 152 59<249 267.74 544 562.166> 569 20G<212 275 507 570>
VStem: 108 59<62.4048 154.837> 271 60<71.6552 141.11> 402 59<62.278 153.893> 565 61<70.8165 142.186>
LayerCount: 2
Fore
SplineSet
271 115 m 0
 271 132 264 152 236 152 c 2
 193 152 l 1
 199 178 l 1
 249 211 l 1
 302 211 331 174 331 128 c 0
 331 62 269 -1 199 -1 c 0
 145 -1 108 28 108 86 c 0
 108 139 154 270 172 364 c 2
 180 410 l 2
 186 442 203 537 203 569 c 0
 203 582 206 589 218 589 c 2
 275 589 l 1
 259 504 l 2
 248 448 236 355 197 224 c 0
 186 185 167 116 167 96 c 0
 167 61 200 57 212 57 c 0
 239 57 271 82 271 115 c 0
565 115 m 0
 565 134 558 152 530 152 c 2
 488 152 l 1
 494 178 l 1
 544 211 l 1
 595 211 626 176 626 129 c 0
 626 61 563 -1 494 -1 c 0
 420 -1 402 50 402 86 c 0
 402 143 449 251 475 410 c 2
 486 471 l 2
 491 500 498 549 498 569 c 0
 498 582 501 589 513 589 c 2
 570 589 l 1
 548 479 535 367 492 224 c 0
 481 185 461 114 461 95 c 0
 461 62 492 57 507 57 c 0
 535 57 565 80 565 115 c 0
EndSplineSet
EndChar

StartChar: uni0E42
Encoding: 3650 3650 275
Width: 313
VWidth: 1473
Flags: W
HStem: -1 58<181.046 255.827> 924 59<274.242 451.878> 938 55<208.845 352.651>
VStem: 108 59<62.4048 120.101> 125 55<830.229 888.943> 245 61<668.049 685 685 696.436 696.436 720.65 708.543 771.204> 271 60<71.6552 141.11>
LayerCount: 2
Fore
SplineSet
268 938 m 0xac
 188 938 180 860 180 850 c 0
 180 834 192 830 232 825 c 0
 281 819 306 781 306 738 c 0xac
 306 723 303 705 299 685 c 2
 280 589 l 2
 269 531 257 474 250 445 c 2
 205 255 l 1
 171 125 l 2
 168 114 167 104 167 96 c 0
 167 61 200 57 212 57 c 0
 239 57 271 82 271 115 c 0
 271 132 264 152 236 152 c 2
 193 152 l 1
 199 178 l 1
 249 211 l 1
 302 211 331 174 331 128 c 0
 331 62 269 -1 199 -1 c 0
 145 -1 108 28 108 86 c 0xb2
 108 116 123 173 140 236 c 2
 189 438 l 1
 240 685 l 2
 244 700 245 713 245 724 c 0
 245 819 125 755 125 834 c 0
 125 907 181 993 277 993 c 0xac
 315 993 333 983 404 983 c 0
 447 983 486 991 511 1006 c 1
 513 994 516 976 516 968 c 0
 516 939 508 938 458 928 c 0
 443 926 421 924 392 924 c 0xcc
 318 924 305 938 268 938 c 0xac
EndSplineSet
EndChar

StartChar: uni0E43
Encoding: 3651 3651 276
Width: 321
VWidth: 1473
Flags: W
HStem: -1 58<181.046 255.827> 770 54<187.281 247.195> 947 49<218.769 365.653>
VStem: 108 59<62.4048 120.101> 131 54<825.538 914.017> 271 60<71.6552 141.11> 380 57<852.822 931.46>
LayerCount: 2
Fore
SplineSet
271 115 m 0xf6
 271 132 264 152 236 152 c 2
 193 152 l 1
 199 178 l 1
 249 211 l 1
 302 211 331 174 331 128 c 0
 331 62 269 -1 199 -1 c 0
 145 -1 108 28 108 86 c 0xf6
 108 116 123 173 140 236 c 2
 189 438 l 1
 222 603 l 2
 255 747 346 711 376 847 c 0
 379 862 380 875 380 888 c 0
 380 935 340 947 290 947 c 0
 230 947 185 912 185 859 c 0
 185 838 195 824 217 824 c 0
 233 824 262 833 271 869 c 2
 280 912 l 1
 305 912 l 1
 323 869 l 1
 312 824 276 770 206 770 c 256
 146 770 131 815 131 846 c 0xee
 131 933 217 996 307 996 c 0
 422 996 437 928 437 887 c 0
 437 870 429 806 401 770 c 0
 339 690 297 679 281 603 c 0
 279 587 265 508 250 445 c 2
 205 255 l 1
 171 125 l 2
 168 114 167 104 167 96 c 0
 167 61 200 57 212 57 c 0
 239 57 271 82 271 115 c 0xf6
EndSplineSet
EndChar

StartChar: uni0E44
Encoding: 3652 3652 277
Width: 313
VWidth: 1473
Flags: W
HStem: -1 58<181.046 255.827>
VStem: 108 59<62.4048 120.101> 147 67<865.691 984> 271 60<71.6552 141.158>
LayerCount: 2
Fore
SplineSet
271 115 m 0xd0
 271 132 264 152 236 152 c 2
 193 152 l 1
 199 178 l 1
 249 211 l 1
 301.764 211 331 174.287 331 128 c 0
 331 62 269 -1 199 -1 c 0
 145 -1 108 28 108 86 c 0xd0
 108 116 123 173 140 236 c 0
 188 415 216 595 281 760 c 0
 302 813 309 830 323 900 c 1
 280 852 l 2
 273 843 250 817 196 776 c 1
 180 815 159 889 147 984 c 1
 177 1004 199 1008 204 1008 c 0
 211 1008 214 1005 214 999 c 0xb0
 214 911 222 881 228 852 c 1
 247 870 327 947 334 984 c 2
 339 999 l 1
 395.814 999 396 999.831 396 993 c 0
 396 980 388 975 381 931 c 0
 381 929 361 823 344 774 c 2
 316 692 l 2
 271 553 280 572 205 255 c 2
 171 125 l 2
 168 114 167 104 167 96 c 0
 167 61 200 57 212 57 c 0
 239 57 271 82 271 115 c 0xd0
EndSplineSet
EndChar

StartChar: uni0E45
Encoding: 3653 3653 278
Width: 493
VWidth: 1473
Flags: W
HStem: 547 51<254.068 402.157>
VStem: 434 61<383.446 514.959>
LayerCount: 2
Fore
SplineSet
368 -200 m 0
 367 -213 365 -221 354 -221 c 2
 296 -221 l 1
 366 128 l 1
 366 128 397 276 406 316 c 2
 429 410 l 2
 432 426 434 441 434 454 c 0
 434 528 372 547 340 547 c 0
 302 547 244 539 150 449 c 1
 137 432 108 468 102 480 c 1
 148 531 267 598 343 598 c 0
 418 598 495 573 495 472 c 0
 495 421 482 392 467 320 c 2
 448 233 l 2
 446 226 443 210 438 188 c 2
 387 -84 l 1
 374 -160 l 2
 370 -182 368 -195 368 -200 c 0
EndSplineSet
EndChar

StartChar: uni0E46
Encoding: 3654 3654 279
Width: 447
VWidth: 1473
Flags: W
HStem: 386 52<200.325 268.294> 538 53<212.45 262>
VStem: 144 53<450.085 522.574> 430 62<449.992 543.409>
LayerCount: 2
Fore
SplineSet
492 531 m 0
 492 451 345 -127 345 -171 c 0
 343 -187 340 -192 330 -192 c 2
 273 -192 l 1
 366 207 l 2
 415 421 430 497 430 526 c 0
 430 538 429 547 407 547 c 1
 323 480 l 1
 262 538 l 1
 222 538 197 508 197 475 c 0
 197 460 205 438 236 438 c 0
 249 438 263 441 273 452 c 2
 301 483 l 1
 318 471 l 1
 301 418 l 1
 281 397 257 386 222 386 c 0
 160 386 144 434 144 463 c 0
 144 542 222 591 273 591 c 1
 333 532 l 1
 408 589 l 1
 426 589 l 2
 482 589 492 564 492 531 c 0
EndSplineSet
EndChar

StartChar: uni0E47
Encoding: 3655 3655 280
Width: 0
VWidth: 1473
Flags: W
HStem: 676 36<-128.402 -14.5093> 816 38<-48.4984 9.787> 882 46<-221.325 -105.224 -109.664 -100.783 -105.224 7.68457>
VStem: -307 51<737.314 820.579> -94 41<756.52 810.936> 11 45<736.083 810.152>
LayerCount: 2
Fore
SplineSet
11 787 m 0
 11 804 5 816 -12 816 c 0
 -37 816 -53 796 -53 776 c 0
 -53 768 -51 760 -46 754 c 2
 -32 740 l 1
 -47 725 l 1
 -77 731 l 1
 -89 744 -94 757 -94 770 c 0
 -94 794 -71 854 -4 854 c 0
 46 853 56 816 56 792 c 0
 56 749 13 676 -78 676 c 0
 -118 676 -151 685 -177 738 c 1
 -227 681 l 1
 -265 681 l 1
 -291 687 -307 717 -307 757 c 0
 -307 814 -280 928 -150 928 c 0
 -104 928 -95 922 -59 922 c 0
 13 922 55 950 68 1006 c 1
 74 1007 80 1007 86 1007 c 0
 101 1007 130 1004 130 991 c 0
 130 986 108 929 56 902 c 0
 25 885 -14 877 -60 877 c 0
 -106 877 -116 882 -153 882 c 0
 -206 882 -241 859 -252 801 c 0
 -254 790 -256 780 -256 771 c 0
 -256 751 -246 732 -239 723 c 1
 -166 796 l 1
 -136 724 -110 712 -69 712 c 0
 -17 712 11 754 11 787 c 0
EndSplineSet
Substitution2: "Single Substitution lookup 27 subtable" uni0E47.alt1
Substitution2: "Single Substitution lookup 27 subtable" uni0E47.alt1
EndChar

StartChar: uni0E48
Encoding: 3656 3656 281
Width: 0
VWidth: 1473
Flags: W
HStem: 958 200<94 106 65 162 94 94>
LayerCount: 2
Fore
SplineSet
65 958 m 1
 75 1072 l 1
 94 1158 l 1
 162 1158 l 1
 143 1072 l 1
 106 958 l 1
 65 958 l 1
EndSplineSet
Substitution2: "Single Substitution lookup 27 subtable" uni0E48.alt2
Substitution2: "Single Substitution lookup 27 subtable" uni0E48.alt2
EndChar

StartChar: uni0E49
Encoding: 3657 3657 282
Width: 0
VWidth: 1473
Flags: W
HStem: 943 37<-55 66.5> 1111 38<-50.6448 6.24301>
VStem: -95 39<1057.61 1096.61> 7 45<1051.87 1106.13>
LayerCount: 2
Fore
SplineSet
-13 1111 m 0
 -53 1111 -56 1076 -56 1073 c 0
 -56 1066 -53 1060 -47 1053 c 2
 -34 1039 l 1
 -49 1024 l 1
 -78 1030 l 1
 -90 1042 -95 1055 -95 1067 c 0
 -95 1089 -76 1149 -7 1149 c 0
 41 1148 52 1117 52 1092 c 0
 52 1072 38 997 -55 980 c 1
 -27 980 l 2
 18 980 110 981 175 1143 c 1
 234 1143 l 1
 164 995 88 943 -37 943 c 0
 -79 943 -112 947 -136 955 c 1
 -136 955 -127 985 -119 996 c 1
 -115 995 -111 994 -108 994 c 0
 -65 997 7 1022 7 1087 c 0
 7 1100 2 1111 -13 1111 c 0
EndSplineSet
Substitution2: "Single Substitution lookup 27 subtable" uni0E49.alt2
Substitution2: "Single Substitution lookup 27 subtable" uni0E49.alt2
EndChar

StartChar: uni0E4A
Encoding: 3658 3658 283
Width: 0
VWidth: 1473
Flags: W
HStem: 925 38<-104.925 -48.5628> 1089 42<-79.3072 9.24426 51.1358 118.846>
VStem: -147 40<964.484 1059.12> -43 41<988.187 1021.73> 100 52<1012.21 1082.88> 214 58<1093.7 1165.47>
LayerCount: 2
Fore
SplineSet
-77 963 m 0
 -49 963 -43 997 -43 1005 c 0
 -43 1014 -49 1023 -52 1027 c 2
 -66 1043 l 1
 -52 1058 l 1
 -21 1050 l 1
 -9 1037 -2 1023 -2 1007 c 0
 -2 989 -19 925 -87 925 c 0
 -127 925 -147 949 -147 989 c 0
 -147 1077 -74 1131 -22 1131 c 0
 21 1131 31 1102 32 1084 c 1
 43 1104 65 1130 102 1130 c 0
 138 1130 152 1105 152 1074 c 0
 152 1042 138 1004 121 977 c 1
 163 1002 214 1097 214 1162 c 2
 214 1167 l 1
 259 1167 l 2
 270 1167 272 1164 272 1159 c 0
 272 1134 218 982 113 937 c 1
 75 937 l 2
 72 937 71 938 71 940 c 0
 71 947 84 969 94 1019 c 0
 98 1036 100 1050 100 1061 c 0
 100 1078 95 1087 81 1087 c 0
 57 1087 35 1059 21 1036 c 1
 8 1080 -2 1089 -28 1089 c 256
 -88 1089 -107 1024 -107 998 c 0
 -107 972 -95 963 -77 963 c 0
EndSplineSet
Substitution2: "Single Substitution lookup 27 subtable" uni0E4A.alt2
Substitution2: "Single Substitution lookup 27 subtable" uni0E4A.alt2
EndChar

StartChar: uni0E4B
Encoding: 3659 3659 284
Width: 0
VWidth: 1473
Flags: W
HStem: 949 215<99 108> 1036 47<1 77 149 220 -7 230 1 1>
LayerCount: 2
Fore
SplineSet
220 1036 m 1x40
 136 1036 l 1x40
 108 949 l 1
 66 949 l 1x80
 77 1036 l 1
 -7 1036 l 1
 1 1083 l 1
 82 1083 l 1x40
 99 1164 l 1
 165 1164 l 1x80
 149 1083 l 1
 230 1083 l 1
 220 1036 l 1x40
EndSplineSet
Substitution2: "Single Substitution lookup 27 subtable" uni0E4B.alt2
Substitution2: "Single Substitution lookup 27 subtable" uni0E4B.alt2
EndChar

StartChar: uni0E4C
Encoding: 3660 3660 285
Width: 0
VWidth: 1473
Flags: W
HStem: 910 42<13.7037 84.6891>
VStem: -30 42<953.028 1012.24> 91 43<969.905 1032.27>
LayerCount: 2
Fore
SplineSet
43 952 m 0
 93 952 91 997 91 1008 c 0
 91 1017 86 1026 75 1037 c 1
 93 1049 l 1
 124 1044 l 1
 131 1037 134 1028 134 1019 c 0
 134 941 77 910 35 910 c 0
 -20 913 -30 953 -30 974 c 0
 -30 992 -18 1052 41 1078 c 0
 105 1108 143 1102 159 1179 c 1
 205 1179 l 2
 208 1179 211 1178 211 1174 c 0
 211 1171 200 1099 110 1066 c 0
 69 1051 12 1033 12 983 c 0
 12 964 24 952 43 952 c 0
EndSplineSet
Substitution2: "Single Substitution lookup 27 subtable" uni0E4C.alt2
Substitution2: "Single Substitution lookup 27 subtable" uni0E4C.alt2
EndChar

StartChar: uni0E4D
Encoding: 3661 3661 286
Width: 0
VWidth: 1473
Flags: W
HStem: 688 49<5.91333 86.5464> 837 48<17.2283 98.4044>
VStem: -49 50<751.63 820.105> 103 50<753.575 832.191>
LayerCount: 2
Fore
SplineSet
153 810 m 0
 153 747 97 688 31 688 c 0
 -17 688 -49 722 -49 764 c 0
 -49 826 7 885 72 885 c 256
 122 885 153 850 153 810 c 0
41 737 m 256
 76 737 103 769 103 797 c 0
 103 819 86 837 62 837 c 256
 28 837 1 804 1 781 c 0
 1 765 9 737 41 737 c 256
EndSplineSet
Substitution2: "Single Substitution lookup 27 subtable" uni0E4D.alt1
Substitution2: "Single Substitution lookup 27 subtable" uni0E4D.alt1
EndChar

StartChar: uni0E4E
Encoding: 3662 3662 287
Width: 0
VWidth: 1473
Flags: W
HStem: 667 39<-92.2051 -32.9562> 819 37<-7.36963 18.9055> 926 47<12.0061 121.607>
VStem: -142 48<712.75 783.928> -69 47<857.298 911.216> -27 38<721.338 762.088>
LayerCount: 2
Fore
SplineSet
-68 706 m 0xf8
 -38 706 -27 734 -27 747 c 0
 -27 753 -30 759 -35 766 c 2
 -49 781 l 1
 -34 796 l 1
 -4 790 l 1
 5 777 11 764 11 750 c 0xf4
 11 717 -21 667 -82 667 c 0
 -134 667 -142 711 -142 728 c 0
 -142 796 -71 838 -34 841 c 1
 -53 841 -69 855 -69 877 c 0
 -69 922 -7 973 81 973 c 0
 120 973 145 962 146 962 c 1
 147 961 148 960 148 957 c 0
 148 945.75 127.739 915.218 127 913 c 1
 110 921 89 926 64 926 c 0
 37 926 -22 917 -22 879 c 0
 -22 862 -5 856 13 856 c 0
 22 856 30 857 38 859 c 1
 34 846 l 2
 31 838 26 829 19 818 c 1
 17 819 14 819 10 819 c 2
 0 819 l 2
 -50 819 -94 774 -94 737 c 0
 -94 723 -89 706 -68 706 c 0xf8
EndSplineSet
Substitution2: "Single Substitution lookup 27 subtable" uni0E4E.alt1
Substitution2: "Single Substitution lookup 27 subtable" uni0E4E.alt1
EndChar

StartChar: uni0E4F
Encoding: 3663 3663 288
Width: 708
VWidth: 1473
Flags: W
HStem: 43 57<285.006 468.414> 186 53<358.924 462.908> 389 54<382.816 486.157> 524 58<366.993 552.842>
VStem: 140 64<183.607 359.392> 290 56<251.948 353.147> 500 55<276.169 374.918> 634 66<262.589 439.656>
LayerCount: 2
Fore
SplineSet
140 254 m 0
 140 430 308 582 477 582 c 0
 597 582 700 498 700 373 c 0
 700 195 536 43 364 43 c 0
 235 43 140 130 140 254 c 0
204 266 m 0
 204 183 261 100 376 100 c 0
 504 100 634 219 634 356 c 0
 634 451 567 524 466 524 c 0
 326 524 204 397 204 266 c 0
290 285 m 0
 290 371 369 443 449 443 c 256
 514 443 555 397 555 342 c 0
 555 261 480 186 395 186 c 0
 333 186 290 227 290 285 c 0
346 296 m 0
 346 270 365 239 407 239 c 256
 459 239 500 288 500 331 c 0
 500 363 475 389 439 389 c 256
 389 389 346 343 346 296 c 0
EndSplineSet
EndChar

StartChar: uni0E50
Encoding: 3664 3664 289
Width: 621
VWidth: 1473
Flags: W
HStem: -12 52<223.81 420.406> 432 51<303.769 493.645>
VStem: 94 72<94.3388 281.925> 555 72<189.762 375.052>
LayerCount: 2
Fore
SplineSet
627 299 m 0
 627 157 524 -12 308 -12 c 0
 185 -12 94 47 94 169 c 0
 94 322 200 483 412 483 c 256
 590 483 627 373 627 299 c 0
318 40 m 256
 508 40 555 212 555 297 c 0
 555 391 491 432 402 432 c 256
 213 432 166 258 166 172 c 0
 166 104 202 40 318 40 c 256
EndSplineSet
EndChar

StartChar: uni0E51
Encoding: 3665 3665 290
Width: 620
VWidth: 1473
Flags: W
HStem: 35 49<186.05 326.109> 187 49<276.476 348.374> 426 54<290.664 493.179>
VStem: 95 64<111.646 283.237> 351 48<108.477 184.562> 554 69<212.981 369.427>
LayerCount: 2
Fore
SplineSet
351 155 m 0
 351 173 336 187 317 187 c 256
 297 187 275 176 268 147 c 2
 259 108 l 1
 236 108 l 1
 221 147 l 1
 230 198 274 236 329 236 c 0
 383 236 399 195 399 168 c 0
 399 140 384 35 242 35 c 0
 157 35 95 86 95 181 c 0
 95 338 219 480 417 480 c 0
 420 480 l 0
 508 480 623 444 623 298 c 0
 623 135 521 -36 268 -109 c 0
 262 -111 256 -112 251 -112 c 0
 227 -112 215 -97 212 -49 c 1
 340 -23 428 7 496 100 c 0
 540 161 554 252 554 290 c 0
 554 399 470 426 399 426 c 0
 202 426 159 255 159 181 c 0
 159 135 177 84 249 84 c 0
 330 84 351 127 351 155 c 0
EndSplineSet
EndChar

StartChar: uni0E52
Encoding: 3666 3666 291
Width: 658
VWidth: 1473
Flags: W
HStem: -9 52<263.831 435.838> 124 53<307.623 399.459> 414 57<582 611.473>
VStem: 94 63<70.216 145.92> 148 70<407.64 522.989> 239 60<185.857 327.452> 412 55<189.989 257.467> 616 63<362.868 368 368 372.5 372.5 389.392 380.946 408.508>
LayerCount: 2
Fore
SplineSet
412 232 m 0xf7
 412 248 405 268 376 268 c 2
 331 268 l 1
 337 295 l 1
 387 320 l 1
 450 320 467 278 467 247 c 0
 467 183 412 124 342 124 c 0
 259 124 239 176 239 225 c 0
 239 303 273 415 417 473 c 1
 489 395 l 1
 582 471 l 1
 600 471 l 2
 641 471 681 449 681 401 c 0
 681 395 681 388 679 380 c 2
 641 194 l 2
 614 66 586 9 376 -6 c 0
 353 -8 335 -9 321 -9 c 0
 283 -9 143 -4 106 52 c 0
 98 64 94 80 94 99 c 0xf7
 94 118 99 157 108 194 c 2
 137 333 l 2
 144 368 148 399 148 426 c 0
 148 484 129 531 97 567 c 1
 104 573 140 605 168 605 c 0
 197 605 218 528 218 472 c 0xef
 218 439 213 402 203 359 c 2
 166 187 l 2
 161 160 157 133 157 117 c 0
 157 81 168 65 234 52 c 0
 272 44 313 43 333 43 c 256
 413 43 507 59 533 82 c 0
 557 103 565 134 573 169 c 2
 616 368 l 2
 617 371 617 374 617 377 c 0
 617 399 595 414 577 414 c 1
 476 329 l 1
 404 405 l 1
 372 387 299 349 299 236 c 0
 299 192 321 177 354 177 c 0
 383 177 412 200 412 232 c 0xf7
EndSplineSet
EndChar

StartChar: uni0E53
Encoding: 3667 3667 292
Width: 606
VWidth: 1473
Flags: W
HStem: -9 480<258 264 186 290 259.297 265.858> -9 53<164.968 241.396> 418 53<238.515 326.678 470.164 552.771>
VStem: 84 60<52.0904 125.767 115.423 136.111 136.111 152 155 167.853> 255 55<58.0283 126.144> 348 35<323 396.913> 552 65<312.312 320 329 336.297 336.297 342.858 339.578 416.274>
LayerCount: 2
Fore
SplineSet
255 103 m 0x7e
 255 118 248 136 220 136 c 2
 177 136 l 1
 183 162 l 1
 230 187 l 1
 276 187 310 162 310 117 c 0
 310 58 264 -9 186 -9 c 0
 104 -9 84 43 84 94 c 0
 84 111 86 130 90 152 c 2
 124 306 l 2
 158 468 258 471 290 471 c 0x9e
 364 471 383 435 383 323 c 1
 424 437 476 471 538 471 c 0
 589 471 622 451 622 378 c 0
 622 363 621 347 617 329 c 2
 548 0 l 1
 485 0 l 1
 552 320 l 2
 555 337 557 353 557 367 c 0
 557 399 550 418 523 418 c 0
 467 418 418 357 382 215 c 1
 342 215 l 1
 344 245 348 295 348 315 c 0
 348 401 316 418 268 418 c 0
 233 418 201 394 181 301 c 2
 150 155 l 2
 147 138 144 117 144 104 c 0
 144 48 180 44 197 44 c 0
 234 44 255 75 255 103 c 0x7e
EndSplineSet
EndChar

StartChar: uni0E54
Encoding: 3668 3668 293
Width: 627
VWidth: 1473
Flags: W
HStem: -6 53<190.686 350.705 498.156 569> 18 48<393.799 501.924> 265 50<358.682 439.106> 413 56<289.946 420.781 418.062 423.5 420.781 560.675>
VStem: 89 67<80.5471 236.791> 279 57<114.621 242.458> 442 47<213.15 261.701>
LayerCount: 2
Fore
SplineSet
479 467 m 0xbe
 588 467 631 557 661 614 c 1
 687 604 711 587 711 569 c 0
 711 553 642 410 468 410 c 0
 429 410 389 413 369 413 c 0
 300 413 202 406 166 236 c 0
 159 205 156 178 156 157 c 0
 156 56.4188 221.558 47 278 47 c 0xbe
 312 47 346 49 362 52 c 1
 341 52 279 98 279 172 c 0
 279 248 336 315 414 315 c 0
 462 315 489 278 489 241 c 0
 489 230 487 187 446 155 c 1
 404 150 l 1
 390 164 l 1
 421 189 l 2
 434 198 442 214 442 230 c 0
 442 251 426 265 402 265 c 0
 362 265 336 225 336 174 c 0
 336 98 413 66 495 66 c 0
 563 66 588 58 608 49 c 1
 569 -4 l 1
 510 16 487 18 467 18 c 0x7e
 388 18 340 -6 256 -6 c 0
 166 -6 89 24 89 143 c 0
 89 200 116 430 298 462 c 0
 321 467 345 469 371 469 c 0
 393 469 392 467 479 467 c 0xbe
EndSplineSet
EndChar

StartChar: uni0E55
Encoding: 3669 3669 294
Width: 627
VWidth: 1473
Flags: W
HStem: -6 53<190.76 350.705 498.156 569> 18 48<393.799 501.924> 265 50<358.682 439.106> 392 42<465.47 556.859> 415 54<253.172 343.685 343.685 357> 561 46<414.614 481.435>
VStem: 89 67<81.546 234.734> 279 57<114.621 242.458> 353 47<474.596 547.298> 442 47<213.15 261.701> 492 49<479.634 558.745>
LayerCount: 2
Fore
SplineSet
479 392 m 0x37e0
 449 392 440 401 404 417 c 1
 389 415 388 415 365 415 c 0
 270 415 206 411 166 236 c 0
 159 205 156 178 156 157 c 0
 156 56 222 47 278 47 c 0xafe0
 312 47 346 49 362 52 c 1
 341 52 279 98 279 172 c 0
 279 248 336 315 414 315 c 0
 462 315 489 278 489 241 c 0
 489 230 487 187 446 155 c 1
 404 150 l 1
 390 164 l 1
 421 189 l 2
 434 198 442 214 442 230 c 0
 442 251 426 265 402 265 c 0
 362 265 336 225 336 174 c 0
 336 98 413 66 495 66 c 0
 563 66 588 58 608 49 c 1
 569 -4 l 1
 510 16 487 18 467 18 c 0x67e0
 388 18 340 -6 256 -6 c 0
 166 -6 89 24 89 143 c 0
 89 211 125 469 330 469 c 0xafe0
 341 469 354 467 357 467 c 1
 355 474 353 482 353 491 c 0
 353 556 410 607 467 607 c 0
 510 607 541 581 541 541 c 0
 541 494 506 453 479 438 c 1
 501 434 499 434 507 434 c 0
 562 434 632 518 663 614 c 1
 671 612 713 598 713 573 c 0
 713 548 626 392 479 392 c 0x37e0
415 463 m 1
 478 463 492 502 492 530 c 0
 492 557 465 561 457 561 c 0
 423 561 400 531 400 497 c 0
 400 483 405 471 415 463 c 1
EndSplineSet
EndChar

StartChar: uni0E56
Encoding: 3670 3670 295
Width: 601
VWidth: 1473
Flags: W
HStem: -7 56<239.927 428.094> 186 53<226.161 305.227> 417 56<332.215 488.519>
VStem: 157 55<75.0963 171.788> 193 58<388.045 522.534> 306 52<141 147.046 147.046 153.523 150.285 183.448> 538 67<216.906 369.094>
LayerCount: 2
Fore
SplineSet
281 239 m 0xf6
 345 239 361 195 361 166 c 0
 361 158 360 150 358 141 c 1
 324 97 l 1
 298 97 l 1
 306 141 l 2
 307 146 307 150 307 153 c 0
 307 175 289 186 270 186 c 0
 247 186 212 170 212 118 c 0xf6
 212 90 232 49 336 49 c 0
 387 49 495 60 530 228 c 0
 535 252 538 273 538 291 c 0
 538 354 510 417 398 417 c 0
 320 417 265 391 230 348 c 1
 184 348 l 1
 190 371 193 394 193 416 c 0
 193 495 157 560 127 597 c 1
 144 614 178 632 200 632 c 0
 208 632 212 629 215 623 c 0
 232 590 251 533 251 474 c 0xee
 251 457 250 440 247 424 c 1
 330 475 392 473 415 473 c 0
 565 473 605 381 605 303 c 0
 605 145 502 -7 320 -7 c 0
 203 -7 157 38 157 106 c 0
 157 177 210 239 281 239 c 0xf6
EndSplineSet
EndChar

StartChar: uni0E57
Encoding: 3671 3671 296
Width: 730
VWidth: 1473
Flags: W
HStem: -9 53<146.939 236.376> 418 53<463 502.354> 575 20G<692 703.5>
VStem: 82 58<50.55 151.82> 249 55<56.6812 126.225> 508 65<343.934 413.062> 683 70<291.309 468.425>
LayerCount: 2
Fore
SplineSet
683 390 m 0
 683 433 671 512 628 563 c 1
 653 585 685 595 699 595 c 0
 708 595 715 592 719 585 c 0
 737 551 753 493 753 432 c 0
 753 333 712 94 483 0 c 1
 439 0 l 2
 422 0 434 6 439 31 c 2
 504 339 l 2
 507 351 508 362 508 371 c 0
 508 402 493 418 463 418 c 1
 345 296 l 1
 264 407 l 1
 206 373 176 318 162 249 c 2
 152 199 l 2
 144 161 140 130 140 105 c 0
 140 71 147 44 192 44 c 0
 224 44 249 70 249 103 c 0
 249 118 242 136 214 136 c 2
 169 136 l 1
 175 162 l 1
 224 187 l 1
 273.775 187 304 158.6 304 116 c 0
 304 54 255 -9 180 -9 c 0
 121 -9 82 18 82 105 c 0
 82 130 85 160 93 196 c 2
 105 255 l 2
 127 356 191 433 283 473 c 1
 359 365 l 1
 458 471 l 1
 480 471 l 2
 554 471 573 424 573 380 c 0
 573 368 571 356 569 343 c 2
 510 66 l 1
 629 129 683 281 683 390 c 0
EndSplineSet
EndChar

StartChar: uni0E58
Encoding: 3672 3672 297
Width: 621
VWidth: 1473
Flags: W
HStem: -6 55<188.126 294.71 378.843 515.996> 225 48<495.786 568.094> 402 61<427.852 574.327> 413 56<289.765 417.886>
VStem: 89 66<78.1768 231.725> 286 61<95.7855 163.199> 438 46<145.212 212.3> 571 61<134.013 223.252>
LayerCount: 2
Fore
SplineSet
492 463 m 0xef
 602 463 648 559 676 614 c 1
 699 604 726 587 726 569 c 0
 726 542 638 402 482 402 c 0xef
 454 402 398 413 357 413 c 0
 307 413 202 403 166 236 c 0
 159 203 155 175 155 153 c 0
 155 70 198 49 256 49 c 0
 268 49 276 49 318 63 c 1
 283 112 286 125 286 146 c 0
 286 166 354 190 351 174 c 0
 349 163 347 152 347 141 c 0
 347 90 383 46 436 46 c 0
 515 46 553 85 567 155 c 256
 570 167 571 177 571 186 c 0
 571 210 561 225 541 225 c 0
 510 225 484 201 484 172 c 0
 484 163 487 156 492 150 c 2
 513 125 l 1
 494 112 l 1
 452 116 l 1
 442 129 438 144 438 161 c 0
 438 217 487 273 550 273 c 0
 598 273 632 247 632 197 c 0
 632 99 546 -6 449 -6 c 0
 373 -6 357 37 336 37 c 0
 322 37 283 -6 205 -6 c 0
 135 -6 89 49 89 139 c 0
 89 249 141 432 298 462 c 0
 320 467 341 469 361 469 c 0xdf
 387 469 453 463 492 463 c 0xef
EndSplineSet
EndChar

StartChar: uni0E59
Encoding: 3673 3673 298
Width: 604
VWidth: 1473
Flags: W
HStem: 0 53<167.166 252.749> 418 52<233.756 359.179 484.009 566.985>
VStem: 88 62<68.2646 228.223> 266 55<66.4413 133.16> 467 63<0 260.197> 634 75<516.039 595.227>
LayerCount: 2
Fore
SplineSet
573 379 m 0
 573 407 547 421 517 421 c 0
 504 421 482 418 451 377 c 1
 489 282 519 133 530 0 c 1
 467 0 l 1
 448 167 433 284 381 372 c 0
 363 402 341 418 312 418 c 0
 234 418 196 401 161 222 c 0
 156 203 150 172 150 142 c 0
 150 97 163 53 208 53 c 0
 239 53 266 80 266 108 c 0
 266 124 259 144 230 144 c 2
 186 144 l 1
 192 171 l 1
 242 196 l 1
 291 196 321 167 321 123 c 0
 321 60 267 0 194 0 c 0
 110 0 88 83 88 143 c 0
 88 198 114 342 172 410 c 0
 205 449 252 470 323 470 c 0
 385 470 417 430 426 415 c 1
 446 441 482 473 527 473 c 0
 573 473 596 454 605 417 c 1
 633 459 634 542 634 550 c 0
 634 565 632 580 629 595 c 1
 655 606 674 608 685 608 c 0
 701 608 709 602 709 591 c 0
 709 499 623 354 600 354 c 0
 575 354 578 357 572 357 c 1
 563 359 573 363 573 379 c 0
EndSplineSet
EndChar

StartChar: uni0E5A
Encoding: 3674 3674 299
Width: 605
VWidth: 1473
Flags: W
HStem: 0 21G<305 371.205 452 518.205> 393 45<187.97 296.594> 547 48<187.121 246.575>
VStem: 127 51<449.039 526.674> 246 47<510 515.523 515.523 523.546 519.535 546.214>
LayerCount: 2
Fore
SplineSet
242 438 m 0
 319 438 401 486 435 589 c 1
 480 589 l 2
 490 589 493 588 493 583 c 0
 493 577 487 566 482 547 c 2
 367 0 l 1
 305 0 l 1
 405 477 l 1
 334 396 258 393 230 393 c 0
 171 393 127 422 127 478 c 0
 127 542 171 595 233 595 c 0
 270 595 296 575 296 537 c 0
 296 529 295 520 293 510 c 1
 261 467 l 1
 237 467 l 1
 246 510 l 2
 247 514 247 518 247 521 c 0
 247 539 237 547 222 547 c 0
 184 547 178 507 178 488 c 0
 178 448 217 438 242 438 c 0
575 589 m 1
 628 589 l 2
 637 589 641 587 641 583 c 0
 641 580 637 577 629 547 c 2
 514 0 l 1
 452 0 l 1
 575 589 l 1
EndSplineSet
LCarets2: 1 0 
Ligature2: "'liga' Standard Ligatures in Latin lookup 24 subtable" uni0E2F uni0E2F
EndChar

StartChar: uni0E5B
Encoding: 3675 3675 300
Width: 1026
VWidth: 1473
Flags: W
HStem: 35 49<259.962 417.031> 190 40<332.412 402.787> 247 17<958.489 1004.73> 312 40<340.314 408.202> 455 46<320.415 447.593>
VStem: 161 54<129.813 316.536> 291 39<232.619 300.893> 461 48<342.581 440.408>
LayerCount: 2
Fore
SplineSet
882 342 m 1
 909 335 950 264 1033 264 c 2
 1042 264 l 1
 1019 253 998 247 977 247 c 0
 944 247 919 259 900 284 c 1
 883 237 864 210 841 203 c 1
 819 203 822 306 806 324 c 1
 787 234 765 189 738 189 c 0
 721 189 725 291 709 317 c 1
 683 221 654 172 623 172 c 2
 622 172 l 2
 607 172 611 288 597 317 c 1
 558 129 465 35 318 35 c 0
 193 35 161 127 161 199 c 0
 161 304 224 501 393 501 c 0
 486 501 509 442 509 393 c 0
 509 324 463 190 355 190 c 0
 316 190 291 221 291 254 c 0
 291 304 335 352 389 352 c 0
 400 352 428 351 446 323 c 1
 446 326 l 1
 454 341 461 369 461 391 c 0
 461 434 436 455 387 455 c 0
 260 455 215 276 215 214 c 0
 215 112 276 84 329 84 c 0
 522 84 567 327 570 396 c 1
 621 386 647 336 647 247 c 2
 647 240 l 1
 682 309 682 348 682 367 c 0
 682 375 682 384 681 393 c 1
 720 382 747 339 762 265 c 1
 785 325 784 326 784 374 c 1
 824 363 847 321 853 250 c 1
 872 271 882 302 882 342 c 1
364 230 m 256
 388 230 415 255 415 278 c 0
 415 296 402 312 382 312 c 256
 356 312 330 288 330 262 c 0
 330 245 345 230 364 230 c 256
EndSplineSet
EndChar

StartChar: zerowidthnonjoiner
Encoding: 8204 8204 301
Width: 0
VWidth: 1473
Flags: W
LayerCount: 2
Back
SplineSet
-49 -374 m 1
 -108 -374 l 1
 59 417 l 1
 118 417 l 1
 -49 -374 l 1
EndSplineSet
EndChar

StartChar: zerowidthjoiner
Encoding: 8205 8205 302
Width: 0
VWidth: 1473
Flags: W
LayerCount: 2
Back
SplineSet
-49 -374 m 1
 -108 -374 l 1
 29 280 l 1
 -12 250 l 1
 -31 293 l 1
 38 336 l 1
 -7 385 l 1
 35 421 l 1
 78 371 l 1
 141 421 l 1
 171 385 l 1
 103 336 l 1
 156 293 l 1
 118 250 l 1
 88 280 l 1
 -49 -374 l 1
EndSplineSet
EndChar

StartChar: lefttorightmark
Encoding: 8206 8206 303
Width: 0
VWidth: 1473
Flags: W
LayerCount: 2
Back
SplineSet
-49 -374 m 1
 -108 -374 l 1
 47 365 l 1
 250 365 l 1
 225 407 l 1
 270 430 l 1
 318 336 l 1
 228 242 l 1
 196 267 l 1
 239 308 l 1
 94 308 l 1
 -49 -374 l 1
EndSplineSet
EndChar

StartChar: righttoleftmark
Encoding: 8207 8207 304
Width: 0
VWidth: 1473
Flags: W
LayerCount: 2
Back
SplineSet
35 308 m 1
 -108 308 l 1
 -82 267 l 1
 -127 242 l 1
 -175 336 l 1
 -85 430 l 1
 -53 407 l 1
 -96 365 l 1
 106 365 l 1
 -49 -374 l 1
 -108 -374 l 1
 35 308 l 1
EndSplineSet
EndChar

StartChar: endash
Encoding: 8211 8211 305
Width: 559
VWidth: 1473
Flags: W
HStem: 267 50<66 616>
LayerCount: 2
Fore
SplineSet
56 267 m 1
 66 317 l 1
 626 317 l 1
 616 267 l 1
 56 267 l 1
EndSplineSet
EndChar

StartChar: emdash
Encoding: 8212 8212 306
Width: 1119
VWidth: 1473
Flags: W
HStem: 267 50<66 1176>
LayerCount: 2
Fore
SplineSet
1176 267 m 1
 56 267 l 1
 66 317 l 1
 1186 317 l 1
 1176 267 l 1
EndSplineSet
EndChar

StartChar: quoteleft
Encoding: 8216 8216 307
Width: 248
VWidth: 1473
Flags: W
HStem: 551 270<184 311 311 311>
LayerCount: 2
Fore
SplineSet
184 551 m 1
 206 653 l 1
 311 821 l 1
 357 821 l 1
 255 653 l 1
 302 653 l 1
 280 551 l 1
 184 551 l 1
EndSplineSet
EndChar

StartChar: quoteright
Encoding: 8217 8217 308
Width: 248
VWidth: 1473
Flags: W
HStem: 541 268<225 354 354 354>
LayerCount: 2
Fore
SplineSet
354 809 m 1
 333 709 l 1
 225 541 l 1
 183 541 l 1
 281 709 l 1
 236 709 l 1
 256 809 l 1
 354 809 l 1
EndSplineSet
EndChar

StartChar: quotesinglbase
Encoding: 8218 8218 309
Width: 248
VWidth: 1473
Flags: W
HStem: -168 268<74 203 203 203>
LayerCount: 2
Fore
SplineSet
203 100 m 1
 183 0 l 1
 74 -168 l 1
 31 -168 l 1
 131 0 l 1
 85 0 l 1
 106 100 l 1
 203 100 l 1
EndSplineSet
EndChar

StartChar: quotedblleft
Encoding: 8220 8220 310
Width: 496
VWidth: 1473
Flags: W
HStem: 551 270<225 354 541 566>
LayerCount: 2
Fore
SplineSet
225 551 m 1
 247 653 l 1
 354 821 l 1
 396 821 l 1
 296 653 l 1
 343 653 l 1
 321 551 l 1
 225 551 l 1
411 551 m 1
 433 653 l 1
 541 821 l 1
 583 821 l 1
 483 653 l 1
 530 653 l 1
 508 551 l 1
 411 551 l 1
EndSplineSet
EndChar

StartChar: quotedblright
Encoding: 8221 8221 311
Width: 496
VWidth: 1473
Flags: W
HStem: 709 100<275 303 464 489>
VStem: 202 358<541 809 541 566>
LayerCount: 2
Fore
SplineSet
560 809 m 1
 539 709 l 1
 433 541 l 1
 389 541 l 1
 489 709 l 1
 443 709 l 1
 464 809 l 1
 560 809 l 1
373 809 m 1
 352 709 l 1
 246 541 l 1
 202 541 l 1
 303 709 l 1
 255 709 l 1
 275 809 l 1
 373 809 l 1
EndSplineSet
EndChar

StartChar: quotedblbase
Encoding: 8222 8222 312
Width: 496
VWidth: 1473
Flags: W
HStem: 0 100<125 153 314 339>
VStem: 50 360<-168 100 -168 -143>
LayerCount: 2
Fore
SplineSet
410 100 m 1
 389 0 l 1
 281 -168 l 1
 237 -168 l 1
 339 0 l 1
 293 0 l 1
 314 100 l 1
 410 100 l 1
222 100 m 1
 202 0 l 1
 94 -168 l 1
 50 -168 l 1
 153 0 l 1
 105 0 l 1
 125 100 l 1
 222 100 l 1
EndSplineSet
EndChar

StartChar: dagger
Encoding: 8224 8224 313
Width: 559
VWidth: 1473
Flags: W
HStem: 591 21G<428.652 595>
VStem: 208 387<541 610 541 541> 246 29<-85.438 -51.0859>
LayerCount: 2
Fore
SplineSet
246 -90 m 1xa0
 318 362 l 1
 380 561 l 1
 208 541 l 1
 221 610 l 1
 387 591 l 1
 420 821 l 1
 488 821 l 1
 423 591 l 1
 595 610 l 1xc0
 582 541 l 1
 415 561 l 1
 395 362 l 1
 275 -90 l 1
 246 -90 l 1xa0
EndSplineSet
EndChar

StartChar: daggerdbl
Encoding: 8225 8225 314
Width: 559
VWidth: 1473
Flags: W
HStem: 591 21G<428.652 595>
VStem: 118 477<121 610 121 121>
LayerCount: 2
Fore
SplineSet
582 541 m 1
 415 561 l 1
 395 365 l 1
 333 169 l 1
 507 189 l 1
 492 121 l 1
 326 138 l 1
 295 -90 l 1
 227 -90 l 1
 290 138 l 1
 118 121 l 1
 133 189 l 1
 298 169 l 1
 318 365 l 1
 380 561 l 1
 208 541 l 1
 221 610 l 1
 387 591 l 1
 420 821 l 1
 488 821 l 1
 423 591 l 1
 595 610 l 1
 582 541 l 1
EndSplineSet
EndChar

StartChar: bullet
Encoding: 8226 8226 315
Width: 559
VWidth: 1473
Flags: W
HStem: 202 403<309.297 415.062>
VStem: 157 415<358.477 453.337>
LayerCount: 2
Fore
SplineSet
157 363 m 0
 157 481 268 605 407 605 c 0
 501 605 572 542 572 449 c 0
 572 323 451 202 321 202 c 0
 229 202 157 266 157 363 c 0
EndSplineSet
EndChar

StartChar: ellipsis
Encoding: 8230 8230 316
Width: 1119
VWidth: 1473
Flags: W
HStem: 0 100<159 236 533 607 905 981>
LayerCount: 2
Fore
SplineSet
138 0 m 1
 159 100 l 1
 256 100 l 1
 236 0 l 1
 138 0 l 1
513 0 m 1
 533 100 l 1
 628 100 l 1
 607 0 l 1
 513 0 l 1
884 0 m 1
 905 100 l 1
 1002 100 l 1
 981 0 l 1
 884 0 l 1
EndSplineSet
EndChar

StartChar: perthousand
Encoding: 8240 8240 317
Width: 1208
VWidth: 1473
Flags: W
HStem: 0 53<554.83 687.947 912.83 1045.95> 273 51<595.664 725.858 953.664 1083.86> 390 53<274.514 404.223> 661 55<312.201 445.245>
VStem: 193 54<470.13 597.176> 473 55<82.1457 202.336 508.386 634.244> 754 53<118.78 245.306> 831 55<79.1811 203.766> 1112 53<118.78 245.306>
LayerCount: 2
Fore
SplineSet
193 519 m 0
 193 620 296 716 393 716 c 0
 473 716 526 658 526 586 c 0
 526 494 436 390 324 390 c 0
 242 390 193 450 193 519 c 0
471 580 m 0
 471 614 449 661 382 661 c 0
 308 661 247 598 247 526 c 0
 247 481 282 443 334 443 c 0
 411 443 471 510 471 580 c 0
473 129 m 0
 473 222 566 324 673 324 c 0
 750 324 807 273 807 196 c 0
 807 95 704 0 605 0 c 0
 537 0 473 52 473 129 c 0
754 190 m 0
 754 234 720 273 663 273 c 0
 586 273 528 201 528 134 c 0
 528 88 564 53 616 53 c 0
 695 53 754 121 754 190 c 0
247 -10 m 1
 187 -10 l 1
 753 726 l 1
 815 726 l 1
 247 -10 l 1
831 129 m 0
 831 222 924 324 1031 324 c 0
 1108 324 1165 273 1165 196 c 0
 1165 95 1062 0 963 0 c 0
 895 0 831 52 831 129 c 0
1112 190 m 0
 1112 234 1078 273 1021 273 c 0
 944 273 886 201 886 134 c 0
 886 88 922 53 974 53 c 0
 1053 53 1112 121 1112 190 c 0
EndSplineSet
EndChar

StartChar: minute
Encoding: 8242 8242 318
Width: 228
VWidth: 1473
Flags: W
HStem: 517 237<247 249 197 299 247 247>
LayerCount: 2
Fore
SplineSet
247 754 m 1
 299 754 l 1
 249 517 l 1
 197 517 l 1
 247 754 l 1
EndSplineSet
EndChar

StartChar: second
Encoding: 8243 8243 319
Width: 331
VWidth: 1473
Flags: W
HStem: 517 237<240 242 358 359 190 410 240 240>
LayerCount: 2
Fore
SplineSet
240 754 m 1
 292 754 l 1
 242 517 l 1
 190 517 l 1
 240 754 l 1
358 754 m 1
 410 754 l 1
 359 517 l 1
 308 517 l 1
 358 754 l 1
EndSplineSet
EndChar

StartChar: guilsinglleft
Encoding: 8249 8249 320
Width: 372
VWidth: 1473
Flags: W
HStem: 119 344<305 306 305 305>
VStem: 133 246<295 463 295 295>
LayerCount: 2
Fore
SplineSet
205 295 m 1
 306 119 l 1
 233 119 l 1
 133 295 l 1
 305 463 l 1
 379 463 l 1
 205 295 l 1
EndSplineSet
EndChar

StartChar: guilsinglright
Encoding: 8250 8250 321
Width: 372
VWidth: 1473
Flags: W
HStem: 119 344<190 190 190 190>
VStem: 118 243<119 289 119 119>
LayerCount: 2
Fore
SplineSet
292 289 m 1
 190 463 l 1
 262 463 l 1
 361 289 l 1
 190 119 l 1
 118 119 l 1
 292 289 l 1
EndSplineSet
EndChar

StartChar: fraction
Encoding: 8260 8260 322
Width: 238
VWidth: 1473
Flags: W
HStem: 0 21G<-53 19.3538>
VStem: -53 493<0 701 1.53064e-18 1.53064e-18>
LayerCount: 2
Fore
SplineSet
7 0 m 1
 -53 0 l 1
 380 701 l 1
 440 701 l 1
 7 0 l 1
EndSplineSet
EndChar

StartChar: Euro
Encoding: 8364 8364 323
Width: 558
VWidth: 1473
Flags: W
HStem: -10 65<233.53 452.525> 233 63<35 114 193 452> 412 64<74 147 236 491> 659 64<354.921 569.465>
VStem: 111 70<105.657 210.008 206.815 213.2 213.2 233> 147 71<312.306 412>
LayerCount: 2
Back
SplineSet
134 357 m 256
 148 421.667 164.333 477 183 523 c 128
 201.667 569 224.667 607 252 637 c 128
 279.333 667 312 688.833 350 702.5 c 128
 388 716.167 432.333 723 483 723 c 0
 515.667 723 549.167 717.833 583.5 707.5 c 128
 617.833 697.167 646.333 681.667 669 661 c 1
 611 605 l 1
 592.333 625 571.333 639 548 647 c 128
 524.667 655 498 659 468 659 c 0
 427.333 659 392.667 653.333 364 642 c 128
 335.333 630.667 311.167 612.833 291.5 588.5 c 128
 271.833 564.167 255.333 533 242 495 c 128
 228.667 457 216.333 411 205 357 c 256
 193 302.333 185.5 256.167 182.5 218.5 c 128
 179.5 180.833 182.667 149.667 192 125 c 128
 201.333 100.333 217.833 82.5 241.5 71.5 c 128
 265.167 60.5 297.667 55 339 55 c 0
 368.333 55 396.833 58.8333 424.5 66.5 c 128
 452.167 74.1667 479 88 505 108 c 1
 539 52 l 1
 507.667 31.3333 472.667 15.8333 434 5.5 c 128
 395.333 -4.83333 359.667 -10 327 -10 c 0
 275.667 -10 234.167 -3.16667 202.5 10.5 c 128
 170.833 24.1667 147.5 46 132.5 76 c 128
 117.5 106 110.5 144 111.5 190 c 128
 112.5 236 120 291.667 134 357 c 256
491 412 m 1
 60 412 l 1
 74 476 l 1
 504 476 l 1
 491 412 l 1
452 233 m 1
 22 233 l 1
 35 296 l 1
 466 296 l 1
 452 233 l 1
EndSplineSet
Fore
SplineSet
166 476 m 1xf4
 214 616 281 723 483 723 c 0
 534 723 616 709 669 661 c 1
 611 605 l 1
 590 628 554 659 468 659 c 0
 335 659 276 600 236 476 c 1
 504 476 l 1
 491 412 l 1
 218 412 l 1xf4
 212 389 201 343 193 296 c 1
 466 296 l 1
 452 233 l 1
 184 233 l 1
 182 213 181 201 181 194 c 0
 181 91 229 55 339 55 c 0
 439 55 489 96 505 108 c 1
 539 52 l 1
 469 6 380 -10 327 -10 c 0
 201 -10 111 28 111 181 c 0xf8
 111 194 112 212 114 233 c 1
 22 233 l 1
 35 296 l 1
 122 296 l 1
 128 332 136 372 147 412 c 1
 60 412 l 1
 74 476 l 1
 166 476 l 1xf4
EndSplineSet
EndChar

StartChar: uni2113
Encoding: 8467 8467 324
Width: 307
VWidth: 1473
Flags: W
HStem: -4 51<140.765 196.675> 13 56<172.665 224.3> 673 46<284.719 323.388>
VStem: 53 331<220 599 474.08 610.143> 101 53<26.0018 70.4921> 332 52<502.544 652.42>
LayerCount: 2
Fore
SplineSet
150 -4 m 0xa8
 122 -4 101 5 101 43 c 0xa8
 101 51 102 61 105 71 c 2
 136 217 l 1
 82 186 l 1
 53 220 l 1
 147 277 l 1
 222 629 l 2
 242 713 295 719 312 719 c 0
 370 719 384 646 384 599 c 0xb0
 384 482 315 338 192 246 c 1
 155 72 l 2
 154 69 154 65 154 63 c 0
 154 52 160 47 175 47 c 0xa8
 198 47 215 54 245 69 c 1
 248 60 251 47 251 35 c 0
 251 25 248 16 240 13 c 0x68
 208 -3 159 -4 150 -4 c 0xa8
332 581 m 0x24
 332 620 327 673 306 673 c 0
 291 673 280 658 273 629 c 2
 205 309 l 1
 244 346 310 431 329 523 c 0
 331 537 332 561 332 581 c 0x24
EndSplineSet
EndChar

StartChar: trademark
Encoding: 8482 8482 325
Width: 1043
VWidth: 1473
Flags: W
HStem: 666 50<196 339 395 544 682 685 1052 1055>
LayerCount: 2
Fore
SplineSet
544 666 m 1
 395 666 l 1
 306 255 l 1
 250 255 l 1
 339 666 l 1
 186 666 l 1
 196 716 l 1
 554 716 l 1
 544 666 l 1
803 348 m 1
 1025 716 l 1
 1121 716 l 1
 1022 255 l 1
 966 255 l 1
 1055 666 l 1
 1052 666 l 1
 797 255 l 1
 763 255 l 1
 685 666 l 1
 682 666 l 1
 594 255 l 1
 538 255 l 1
 636 716 l 1
 732 716 l 1
 803 348 l 1
EndSplineSet
EndChar

StartChar: Ohm
Encoding: 8486 8486 326
Width: 692
VWidth: 1473
Flags: W
HStem: 0 59<63 237 479 641> 669 60<384.129 584.504>
VStem: 133 67<275.655 467.8> 671 67<377.318 582.808>
LayerCount: 2
Fore
SplineSet
501 729 m 256
 645 729 738 650 738 501 c 0
 738 313 603 181 498 150 c 1
 479 59 l 1
 653 59 l 1
 641 0 l 1
 405 0 l 1
 445 192 l 1
 559 215 671 340 671 487 c 0
 671 565 634 669 488 669 c 0
 280 669 200 466 200 366 c 0
 200 283 250 209 327 192 c 1
 287 0 l 1
 52 0 l 1
 63 59 l 1
 237 59 l 1
 256 150 l 1
 178 177 133 262 133 355 c 0
 133 502 252 729 501 729 c 256
EndSplineSet
EndChar

StartChar: estimated
Encoding: 8494 8494 327
Width: 713
VWidth: 1473
Flags: W
HStem: -12 55<297.416 455.627> 318 55<218 644> 629 53<387.762 582.591>
VStem: 132 68<155.309 309.602> 651 66<402.514 558.839>
LayerCount: 2
Fore
SplineSet
501 682 m 0
 614 682 717 638 717 462 c 0
 717 420 711 372 700 318 c 1
 206 318 l 1
 202 299 200 280 200 261 c 0
 200 156 259 43 380 43 c 0
 417 43 457 51 498 67 c 0
 539 83 579 114 617 159 c 1
 666 131 l 1
 633 90 545 -12 362 -12 c 0
 216 -12 132 100 132 234 c 0
 132 390 241 682 501 682 c 0
651 455 m 0
 651 549 618 629 486 629 c 0
 324 629 246 491 218 373 c 1
 644 373 l 1
 648 403 651 430 651 455 c 0
EndSplineSet
EndChar

StartChar: partialdiff
Encoding: 8706 8706 328
Width: 559
VWidth: 1473
Flags: W
HStem: -12 55<205.478 380.211> 541 53<304.324 464.407> 789 20G<394.636 471.5>
VStem: 90 67<94.4653 285.447> 526 75<326.114 541.847>
LayerCount: 2
Fore
SplineSet
526 395 m 0
 526 506 474 541 394 541 c 0
 259 541 198 428 169 292 c 256
 161 253 157 219 157 189 c 0
 157 79 208 43 289 43 c 256
 424 43 485 154 514 292 c 256
 522 331 526 365 526 395 c 0
514 572 m 1
 505 615 451 711 357 765 c 1
 426 809 l 1
 517 736 601 628 601 458 c 0
 601 391 580 188 485 80 c 0
 430 18 361 -12 277 -12 c 0
 128 -12 90 86 90 182 c 0
 90 261 116 407 198 502 c 0
 243 554 310 594 405 594 c 0
 448 594 484 586 511 569 c 1
 514 572 l 1
EndSplineSet
EndChar

StartChar: Delta
Encoding: 8710 8710 329
Width: 573
VWidth: 1473
Flags: W
HStem: 0 59<93 491> 696 20G<376.19 478.346>
LayerCount: 2
Fore
SplineSet
560 0 m 1
 0 0 l 1
 387 716 l 1
 476 716 l 1
 560 0 l 1
491 59 m 1
 417 650 l 1
 93 59 l 1
 491 59 l 1
EndSplineSet
EndChar

StartChar: product
Encoding: 8719 8719 330
Width: 692
VWidth: 1473
Flags: W
HStem: 0 21G<96 168.215 507 579.227> 650 66<301 644> 660 56<187 204.5 743 773>
LayerCount: 2
Fore
SplineSet
575 0 m 1xa0
 507 0 l 1
 644 650 l 1
 301 650 l 1xc0
 164 0 l 1
 96 0 l 1
 234 653 l 1
 175 660 l 1
 187 716 l 1
 785 716 l 1
 773 660 l 1
 713 653 l 1
 575 0 l 1xa0
EndSplineSet
EndChar

StartChar: summation
Encoding: 8721 8721 331
Width: 646
VWidth: 1473
Flags: W
HStem: 0 59<131 595> 657 59<275 712>
LayerCount: 2
Fore
SplineSet
595 0 m 1
 52 0 l 1
 68 81 l 1
 390 368 l 1
 193 638 l 1
 209 716 l 1
 725 716 l 1
 712 657 l 1
 275 657 l 1
 468 392 l 1
 461 354 l 1
 131 59 l 1
 607 59 l 1
 595 0 l 1
EndSplineSet
EndChar

StartChar: minus
Encoding: 8722 8722 332
Width: 592
VWidth: 1473
Flags: W
HStem: 303 62<128 604>
LayerCount: 2
Fore
SplineSet
115 303 m 1
 128 365 l 1
 617 365 l 1
 604 303 l 1
 115 303 l 1
EndSplineSet
EndChar

StartChar: radical
Encoding: 8730 8730 333
Width: 570
VWidth: 1473
Flags: W
HStem: 0 21G<241.203 323.026> 295 59<119 189>
LayerCount: 2
Fore
SplineSet
312 0 m 1
 245 0 l 1
 189 295 l 1
 99 295 l 1
 119 354 l 1
 240 354 l 1
 293 77 l 1
 613 653 l 1
 672 653 l 1
 312 0 l 1
EndSplineSet
EndChar

StartChar: infinity
Encoding: 8734 8734 334
Width: 822
VWidth: 1473
Flags: W
HStem: 147 52<206.31 333.174 582.009 710.244> 439 50<245.918 371.984 624.097 748.453>
VStem: 122 55<228.204 368.211> 779 55<268.727 409.041>
LayerCount: 2
Fore
SplineSet
177 293 m 0
 177 239 208 199 267 199 c 0
 333 199 416 279 449 326 c 1
 383 421 355 439 317 439 c 0
 233 439 177 363 177 293 c 0
834 363 m 0
 834 233 735 147 631 147 c 0
 541 147 489 244 464 281 c 1
 364 165 297 147 255 147 c 0
 148 147 122 220 122 275 c 0
 122 408 226 489 326 489 c 0
 392 489 433 440 491 357 c 1
 592 471 659 489 701 489 c 0
 801 489 834 424 834 363 c 0
639 197 m 0
 718 197 779 270 779 344 c 0
 779 398 748 438 689 438 c 0
 631 438 551 370 505 311 c 1
 573 217 601 197 639 197 c 0
EndSplineSet
EndChar

StartChar: integral
Encoding: 8747 8747 335
Width: 356
VWidth: 1473
Flags: W
HStem: -152 67<-21.3692 91.6846> 647 63<333.659 428.752 420.532 436.973 436.973 439>
LayerCount: 2
Fore
SplineSet
-22 -82 m 1
 -14 -84 3 -85 19 -85 c 0
 95 -85 113 -48 124 0 c 2
 246 579 l 2
 252 607 276 710 396 710 c 0
 435 710 448 709 461 706 c 1
 439 645 l 1
 431.615 646.477 431.435 647 401 647 c 0
 344 647 323 628 312 576 c 2
 184 -16 l 2
 160 -127 77 -152 31 -152 c 0
 -6.06495 -152 -28.8943 -148.03 -43 -144 c 1
 -22 -82 l 1
EndSplineSet
EndChar

StartChar: approxequal
Encoding: 8776 8776 336
Width: 578
VWidth: 1473
Flags: W
HStem: 140 56<366.943 502.484> 205 56<176.048 291.437> 327 56<410.491 526.481> 392 56<198.644 332.51>
LayerCount: 2
Fore
SplineSet
582 222 m 1
 522 148 469 140 430 140 c 0
 353 140 276 205 217 205 c 0
 184 205 159 191 106 136 c 1
 80 178 l 1
 137.851 255.134 197.556 261 230 261 c 0
 304.074 261 381.172 196 445 196 c 0
 478 196 502 211 554 265 c 1
 582 222 l 1
486 383 m 0
 521 383 542 397 595 452 c 1
 623 410 l 1
 566.875 331.425 500.822 327 471 327 c 0
 394 327 317 392 258 392 c 0
 225 392 200 378 147 323 c 1
 121 365 l 1
 177.52 440.36 234.839 448 272 448 c 0
 342.653 448 427.029 383 486 383 c 0
EndSplineSet
EndChar

StartChar: notequal
Encoding: 8800 8800 337
Width: 568
VWidth: 1473
Flags: W
HStem: 0 21G<102 169.483> 174 63<97 228 327 558> 383 63<141 380 480 603>
LayerCount: 2
Fore
SplineSet
228 174 m 1
 84 174 l 1
 97 237 l 1
 274 237 l 1
 380 383 l 1
 128 383 l 1
 141 446 l 1
 427 446 l 1
 558 626 l 1
 611 626 l 1
 480 446 l 1
 616 446 l 1
 603 383 l 1
 433 383 l 1
 327 237 l 1
 572 237 l 1
 558 174 l 1
 281 174 l 1
 155 0 l 1
 102 0 l 1
 228 174 l 1
EndSplineSet
EndChar

StartChar: lessequal
Encoding: 8804 8804 338
Width: 671
VWidth: 1473
Flags: W
HStem: 0 60<56 628>
LayerCount: 2
Fore
SplineSet
130 402 m 1
 754 604 l 1
 741 541 l 1
 171 361 l 1
 663 174 l 1
 650 112 l 1
 112 323 l 1
 130 402 l 1
56 60 m 1
 639 60 l 1
 628 0 l 1
 44 0 l 1
 56 60 l 1
EndSplineSet
EndChar

StartChar: greaterequal
Encoding: 8805 8805 339
Width: 671
VWidth: 1473
Flags: W
HStem: 0 60<56 628>
LayerCount: 2
Fore
SplineSet
695 323 m 1
 69 112 l 1
 82 174 l 1
 654 361 l 1
 161 541 l 1
 174 604 l 1
 713 402 l 1
 695 323 l 1
628 0 m 1
 44 0 l 1
 56 60 l 1
 639 60 l 1
 628 0 l 1
EndSplineSet
EndChar

StartChar: lozenge
Encoding: 9674 9674 340
Width: 534
VWidth: 1473
Flags: W
VStem: 141 403<359 359 359 359>
LayerCount: 2
Fore
SplineSet
482 359 m 1
 392 583 l 1
 206 359 l 1
 296 133 l 1
 482 359 l 1
544 359 m 1
 317 82 l 1
 253 82 l 1
 141 359 l 1
 371 633 l 1
 435 633 l 1
 544 359 l 1
EndSplineSet
EndChar

StartChar: dottedcircle
Encoding: 9676 9676 341
Width: 797
VWidth: 1473
Flags: W
HStem: 35 67<381.494 441.12> 56 66<274.271 331.467 498.693 557.066> 118 66<192.219 251.071 607.956 664.979> 217 66<152.769 210.69 691.704 750.154> 329 66<154.021 211.898 739.021 796.307> 438 66<198.805 257.477 735.542 794.992> 536 67<282.858 340.477 696.637 753.444> 598 66<390.168 447.94 612.701 671.94> 617 68<506.155 564.845>
VStem: 148 68<222.273 258.533 333.312 368.514> 188 68<127.149 160.865 442.449 499.043> 270 67<60.322 98.0115> 277 68<540.472 598.148> 377 69<39.8054 97.1484> 385 67<602.196 637.627> 494 69<65.2722 116.653 621.852 680.148> 603 67<125.617 179.049 602.139 658.318> 687 68<223.461 278.528 560.023 575.88> 734 67<334.347 368.514 460.691 498.339>
LayerCount: 2
Fore
SplineSet
542 685 m 256x1c8180
 561 685 570 672 570 658 c 0
 570 639 555 617 529 617 c 256
 510 617 501 630 501 644 c 0
 501 663 516 685 542 685 c 256x1c8180
377 62 m 0x9c0580
 377 87 398 102 418 102 c 256
 437 102 446 89 446 75 c 0
 446 57 431 35 405 35 c 0
 386 35 377 44 377 62 c 0x9c0580
149 350 m 0
 149 364 156 395 187 395 c 0
 207 395 216 382 216 367 c 0x1c4180
 216 349 202 329 174 329 c 0
 157 329 149 336 149 350 c 0
801 369 m 0x1c01a0
 801 345 780 329 759 329 c 0
 742 329 734 336 734 350 c 0
 734 364 741 395 772 395 c 256
 789 395 801 385 801 369 c 0x1c01a0
194 463 m 0
 194 487 214 504 234 504 c 256
 253 504 262 492 262 477 c 0
 262 459 247 438 221 438 c 0
 203 438 194 446 194 463 c 0
277 558 m 0x1e0980
 277 581 293 603 317 603 c 256
 336 603 345 590 345 576 c 0
 345 557 331 536 303 536 c 0
 285 536 277 543 277 558 c 0x1e0980
385 621 m 0x1d0380
 385 634 393 664 426 664 c 0
 443 664 452 651 452 637 c 0
 452 619 438 598 412 598 c 0
 394 598 385 606 385 621 c 0x1d0380
799 479 m 0
 799 463 791 438 760 438 c 0
 740 438 730 446 730 462 c 0
 730 487 751 504 773 504 c 0
 789 504 799 495 799 479 c 0
758 577 m 0
 758 564 750 536 719 536 c 0
 700 536 691 544 691 559 c 0
 691 572 699 603 732 603 c 0x1e0180
 753 603 758 588 758 577 c 0
636 598 m 0x1d0180
 616 598 607 610 607 623 c 0
 607 642 624 664 650 664 c 256
 667 664 676 651 676 637 c 0
 676 619 662 598 636 598 c 0x1d0180
216 259 m 0x1c4180
 216 234 196 217 174 217 c 256
 153 217 148 232 148 242 c 0
 148 254 156 283 187 283 c 0
 206 283 216 275 216 259 c 0x1c4180
188 143 m 0x3c2180
 188 158 196 184 228 184 c 0
 248 184 256 172 256 158 c 0
 256 140 240 118 215 118 c 256
 193 118 188 133 188 143 c 0x3c2180
337 100 m 0x5c1180
 337 78 322 56 298 56 c 0
 280 56 270 65 270 81 c 0
 270 96 278 122 311 122 c 256
 329 122 337 115 337 100 c 0x5c1180
755 259 m 0x1c01c0
 755 235 737 217 715 217 c 0
 696 217 687 229 687 243 c 0
 687 262 702 283 728 283 c 0
 746 283 755 275 755 259 c 0x1c01c0
670 163 m 0
 670 149 663 118 632 118 c 256
 612 118 603 130 603 144 c 0
 603 163 619 184 645 184 c 0x3c0180
 662 184 670 177 670 163 c 0
563 101 m 0
 563 88 555 56 523 56 c 256
 506 56 494 66 494 82 c 0
 494 106 515 122 536 122 c 0x5c0180
 554 122 563 115 563 101 c 0
EndSplineSet
EndChar

StartChar: uni0E10.alt1
Encoding: 63232 63232 342
Width: 602
VWidth: 1473
Flags: W
HStem: -4 42<351.937 430.087> 255 53<229.948 316.768> 371 53<227.209 409.107> 383 53<249.74 495.6> 520 59<430.252 602.839> 538 51<252.085 364.474>
VStem: 162 55<174.618 240.91> 173 54<424.817 488.703> 323 51<80.5105 248.794> 515 61<300.861 363.186>
LayerCount: 2
Back
SplineSet
292 138 m 1
 243 112 l 1
 213.667 112 191.667 120.833 177 138.5 c 128
 162.333 156.167 158.333 179.667 165 209 c 0
 171 238.333 185.5 262.167 208.5 280.5 c 128
 231.5 298.833 257.667 308 287 308 c 0
 315 308 335.5 301.833 348.5 289.5 c 128
 361.5 277.167 369.5 259.5 372.5 236.5 c 128
 375.5 213.5 374 186.333 368 155 c 128
 362 123.667 354.333 88.6667 345 50 c 0
 343.667 47.3333 347.5 45 356.5 43 c 128
 365.5 41 375.333 40 386 40 c 128
 396.667 40 407 41 417 43 c 128
 427 45 432.333 48 433 52 c 0
 445.667 96 459.833 138.333 475.5 179 c 128
 491.167 219.667 503 257.333 511 292 c 0
 513 301.333 513.5 311 512.5 321 c 128
 511.5 331 507.167 339.833 499.5 347.5 c 128
 491.833 355.167 478.833 361.5 460.5 366.5 c 128
 442.167 371.5 417 374 385 374 c 0
 354.333 374 325.5 372 298.5 368 c 128
 271.5 364 248 362 228 362 c 0
 200 362 182.667 371.167 176 389.5 c 128
 169.333 407.833 168.667 430.333 174 457 c 0
 182.667 497 200.333 527.5 227 548.5 c 128
 253.667 569.5 285 580 321 580 c 0
 327.667 580 337.167 579.5 349.5 578.5 c 128
 368 577 368 577 391 575 c 128
 406.333 573.667 421.833 572.5 437.5 571.5 c 128
 453.167 570.5 468 570 482 570 c 0
 499.333 570 516.833 571.167 534.5 573.5 c 128
 552.167 575.833 568.333 578.667 583 582 c 0
 601 586 617.333 590 632 594 c 1
 635 573 l 0
 636 564 636 564 637 555.5 c 128
 637.667 549.833 637 544.333 635 539 c 1
 633.667 533 628.333 528 619 524 c 1
 613 523.333 604.5 522 593.5 520 c 128
 582.5 518 570.167 516.5 556.5 515.5 c 128
 536 514 536 514 513.5 512.5 c 128
 498.5 511.5 484 511 470 511 c 0
 457.333 511 443.167 512 427.5 514 c 128
 404 517 404 517 381.5 520 c 128
 366.5 522 353 524 341 526 c 128
 329 528 320 529 314 529 c 0
 285.333 529 265.167 522.833 253.5 510.5 c 128
 241.833 498.167 233.333 480.667 228 458 c 0
 223.333 439.333 223 427.5 227 422.5 c 128
 231 417.5 242.667 415 262 415 c 256
 282 415 307.667 417 339 421 c 128
 370.333 425 403.333 427 438 427 c 0
 490 427 527.167 415.333 549.5 392 c 128
 571.833 368.667 579.333 338.333 572 301 c 0
 568.667 287 563.333 269.5 556 248.5 c 128
 548.667 227.5 540.167 204.333 530.5 179 c 128
 516 141 516 141 501 100 c 128
 491 72.6667 482 45.6667 474 19 c 0
 472 12.3333 460.833 7 440.5 3 c 128
 420.167 -1 398.167 -2.66667 374.5 -2 c 128
 350.833 -1.33333 329.667 0.833333 311 4.5 c 128
 292.333 8.16667 284 13.6667 286 21 c 0
 296 61 304.333 95.5 311 124.5 c 128
 317.667 153.5 321.5 177.833 322.5 197.5 c 128
 323.5 217.167 320.333 231.667 313 241 c 128
 305.667 250.333 293 255 275 255 c 0
 261.667 255 249.333 250.5 238 241.5 c 128
 226.667 232.5 220 221.667 218 209 c 0
 215.333 198.333 216.833 188.167 222.5 178.5 c 128
 228.167 168.833 238.333 164 253 164 c 2
 298 164 l 1
 292 138 l 1
EndSplineSet
Fore
SplineSet
515 323 m 0xd2c0
 515 357 492 383 387 383 c 0xd2c0
 315 383 277 371 229 371 c 0
 195 371 173 384 173 429 c 0
 173 500 217 589 324 589 c 0xe5c0
 359 589 437 579 498 579 c 0
 553 579 605 591 648 603 c 1
 652.5 571.503 654 567 654 558 c 0
 654 534 644 532 574 524 c 0
 545 522 516 520 488 520 c 0xc9c0
 444 520 331 538 315 538 c 0
 267 538 241 521 230 467 c 0
 228 458 227 450 227 444 c 0
 227 430 232 424 265 424 c 256xe5c0
 335 424 343 436 439 436 c 0
 554 436 576 376 576 337 c 0
 576 321 573 303 558 256 c 2
 482 18 l 2
 477 -3 406 -4 386 -4 c 0
 368 -4 286 -3 286 17 c 0
 286 24 323 154 323 203 c 0
 323 245 301 255 275 255 c 0
 244 255 217 229 217 199 c 0
 217 185 224 164 253 164 c 2
 298 164 l 1
 292 138 l 1
 243 112 l 1
 196 112 162 137 162 183 c 0
 162 246 212 308 287 308 c 0
 339 308 374 285 374 212 c 0
 374 151 345 54 345 48 c 0
 345 41 377 38 390 38 c 256
 403 38 437 40 440 50 c 2
 480 182 l 2
 502 251 515 295 515 323 c 0xd2c0
EndSplineSet
EndChar

StartChar: uni0E34.alt1
Encoding: 63233 63233 343
Width: 0
VWidth: 1473
Flags: W
HStem: 644 47<-291.789 -110> 671 39<-458 -421.069 -421.069 -145.204> 806 47<-389.645 -178.948>
VStem: -523 465<671.891 688.967> -110 52<691.102 746.884>
LayerCount: 2
Fore
SplineSet
-407 671 m 0x68
 -515 671 -523 657 -523 675 c 1x70
 -523 675 -497 853 -275 853 c 0
 -163 853 -58 811 -58 693 c 0
 -58 652 -65 644 -80 644 c 0xa8
 -135 644 -270 671 -407 671 c 0x68
-384 713 m 0
 -260 713 -196 700 -110 691 c 1xa8
 -110 720 -125 746 -156 770 c 0
 -187 794 -231 806 -290 806 c 0
 -417 806 -456 732 -458 710 c 1
 -435 712 -410 713 -384 713 c 0
EndSplineSet
EndChar

StartChar: uni0E35.alt1
Encoding: 63234 63234 344
Width: 0
VWidth: 1473
Flags: W
HStem: 644 47<-276.811 -96> 671 39<-443 -406.069 -406.069 -130.839> 806 47<-374.898 -176.314>
VStem: -508 496<674 887 650.571 712.623>
LayerCount: 2
Fore
SplineSet
-392 671 m 0x70
 -489 671 -508 657 -508 674 c 1
 -508 674 -482 853 -261 853 c 0
 -188 853 -118 821 -90 781 c 1
 -91 786 -91 797 -82 849 c 2
 -75 887 l 1
 -12 887 l 1
 -47 716 l 1
 -43 662 -44 644 -65 644 c 0xb0
 -121 644 -255 671 -392 671 c 0x70
-369 713 m 0
 -245 713 -181 700 -96 691 c 1xb0
 -98 730 -154 806 -275 806 c 0
 -402 806 -441 732 -443 710 c 1x70
 -420 712 -395 713 -369 713 c 0
EndSplineSet
EndChar

StartChar: uni0E36.alt1
Encoding: 63235 63235 345
Width: 0
VWidth: 1473
Flags: W
HStem: 644 47<-291.789 -110> 671 39<-458 -421.069 -421.069 -145.204> 806 47<-389.645 -178.507> 869 41<-101.374 -31.6818>
VStem: -110 52<691 718.013> -29 41<792.614 858.832>
LayerCount: 2
Fore
SplineSet
-384 713 m 0x7c
 -260 713 -196 700 -110 691 c 1xbc
 -110 720 -125 746 -156 770 c 0
 -187 794 -231 806 -290 806 c 0
 -417 806 -456 732 -458 710 c 1
 -435 712 -410 713 -384 713 c 0x7c
-275 853 m 0
 -211 853 -173 837 -153 824 c 1
 -144 870 -101 910 -53 910 c 256
 -13 910 12 885 12 847 c 0
 12 791 -35 750 -72 744 c 1
 -64 730 -58 713 -58 691 c 0
 -58 647 -70 644 -80 644 c 0xbc
 -135 644 -270 671 -407 671 c 0x7c
 -515 671 -523 657 -523 675 c 1
 -523 675 -497 853 -275 853 c 0
-81 781 m 256
 -49 781 -29 812 -29 832 c 0
 -29 848 -35 869 -62 869 c 256
 -102 869 -112 829 -112 811 c 0
 -112 799 -106 781 -81 781 c 256
EndSplineSet
EndChar

StartChar: uni0E37.alt1
Encoding: 63236 63236 346
Width: 0
VWidth: 1473
Flags: W
HStem: 644 47<-291.789 -110> 671 39<-458 -421.069 -421.069 -145.204> 806 47<-389.645 -218.685>
VStem: -523 499<675 896 637.931 913.796>
LayerCount: 2
Fore
SplineSet
-384 713 m 0x70
 -260 713 -196 700 -110 691 c 1xb0
 -110 720 -125 746 -156 770 c 0
 -187 794 -231 806 -290 806 c 0
 -417 806 -456 732 -458 710 c 1
 -435 712 -410 713 -384 713 c 0x70
-275 853 m 0
 -261 853 -224 850 -206 841 c 1
 -194 896 l 1
 -131 896 l 1
 -147 824 l 1
 -128 814 -123 811 -103 793 c 1
 -103 807 l 2
 -103 820 -101 834 -97 850 c 2
 -87 896 l 1
 -24 896 l 1
 -62 716 l 1
 -52 652 -67 644 -80 644 c 0xb0
 -135 644 -270 671 -407 671 c 0x70
 -515 671 -523 657 -523 675 c 1
 -523 675 -497 853 -275 853 c 0
EndSplineSet
EndChar

